<mxfile host="Electron" agent="Mozilla/5.0 (Windows NT 10.0; Win64; x64) AppleWebKit/537.36 (KHTML, like Gecko) draw.io/25.0.2 Chrome/128.0.6613.186 Electron/32.2.5 Safari/537.36" version="25.0.2">
  <diagram name="Page-1" id="k6MW3NKdFXfLCft3gqeP">
    <mxGraphModel dx="3106" dy="909" grid="1" gridSize="10" guides="1" tooltips="1" connect="1" arrows="1" fold="1" page="1" pageScale="1" pageWidth="827" pageHeight="1169" math="0" shadow="0">
      <root>
        <mxCell id="0" />
        <mxCell id="1" parent="0" />
        <mxCell id="MrmV1t-2pLRhj0DmjCeG-1" value="MediaFetcher" style="swimlane;fontStyle=1;align=center;verticalAlign=top;childLayout=stackLayout;horizontal=1;startSize=26;horizontalStack=0;resizeParent=1;resizeParentMax=0;resizeLast=0;collapsible=1;marginBottom=0;whiteSpace=wrap;html=1;" parent="1" vertex="1">
          <mxGeometry x="290" y="160" width="160" height="296" as="geometry" />
        </mxCell>
        <mxCell id="MrmV1t-2pLRhj0DmjCeG-12" value="+&amp;nbsp;&lt;span style=&quot;color: rgb(156, 220, 254); background-color: rgb(31, 31, 31); font-family: Consolas, &amp;quot;Courier New&amp;quot;, monospace; font-size: 14px; white-space: pre;&quot;&gt;id int&lt;/span&gt;" style="text;strokeColor=none;fillColor=none;align=left;verticalAlign=top;spacingLeft=4;spacingRight=4;overflow=hidden;rotatable=0;points=[[0,0.5],[1,0.5]];portConstraint=eastwest;whiteSpace=wrap;html=1;" parent="MrmV1t-2pLRhj0DmjCeG-1" vertex="1">
          <mxGeometry y="26" width="160" height="26" as="geometry" />
        </mxCell>
        <mxCell id="MrmV1t-2pLRhj0DmjCeG-2" value="+ &lt;font face=&quot;Consolas, Courier New, monospace&quot; color=&quot;#9cdcfe&quot;&gt;&lt;span style=&quot;font-size: 14px; white-space: pre; background-color: rgb(31, 31, 31);&quot;&gt;type{serie,film}&lt;/span&gt;&lt;/font&gt;" style="text;strokeColor=none;fillColor=none;align=left;verticalAlign=top;spacingLeft=4;spacingRight=4;overflow=hidden;rotatable=0;points=[[0,0.5],[1,0.5]];portConstraint=eastwest;whiteSpace=wrap;html=1;" parent="MrmV1t-2pLRhj0DmjCeG-1" vertex="1">
          <mxGeometry y="52" width="160" height="26" as="geometry" />
        </mxCell>
        <mxCell id="MrmV1t-2pLRhj0DmjCeG-3" value="" style="line;strokeWidth=1;fillColor=none;align=left;verticalAlign=middle;spacingTop=-1;spacingLeft=3;spacingRight=3;rotatable=0;labelPosition=right;points=[];portConstraint=eastwest;strokeColor=inherit;" parent="MrmV1t-2pLRhj0DmjCeG-1" vertex="1">
          <mxGeometry y="78" width="160" height="8" as="geometry" />
        </mxCell>
        <mxCell id="MrmV1t-2pLRhj0DmjCeG-4" value="+&amp;nbsp;&lt;span style=&quot;color: rgb(220, 220, 170); background-color: rgb(31, 31, 31); font-family: Consolas, &amp;quot;Courier New&amp;quot;, monospace; font-size: 14px; white-space: pre;&quot;&gt;FetchById()&lt;/span&gt;" style="text;strokeColor=none;fillColor=none;align=left;verticalAlign=top;spacingLeft=4;spacingRight=4;overflow=hidden;rotatable=0;points=[[0,0.5],[1,0.5]];portConstraint=eastwest;whiteSpace=wrap;html=1;" parent="MrmV1t-2pLRhj0DmjCeG-1" vertex="1">
          <mxGeometry y="86" width="160" height="30" as="geometry" />
        </mxCell>
        <mxCell id="MrmV1t-2pLRhj0DmjCeG-6" value="+&amp;nbsp;&lt;span style=&quot;color: rgb(220, 220, 170); background-color: rgb(31, 31, 31); font-family: Consolas, &amp;quot;Courier New&amp;quot;, monospace; font-size: 14px; white-space: pre;&quot;&gt;FetchByGenre()&lt;/span&gt;" style="text;strokeColor=none;fillColor=none;align=left;verticalAlign=top;spacingLeft=4;spacingRight=4;overflow=hidden;rotatable=0;points=[[0,0.5],[1,0.5]];portConstraint=eastwest;whiteSpace=wrap;html=1;" parent="MrmV1t-2pLRhj0DmjCeG-1" vertex="1">
          <mxGeometry y="116" width="160" height="30" as="geometry" />
        </mxCell>
        <mxCell id="MrmV1t-2pLRhj0DmjCeG-5" value="+&amp;nbsp;&lt;span style=&quot;color: rgb(220, 220, 170); background-color: rgb(31, 31, 31); font-family: Consolas, &amp;quot;Courier New&amp;quot;, monospace; font-size: 14px; white-space: pre;&quot;&gt;FetchByTrending()&lt;/span&gt;" style="text;strokeColor=none;fillColor=none;align=left;verticalAlign=top;spacingLeft=4;spacingRight=4;overflow=hidden;rotatable=0;points=[[0,0.5],[1,0.5]];portConstraint=eastwest;whiteSpace=wrap;html=1;" parent="MrmV1t-2pLRhj0DmjCeG-1" vertex="1">
          <mxGeometry y="146" width="160" height="30" as="geometry" />
        </mxCell>
        <mxCell id="MrmV1t-2pLRhj0DmjCeG-7" value="+&amp;nbsp;&lt;span style=&quot;color: rgb(220, 220, 170); background-color: rgb(31, 31, 31); font-family: Consolas, &amp;quot;Courier New&amp;quot;, monospace; font-size: 14px; white-space: pre;&quot;&gt;FetchByImage()&lt;/span&gt;" style="text;strokeColor=none;fillColor=none;align=left;verticalAlign=top;spacingLeft=4;spacingRight=4;overflow=hidden;rotatable=0;points=[[0,0.5],[1,0.5]];portConstraint=eastwest;whiteSpace=wrap;html=1;" parent="MrmV1t-2pLRhj0DmjCeG-1" vertex="1">
          <mxGeometry y="176" width="160" height="30" as="geometry" />
        </mxCell>
        <mxCell id="MrmV1t-2pLRhj0DmjCeG-8" value="+&amp;nbsp;&lt;span style=&quot;color: rgb(220, 220, 170); background-color: rgb(31, 31, 31); font-family: Consolas, &amp;quot;Courier New&amp;quot;, monospace; font-size: 14px; white-space: pre;&quot;&gt;FetchByCrédits()&lt;/span&gt;" style="text;strokeColor=none;fillColor=none;align=left;verticalAlign=top;spacingLeft=4;spacingRight=4;overflow=hidden;rotatable=0;points=[[0,0.5],[1,0.5]];portConstraint=eastwest;whiteSpace=wrap;html=1;" parent="MrmV1t-2pLRhj0DmjCeG-1" vertex="1">
          <mxGeometry y="206" width="160" height="30" as="geometry" />
        </mxCell>
        <mxCell id="MrmV1t-2pLRhj0DmjCeG-9" value="+&amp;nbsp;&lt;span style=&quot;color: rgb(220, 220, 170); background-color: rgb(31, 31, 31); font-family: Consolas, &amp;quot;Courier New&amp;quot;, monospace; font-size: 14px; white-space: pre;&quot;&gt;FetchByTrailer&lt;/span&gt;&lt;span style=&quot;background-color: rgb(31, 31, 31); color: rgb(220, 220, 170); font-family: Consolas, &amp;quot;Courier New&amp;quot;, monospace; font-size: 14px; white-space: pre;&quot;&gt;()&lt;/span&gt;" style="text;strokeColor=none;fillColor=none;align=left;verticalAlign=top;spacingLeft=4;spacingRight=4;overflow=hidden;rotatable=0;points=[[0,0.5],[1,0.5]];portConstraint=eastwest;whiteSpace=wrap;html=1;" parent="MrmV1t-2pLRhj0DmjCeG-1" vertex="1">
          <mxGeometry y="236" width="160" height="30" as="geometry" />
        </mxCell>
        <mxCell id="MrmV1t-2pLRhj0DmjCeG-11" value="&lt;div style=&quot;color: rgb(204, 204, 204); background-color: rgb(31, 31, 31); font-family: Consolas, &amp;quot;Courier New&amp;quot;, monospace; font-size: 14px; line-height: 19px; white-space: pre;&quot;&gt;&lt;span style=&quot;background-color: initial; color: rgb(240, 240, 240); font-family: Helvetica; font-size: 12px; white-space: normal;&quot;&gt;+&amp;nbsp;&lt;/span&gt;&lt;span style=&quot;color: #dcdcaa;&quot;&gt;FetchWithQuery()&lt;/span&gt;&lt;/div&gt;" style="text;strokeColor=none;fillColor=none;align=left;verticalAlign=top;spacingLeft=4;spacingRight=4;overflow=hidden;rotatable=0;points=[[0,0.5],[1,0.5]];portConstraint=eastwest;whiteSpace=wrap;html=1;" parent="MrmV1t-2pLRhj0DmjCeG-1" vertex="1">
          <mxGeometry y="266" width="160" height="30" as="geometry" />
        </mxCell>
        <mxCell id="MrmV1t-2pLRhj0DmjCeG-13" value="Server" style="verticalAlign=top;align=left;spacingTop=8;spacingLeft=2;spacingRight=12;shape=cube;size=10;direction=south;fontStyle=4;html=1;whiteSpace=wrap;" parent="1" vertex="1">
          <mxGeometry x="740" y="220" width="180" height="120" as="geometry" />
        </mxCell>
        <mxCell id="MrmV1t-2pLRhj0DmjCeG-21" value="Route Série" style="whiteSpace=wrap;html=1;align=center;verticalAlign=middle;treeFolding=1;treeMoving=1;newEdgeStyle={&quot;edgeStyle&quot;:&quot;elbowEdgeStyle&quot;,&quot;startArrow&quot;:&quot;none&quot;,&quot;endArrow&quot;:&quot;none&quot;};" parent="1" vertex="1">
          <mxGeometry x="870" y="380" width="100" height="60" as="geometry" />
        </mxCell>
        <mxCell id="MrmV1t-2pLRhj0DmjCeG-22" value="" style="edgeStyle=elbowEdgeStyle;elbow=vertical;sourcePerimeterSpacing=0;targetPerimeterSpacing=0;startArrow=none;endArrow=none;rounded=0;curved=0;" parent="1" target="MrmV1t-2pLRhj0DmjCeG-21" edge="1">
          <mxGeometry relative="1" as="geometry">
            <mxPoint x="840" y="340" as="sourcePoint" />
          </mxGeometry>
        </mxCell>
        <mxCell id="MrmV1t-2pLRhj0DmjCeG-23" value="Route film" style="whiteSpace=wrap;html=1;align=center;verticalAlign=middle;treeFolding=1;treeMoving=1;newEdgeStyle={&quot;edgeStyle&quot;:&quot;elbowEdgeStyle&quot;,&quot;startArrow&quot;:&quot;none&quot;,&quot;endArrow&quot;:&quot;none&quot;};" parent="1" vertex="1">
          <mxGeometry x="690" y="380" width="100" height="60" as="geometry" />
        </mxCell>
        <mxCell id="MrmV1t-2pLRhj0DmjCeG-24" value="" style="edgeStyle=elbowEdgeStyle;elbow=vertical;sourcePerimeterSpacing=0;targetPerimeterSpacing=0;startArrow=none;endArrow=none;rounded=0;curved=0;exitX=0;exitY=0;exitDx=120;exitDy=95;exitPerimeter=0;" parent="1" source="MrmV1t-2pLRhj0DmjCeG-13" target="MrmV1t-2pLRhj0DmjCeG-23" edge="1">
          <mxGeometry relative="1" as="geometry">
            <mxPoint x="670" y="340" as="sourcePoint" />
          </mxGeometry>
        </mxCell>
        <mxCell id="MrmV1t-2pLRhj0DmjCeG-25" value="API TMDB" style="swimlane;childLayout=stackLayout;horizontal=1;startSize=50;horizontalStack=0;rounded=1;fontSize=14;fontStyle=0;strokeWidth=2;resizeParent=0;resizeLast=1;shadow=0;dashed=0;align=center;arcSize=4;whiteSpace=wrap;html=1;" parent="1" vertex="1">
          <mxGeometry x="750" y="585" width="160" height="120" as="geometry" />
        </mxCell>
        <mxCell id="MrmV1t-2pLRhj0DmjCeG-30" value="Notification" style="swimlane;fontStyle=1;align=center;verticalAlign=top;childLayout=stackLayout;horizontal=1;startSize=26;horizontalStack=0;resizeParent=1;resizeParentMax=0;resizeLast=0;collapsible=1;marginBottom=0;whiteSpace=wrap;html=1;" parent="1" vertex="1">
          <mxGeometry x="1210" y="240" width="190" height="112" as="geometry" />
        </mxCell>
        <mxCell id="MrmV1t-2pLRhj0DmjCeG-31" value="type {&lt;span style=&quot;color: rgb(156, 220, 254); background-color: rgb(31, 31, 31); font-family: Consolas, &amp;quot;Courier New&amp;quot;, monospace; white-space: pre;&quot;&gt;&lt;font style=&quot;font-size: 10px;&quot;&gt;INFO,WARNING,ERROR,SUCCESS&lt;/font&gt;&lt;/span&gt;&lt;span style=&quot;background-color: initial;&quot;&gt;}&lt;/span&gt;" style="text;strokeColor=none;fillColor=none;align=left;verticalAlign=top;spacingLeft=4;spacingRight=4;overflow=hidden;rotatable=0;points=[[0,0.5],[1,0.5]];portConstraint=eastwest;whiteSpace=wrap;html=1;" parent="MrmV1t-2pLRhj0DmjCeG-30" vertex="1">
          <mxGeometry y="26" width="190" height="26" as="geometry" />
        </mxCell>
        <mxCell id="MrmV1t-2pLRhj0DmjCeG-32" value="" style="line;strokeWidth=1;fillColor=none;align=left;verticalAlign=middle;spacingTop=-1;spacingLeft=3;spacingRight=3;rotatable=0;labelPosition=right;points=[];portConstraint=eastwest;strokeColor=inherit;" parent="MrmV1t-2pLRhj0DmjCeG-30" vertex="1">
          <mxGeometry y="52" width="190" height="8" as="geometry" />
        </mxCell>
        <mxCell id="MrmV1t-2pLRhj0DmjCeG-33" value="+&lt;span style=&quot;color: rgb(220, 220, 170); background-color: rgb(31, 31, 31); font-family: Consolas, &amp;quot;Courier New&amp;quot;, monospace; font-size: 14px; white-space: pre;&quot;&gt;createElement()&lt;/span&gt;" style="text;strokeColor=none;fillColor=none;align=left;verticalAlign=top;spacingLeft=4;spacingRight=4;overflow=hidden;rotatable=0;points=[[0,0.5],[1,0.5]];portConstraint=eastwest;whiteSpace=wrap;html=1;" parent="MrmV1t-2pLRhj0DmjCeG-30" vertex="1">
          <mxGeometry y="60" width="190" height="26" as="geometry" />
        </mxCell>
        <mxCell id="MrmV1t-2pLRhj0DmjCeG-34" value="+&lt;span style=&quot;color: rgb(220, 220, 170); background-color: rgb(31, 31, 31); font-family: Consolas, &amp;quot;Courier New&amp;quot;, monospace; font-size: 14px; white-space: pre;&quot;&gt;show&lt;/span&gt;&lt;span style=&quot;background-color: rgb(31, 31, 31); color: rgb(220, 220, 170); font-family: Consolas, &amp;quot;Courier New&amp;quot;, monospace; font-size: 14px; white-space: pre;&quot;&gt;()&lt;/span&gt;" style="text;strokeColor=none;fillColor=none;align=left;verticalAlign=top;spacingLeft=4;spacingRight=4;overflow=hidden;rotatable=0;points=[[0,0.5],[1,0.5]];portConstraint=eastwest;whiteSpace=wrap;html=1;" parent="MrmV1t-2pLRhj0DmjCeG-30" vertex="1">
          <mxGeometry y="86" width="190" height="26" as="geometry" />
        </mxCell>
        <mxCell id="MrmV1t-2pLRhj0DmjCeG-38" value="" style="endArrow=classic;html=1;rounded=0;exitX=0.245;exitY=-0.012;exitDx=0;exitDy=0;exitPerimeter=0;entryX=0.007;entryY=0.123;entryDx=0;entryDy=0;entryPerimeter=0;" parent="1" source="MrmV1t-2pLRhj0DmjCeG-13" target="MrmV1t-2pLRhj0DmjCeG-30" edge="1">
          <mxGeometry width="50" height="50" relative="1" as="geometry">
            <mxPoint x="1040" y="240" as="sourcePoint" />
            <mxPoint x="1090" y="190" as="targetPoint" />
          </mxGeometry>
        </mxCell>
        <mxCell id="MrmV1t-2pLRhj0DmjCeG-39" value="" style="endArrow=classic;html=1;rounded=0;exitX=1;exitY=0.5;exitDx=0;exitDy=0;entryX=0.084;entryY=1.001;entryDx=0;entryDy=0;entryPerimeter=0;" parent="1" source="MrmV1t-2pLRhj0DmjCeG-4" target="MrmV1t-2pLRhj0DmjCeG-13" edge="1">
          <mxGeometry width="50" height="50" relative="1" as="geometry">
            <mxPoint x="700" y="360" as="sourcePoint" />
            <mxPoint x="750" y="310" as="targetPoint" />
          </mxGeometry>
        </mxCell>
        <mxCell id="MrmV1t-2pLRhj0DmjCeG-40" value="" style="endArrow=classic;html=1;rounded=0;exitX=1;exitY=0.5;exitDx=0;exitDy=0;entryX=0.086;entryY=0.999;entryDx=0;entryDy=0;entryPerimeter=0;" parent="1" source="MrmV1t-2pLRhj0DmjCeG-6" target="MrmV1t-2pLRhj0DmjCeG-13" edge="1">
          <mxGeometry width="50" height="50" relative="1" as="geometry">
            <mxPoint x="460" y="271" as="sourcePoint" />
            <mxPoint x="752" y="243" as="targetPoint" />
          </mxGeometry>
        </mxCell>
        <mxCell id="MrmV1t-2pLRhj0DmjCeG-41" value="" style="endArrow=classic;html=1;rounded=0;exitX=1;exitY=0.5;exitDx=0;exitDy=0;entryX=0;entryY=0;entryDx=10;entryDy=180;entryPerimeter=0;" parent="1" source="MrmV1t-2pLRhj0DmjCeG-5" target="MrmV1t-2pLRhj0DmjCeG-13" edge="1">
          <mxGeometry width="50" height="50" relative="1" as="geometry">
            <mxPoint x="470" y="281" as="sourcePoint" />
            <mxPoint x="762" y="253" as="targetPoint" />
          </mxGeometry>
        </mxCell>
        <mxCell id="MrmV1t-2pLRhj0DmjCeG-42" value="" style="endArrow=classic;html=1;rounded=0;exitX=1;exitY=0.5;exitDx=0;exitDy=0;" parent="1" source="MrmV1t-2pLRhj0DmjCeG-7" edge="1">
          <mxGeometry width="50" height="50" relative="1" as="geometry">
            <mxPoint x="460" y="331" as="sourcePoint" />
            <mxPoint x="740" y="230" as="targetPoint" />
          </mxGeometry>
        </mxCell>
        <mxCell id="MrmV1t-2pLRhj0DmjCeG-43" value="" style="endArrow=classic;html=1;rounded=0;exitX=1;exitY=0.5;exitDx=0;exitDy=0;entryX=0;entryY=0;entryDx=10;entryDy=180;entryPerimeter=0;" parent="1" source="MrmV1t-2pLRhj0DmjCeG-8" target="MrmV1t-2pLRhj0DmjCeG-13" edge="1">
          <mxGeometry width="50" height="50" relative="1" as="geometry">
            <mxPoint x="460" y="361" as="sourcePoint" />
            <mxPoint x="760" y="250" as="targetPoint" />
          </mxGeometry>
        </mxCell>
        <mxCell id="MrmV1t-2pLRhj0DmjCeG-44" value="" style="endArrow=classic;html=1;rounded=0;exitX=1;exitY=0.5;exitDx=0;exitDy=0;entryX=0;entryY=0;entryDx=10;entryDy=180;entryPerimeter=0;" parent="1" source="MrmV1t-2pLRhj0DmjCeG-9" target="MrmV1t-2pLRhj0DmjCeG-13" edge="1">
          <mxGeometry width="50" height="50" relative="1" as="geometry">
            <mxPoint x="460" y="391" as="sourcePoint" />
            <mxPoint x="770" y="260" as="targetPoint" />
          </mxGeometry>
        </mxCell>
        <mxCell id="MrmV1t-2pLRhj0DmjCeG-45" value="" style="endArrow=classic;html=1;rounded=0;exitX=1;exitY=0.5;exitDx=0;exitDy=0;entryX=0.085;entryY=1.007;entryDx=0;entryDy=0;entryPerimeter=0;" parent="1" source="MrmV1t-2pLRhj0DmjCeG-11" target="MrmV1t-2pLRhj0DmjCeG-13" edge="1">
          <mxGeometry width="50" height="50" relative="1" as="geometry">
            <mxPoint x="460" y="421" as="sourcePoint" />
            <mxPoint x="780" y="270" as="targetPoint" />
          </mxGeometry>
        </mxCell>
        <mxCell id="MrmV1t-2pLRhj0DmjCeG-48" value="" style="endArrow=classic;html=1;rounded=0;exitX=0.5;exitY=1;exitDx=0;exitDy=0;entryX=0.5;entryY=0;entryDx=0;entryDy=0;" parent="1" source="MrmV1t-2pLRhj0DmjCeG-23" target="MrmV1t-2pLRhj0DmjCeG-25" edge="1">
          <mxGeometry width="50" height="50" relative="1" as="geometry">
            <mxPoint x="730" y="591" as="sourcePoint" />
            <mxPoint x="1019" y="380" as="targetPoint" />
          </mxGeometry>
        </mxCell>
        <mxCell id="MrmV1t-2pLRhj0DmjCeG-49" value="" style="endArrow=classic;html=1;rounded=0;exitX=0.5;exitY=1;exitDx=0;exitDy=0;entryX=0.5;entryY=0;entryDx=0;entryDy=0;" parent="1" source="MrmV1t-2pLRhj0DmjCeG-21" target="MrmV1t-2pLRhj0DmjCeG-25" edge="1">
          <mxGeometry width="50" height="50" relative="1" as="geometry">
            <mxPoint x="750" y="450" as="sourcePoint" />
            <mxPoint x="840" y="595" as="targetPoint" />
          </mxGeometry>
        </mxCell>
        <mxCell id="MrmV1t-2pLRhj0DmjCeG-56" value="Index.html - Propo" style="swimlane;fontStyle=1;align=center;verticalAlign=top;childLayout=stackLayout;horizontal=1;startSize=26;horizontalStack=0;resizeParent=1;resizeParentMax=0;resizeLast=0;collapsible=1;marginBottom=0;whiteSpace=wrap;html=1;" parent="1" vertex="1">
          <mxGeometry x="-260" y="160" width="160" height="34" as="geometry" />
        </mxCell>
        <mxCell id="MrmV1t-2pLRhj0DmjCeG-58" value="" style="line;strokeWidth=1;fillColor=none;align=left;verticalAlign=middle;spacingTop=-1;spacingLeft=3;spacingRight=3;rotatable=0;labelPosition=right;points=[];portConstraint=eastwest;strokeColor=inherit;" parent="MrmV1t-2pLRhj0DmjCeG-56" vertex="1">
          <mxGeometry y="26" width="160" height="8" as="geometry" />
        </mxCell>
        <mxCell id="MrmV1t-2pLRhj0DmjCeG-60" value="" style="endArrow=classic;html=1;rounded=0;exitX=1;exitY=0.5;exitDx=0;exitDy=0;entryX=0;entryY=0.5;entryDx=0;entryDy=0;fillColor=#a20025;strokeColor=#6F0000;" parent="1" source="MrmV1t-2pLRhj0DmjCeG-56" target="MrmV1t-2pLRhj0DmjCeG-6" edge="1">
          <mxGeometry width="50" height="50" relative="1" as="geometry">
            <mxPoint x="-90" y="241" as="sourcePoint" />
            <mxPoint x="200" y="210" as="targetPoint" />
          </mxGeometry>
        </mxCell>
        <mxCell id="MrmV1t-2pLRhj0DmjCeG-61" value="" style="endArrow=classic;html=1;rounded=0;exitX=1;exitY=0.5;exitDx=0;exitDy=0;entryX=0;entryY=0.5;entryDx=0;entryDy=0;fillColor=#a20025;strokeColor=#6F0000;" parent="1" source="MrmV1t-2pLRhj0DmjCeG-56" target="MrmV1t-2pLRhj0DmjCeG-5" edge="1">
          <mxGeometry width="50" height="50" relative="1" as="geometry">
            <mxPoint x="-90" y="187" as="sourcePoint" />
            <mxPoint x="300" y="301" as="targetPoint" />
          </mxGeometry>
        </mxCell>
        <mxCell id="MrmV1t-2pLRhj0DmjCeG-65" value="Serie/Film.html&amp;nbsp;" style="swimlane;fontStyle=1;align=center;verticalAlign=top;childLayout=stackLayout;horizontal=1;startSize=26;horizontalStack=0;resizeParent=1;resizeParentMax=0;resizeLast=0;collapsible=1;marginBottom=0;whiteSpace=wrap;html=1;" parent="1" vertex="1">
          <mxGeometry x="-260" y="392" width="160" height="34" as="geometry" />
        </mxCell>
        <mxCell id="MrmV1t-2pLRhj0DmjCeG-66" value="" style="line;strokeWidth=1;fillColor=none;align=left;verticalAlign=middle;spacingTop=-1;spacingLeft=3;spacingRight=3;rotatable=0;labelPosition=right;points=[];portConstraint=eastwest;strokeColor=inherit;" parent="MrmV1t-2pLRhj0DmjCeG-65" vertex="1">
          <mxGeometry y="26" width="160" height="8" as="geometry" />
        </mxCell>
        <mxCell id="MrmV1t-2pLRhj0DmjCeG-67" value="" style="endArrow=classic;html=1;rounded=0;exitX=1;exitY=0.5;exitDx=0;exitDy=0;entryX=0;entryY=0.5;entryDx=0;entryDy=0;fillColor=#008a00;strokeColor=#005700;" parent="1" source="MrmV1t-2pLRhj0DmjCeG-65" target="MrmV1t-2pLRhj0DmjCeG-9" edge="1">
          <mxGeometry width="50" height="50" relative="1" as="geometry">
            <mxPoint x="-90" y="449" as="sourcePoint" />
            <mxPoint x="300" y="451" as="targetPoint" />
          </mxGeometry>
        </mxCell>
        <mxCell id="MrmV1t-2pLRhj0DmjCeG-71" value="" style="endArrow=classic;html=1;rounded=0;entryX=0;entryY=0.5;entryDx=0;entryDy=0;fillColor=#a20025;strokeColor=#6F0000;" parent="1" target="MrmV1t-2pLRhj0DmjCeG-11" edge="1">
          <mxGeometry width="50" height="50" relative="1" as="geometry">
            <mxPoint x="-100" y="177" as="sourcePoint" />
            <mxPoint x="300" y="331" as="targetPoint" />
          </mxGeometry>
        </mxCell>
        <mxCell id="MrmV1t-2pLRhj0DmjCeG-72" value="" style="endArrow=classic;html=1;rounded=0;exitX=1;exitY=0.5;exitDx=0;exitDy=0;entryX=-0.019;entryY=0.661;entryDx=0;entryDy=0;entryPerimeter=0;fillColor=#008a00;strokeColor=#005700;" parent="1" source="MrmV1t-2pLRhj0DmjCeG-65" target="MrmV1t-2pLRhj0DmjCeG-8" edge="1">
          <mxGeometry width="50" height="50" relative="1" as="geometry">
            <mxPoint x="-70" y="419" as="sourcePoint" />
            <mxPoint x="300" y="421" as="targetPoint" />
          </mxGeometry>
        </mxCell>
        <mxCell id="MrmV1t-2pLRhj0DmjCeG-73" value="" style="endArrow=classic;html=1;rounded=0;exitX=1;exitY=0.5;exitDx=0;exitDy=0;entryX=0;entryY=0.5;entryDx=0;entryDy=0;fillColor=#008a00;strokeColor=#005700;" parent="1" source="MrmV1t-2pLRhj0DmjCeG-65" target="MrmV1t-2pLRhj0DmjCeG-7" edge="1">
          <mxGeometry width="50" height="50" relative="1" as="geometry">
            <mxPoint x="-70" y="419" as="sourcePoint" />
            <mxPoint x="297" y="396" as="targetPoint" />
          </mxGeometry>
        </mxCell>
        <mxCell id="MrmV1t-2pLRhj0DmjCeG-74" value="" style="endArrow=classic;html=1;rounded=0;exitX=1;exitY=0.5;exitDx=0;exitDy=0;entryX=0;entryY=0.5;entryDx=0;entryDy=0;fillColor=#008a00;strokeColor=#005700;" parent="1" source="MrmV1t-2pLRhj0DmjCeG-65" target="MrmV1t-2pLRhj0DmjCeG-4" edge="1">
          <mxGeometry width="50" height="50" relative="1" as="geometry">
            <mxPoint x="-70" y="419" as="sourcePoint" />
            <mxPoint x="300" y="361" as="targetPoint" />
          </mxGeometry>
        </mxCell>
        <mxCell id="MrmV1t-2pLRhj0DmjCeG-75" value="GenreMap" style="swimlane;fontStyle=1;align=center;verticalAlign=top;childLayout=stackLayout;horizontal=1;startSize=26;horizontalStack=0;resizeParent=1;resizeParentMax=0;resizeLast=0;collapsible=1;marginBottom=0;whiteSpace=wrap;html=1;" parent="1" vertex="1">
          <mxGeometry x="-170" y="20" width="160" height="34" as="geometry" />
        </mxCell>
        <mxCell id="MrmV1t-2pLRhj0DmjCeG-76" value="" style="line;strokeWidth=1;fillColor=none;align=left;verticalAlign=middle;spacingTop=-1;spacingLeft=3;spacingRight=3;rotatable=0;labelPosition=right;points=[];portConstraint=eastwest;strokeColor=inherit;" parent="MrmV1t-2pLRhj0DmjCeG-75" vertex="1">
          <mxGeometry y="26" width="160" height="8" as="geometry" />
        </mxCell>
        <mxCell id="MrmV1t-2pLRhj0DmjCeG-77" value="Type" style="swimlane;fontStyle=1;align=center;verticalAlign=top;childLayout=stackLayout;horizontal=1;startSize=26;horizontalStack=0;resizeParent=1;resizeParentMax=0;resizeLast=0;collapsible=1;marginBottom=0;whiteSpace=wrap;html=1;" parent="1" vertex="1">
          <mxGeometry x="-350" y="20" width="160" height="34" as="geometry" />
        </mxCell>
        <mxCell id="MrmV1t-2pLRhj0DmjCeG-78" value="" style="line;strokeWidth=1;fillColor=none;align=left;verticalAlign=middle;spacingTop=-1;spacingLeft=3;spacingRight=3;rotatable=0;labelPosition=right;points=[];portConstraint=eastwest;strokeColor=inherit;" parent="MrmV1t-2pLRhj0DmjCeG-77" vertex="1">
          <mxGeometry y="26" width="160" height="8" as="geometry" />
        </mxCell>
        <mxCell id="MrmV1t-2pLRhj0DmjCeG-79" value="" style="endArrow=classic;html=1;rounded=0;exitX=0.5;exitY=0;exitDx=0;exitDy=0;entryX=0.5;entryY=1;entryDx=0;entryDy=0;" parent="1" source="MrmV1t-2pLRhj0DmjCeG-56" target="MrmV1t-2pLRhj0DmjCeG-77" edge="1">
          <mxGeometry width="50" height="50" relative="1" as="geometry">
            <mxPoint x="-370" y="151" as="sourcePoint" />
            <mxPoint x="-80" y="120" as="targetPoint" />
          </mxGeometry>
        </mxCell>
        <mxCell id="MrmV1t-2pLRhj0DmjCeG-80" value="" style="endArrow=classic;html=1;rounded=0;exitX=0.5;exitY=0;exitDx=0;exitDy=0;entryX=0.5;entryY=1;entryDx=0;entryDy=0;" parent="1" source="MrmV1t-2pLRhj0DmjCeG-56" target="MrmV1t-2pLRhj0DmjCeG-75" edge="1">
          <mxGeometry width="50" height="50" relative="1" as="geometry">
            <mxPoint x="-170" y="170" as="sourcePoint" />
            <mxPoint x="-260" y="64" as="targetPoint" />
          </mxGeometry>
        </mxCell>
        <mxCell id="MrmV1t-2pLRhj0DmjCeG-81" value="Route User" style="whiteSpace=wrap;html=1;align=center;verticalAlign=middle;treeFolding=1;treeMoving=1;newEdgeStyle={&quot;edgeStyle&quot;:&quot;elbowEdgeStyle&quot;,&quot;startArrow&quot;:&quot;none&quot;,&quot;endArrow&quot;:&quot;none&quot;};" parent="1" vertex="1">
          <mxGeometry x="1027.56" y="380" width="100" height="60" as="geometry" />
        </mxCell>
        <mxCell id="MrmV1t-2pLRhj0DmjCeG-82" value="" style="edgeStyle=elbowEdgeStyle;elbow=vertical;sourcePerimeterSpacing=0;targetPerimeterSpacing=0;startArrow=none;endArrow=none;rounded=0;curved=0;exitX=0.608;exitY=-0.008;exitDx=0;exitDy=0;exitPerimeter=0;entryX=0.503;entryY=-0.027;entryDx=0;entryDy=0;entryPerimeter=0;fillColor=#6a00ff;strokeColor=#3700CC;" parent="1" target="MrmV1t-2pLRhj0DmjCeG-81" edge="1">
          <mxGeometry relative="1" as="geometry">
            <mxPoint x="910" y="340.00000000000006" as="sourcePoint" />
            <mxPoint x="1078.56" y="413.04" as="targetPoint" />
            <Array as="points">
              <mxPoint x="1000" y="340" />
            </Array>
          </mxGeometry>
        </mxCell>
        <mxCell id="MrmV1t-2pLRhj0DmjCeG-84" value="SignIn" style="swimlane;fontStyle=1;align=center;verticalAlign=top;childLayout=stackLayout;horizontal=1;startSize=26;horizontalStack=0;resizeParent=1;resizeParentMax=0;resizeLast=0;collapsible=1;marginBottom=0;whiteSpace=wrap;html=1;" parent="1" vertex="1">
          <mxGeometry x="580" y="30" width="160" height="34" as="geometry" />
        </mxCell>
        <mxCell id="MrmV1t-2pLRhj0DmjCeG-85" value="" style="line;strokeWidth=1;fillColor=none;align=left;verticalAlign=middle;spacingTop=-1;spacingLeft=3;spacingRight=3;rotatable=0;labelPosition=right;points=[];portConstraint=eastwest;strokeColor=inherit;" parent="MrmV1t-2pLRhj0DmjCeG-84" vertex="1">
          <mxGeometry y="26" width="160" height="8" as="geometry" />
        </mxCell>
        <mxCell id="MrmV1t-2pLRhj0DmjCeG-86" value="Login" style="swimlane;fontStyle=1;align=center;verticalAlign=top;childLayout=stackLayout;horizontal=1;startSize=26;horizontalStack=0;resizeParent=1;resizeParentMax=0;resizeLast=0;collapsible=1;marginBottom=0;whiteSpace=wrap;html=1;" parent="1" vertex="1">
          <mxGeometry x="890" y="30" width="160" height="34" as="geometry" />
        </mxCell>
        <mxCell id="MrmV1t-2pLRhj0DmjCeG-87" value="" style="line;strokeWidth=1;fillColor=none;align=left;verticalAlign=middle;spacingTop=-1;spacingLeft=3;spacingRight=3;rotatable=0;labelPosition=right;points=[];portConstraint=eastwest;strokeColor=inherit;" parent="MrmV1t-2pLRhj0DmjCeG-86" vertex="1">
          <mxGeometry y="26" width="160" height="8" as="geometry" />
        </mxCell>
        <mxCell id="MrmV1t-2pLRhj0DmjCeG-88" value="" style="endArrow=classic;html=1;rounded=0;exitX=0.499;exitY=0.738;exitDx=0;exitDy=0;entryX=-0.004;entryY=0.496;entryDx=0;entryDy=0;entryPerimeter=0;exitPerimeter=0;fillColor=#6a00ff;strokeColor=#3700CC;" parent="1" source="MrmV1t-2pLRhj0DmjCeG-85" target="MrmV1t-2pLRhj0DmjCeG-13" edge="1">
          <mxGeometry width="50" height="50" relative="1" as="geometry">
            <mxPoint x="460" y="271" as="sourcePoint" />
            <mxPoint x="750" y="240" as="targetPoint" />
          </mxGeometry>
        </mxCell>
        <mxCell id="MrmV1t-2pLRhj0DmjCeG-89" value="" style="endArrow=classic;html=1;rounded=0;entryX=-0.011;entryY=0.499;entryDx=0;entryDy=0;entryPerimeter=0;fillColor=#0050ef;strokeColor=#001DBC;" parent="1" target="MrmV1t-2pLRhj0DmjCeG-13" edge="1">
          <mxGeometry width="50" height="50" relative="1" as="geometry">
            <mxPoint x="980" y="60" as="sourcePoint" />
            <mxPoint x="841" y="230" as="targetPoint" />
          </mxGeometry>
        </mxCell>
        <mxCell id="MrmV1t-2pLRhj0DmjCeG-90" value="" style="shape=datastore;whiteSpace=wrap;html=1;" parent="1" vertex="1">
          <mxGeometry x="1880" y="1080" width="60" height="60" as="geometry" />
        </mxCell>
        <mxCell id="MrmV1t-2pLRhj0DmjCeG-97" value="" style="endArrow=classic;html=1;rounded=0;fillColor=#0050ef;strokeColor=#001DBC;exitX=1.044;exitY=0.506;exitDx=0;exitDy=0;exitPerimeter=0;entryX=0.25;entryY=1;entryDx=0;entryDy=0;" parent="1" source="MrmV1t-2pLRhj0DmjCeG-90" target="h_bTq5OJt-PLwR_kEyo7-2" edge="1">
          <mxGeometry width="50" height="50" relative="1" as="geometry">
            <mxPoint x="1139" y="436" as="sourcePoint" />
            <mxPoint x="1130" y="450" as="targetPoint" />
            <Array as="points">
              <mxPoint x="1990" y="1110" />
            </Array>
          </mxGeometry>
        </mxCell>
        <mxCell id="9leaR-uuI5GwIjogHfwz-1" value="" style="shape=image;verticalLabelPosition=bottom;labelBackgroundColor=default;verticalAlign=top;aspect=fixed;imageAspect=0;image=data:image/png,iVBORw0KGgoAAAANSUhEUgAABPwAAAIzCAYAAACUUwetAAAAAXNSR0IArs4c6QAAAARnQU1BAACxjwv8YQUAAAAJcEhZcwAADsMAAA7DAcdvqGQAAFo3SURBVHhe7f19jJzlnS98fisQzsT+p2RNLJEVMzI0r0aJAwwPsjXblnKCaVgPMTlBSuQzIfLKPXgf2a3JRhsjNKkZRfHsohnZvWchbj1WzDlWIiUPOHP84Bc4aNuKbPUDgQDCNtiFrQzaiQQjq/6hMw8Dqf2jqrqrq1/cfml3192fj1RK13Vf90sVTtXd3/5d11Wq1Wr1AAAAAACF8JnOBgAAAACgewn8AAAAAKBABH4AAAAAUCACPwAAAAAoEIEfAAAAABSIwA8AAAAACkTgBwAAAAAFIvADAAAAgAIR+AEAAABAgQj8AAAAAKBABH4AAAAAUCACPwAAAAAoEIEfAAAAABSIwA8AAAAACkTgBwAAAAAFIvADAAAAgAIR+AEAAABAgQj8AAAAAKBABH4AAAAAUCACPwAAAAAoEIEfAAAAABSIwA8AAAAACkTgBwAAAAAFIvADAAAAgAIR+AEAAABAgQj8AAAAAKBABH4AAAAAUCACPwAAAAAoEIEfAAAAABSIwA8AAAAACqRUq9XqnY0AAADA1VEulzuboOvVarXOJq4igR8AAADMo3K5nPq5SmczdK3SiorAb54Z0gsAAAAABSLwAwAAAIACEfgBAAAAcEW98cYbYw+uPoEfAAAAABSIwA8AAAAoluEDWbKiki3DHT/DIiHwAwAAALrTb0fSu6KSJW2P3p+c7+wFi47ADwAAAOhqf/Y3WzN6rpLRc5Uc/c6yZO36jJ6r5Om1nT1hcRD4AQAAAMUy3TDeZkXglica25esqGTp10dy5Cd7VAhSKAI/AAAAYFF59t3P561zlbz1Nzek/vrhPHKmN6PnKtn/zeTXf7c/g7/t3AO6i8APAAAA6Gqv/t3gWIXepKq+Kdzzf7klPUl6VixPknz7/p4kyU0339DRE7qTwA8AAADoau1z+Jm3DwR+AAAAAFAoAj8AAAAAKJBSrVardzYCAAAAV0e5XE79XKWzGbpWaUUlw8PjkymuWrVqwnbmngo/AAAAACgQgR8AAAAAFIjADwAAAAAKROAHAAAAAAVi0Q4AAACYR+VyubMJup5FO+aXwA8AAADmUblcTr1ulV6Ko1SySu98M6QXAAAAAApE4AcAAAAABSLwAwAAAIACEfgBAADAQlIdSW9pTwarkzZkS6mSLYeSHDqQJaXK2GNpfzU5dCBLW/tNewxgMRD4AQAAQBcq5Yb8/ZlKRuuVfLS7J+lbn4/qm7K1p7MnsNgI/AAAAGDBOp/BNc0qvjVHc6Jzc7vpqvoOHcjSNQeyZew4Ixnsb/5cOpAjHd2B7ifwAwAAgIXq0LFsP3539tcr+ejJ5Xm1bVM97+f7NzeCu95d59u2TOH4B7nt2UpGD96d+vHDeedrlYyeeSD35LX806HOzkC3E/gBAADAAlU9/UGy+vO5KUn6bs9jbdvah/Qe3basbctUlufWniQ3fz5/lhty281Jev44Kzu7AYUg8AMAAICF7PiHeS9JDp3K3s5tAFMQ+AEAAMAC1bNtQ3asfi0bSpUs/WHy2OrOHgCTlWq1Wr2zEQAAALg6yuVy6vVKZzN0rVKpkuHh4bHnq1atmrCduafCDwAAAAAKRIUfAAAAzKPOCr8lpatb7TequpArTIXf/BP4AQAAwDzqDPyg2wn85p8hvQAAAABQIAI/AAAAACgQgR8AAAAAFIjADwAAABaUaraUKlnSfCztr3Z2mJ3qSHovdV+gqwn8AAAAYKFZ/UDeqlcyWt+aHW8fzaDcDrgIAj8AAADoBtWR9E5V+VcdSW//gbGqwMkVgeczuKaS3l3nJ1QPLi3tESRCQQn8AAAAYKE5fjhfLFWytLQ/eXZTtvYk6bkvR+uVjI5V/p3KkVb/oQ9y25mpKwKP9A/mnScrObptWXLoVE7s3JrReiUf1ZvHBQpH4AcAAAALTXNI75s7k+1PtdK7RqVeo8JvMNuPt/dfmQd7kmRZbr2zrX1oXx4ZujsP9zWf963PnuyfphIQKAqBHwAAACxQPds2jFfsHTqW5x5tVOeN1rdmx+rO3lPYvDEfHUweWTOSVrzXs21TRuuVvHnH0eYwX6BoBH4AAACwYC3Lg48mz71wPum7PSsHBpvz7+3Pc51dp9O3Pm8+eiJf6q+mumvP2ByAXxpYnie2LevsDRRAqVar1TsbAQAAgKujXC6nXq90NkPXKpUqGR4eHnu+atWqCduZeyr8AAAAAKBABH4AAAAAUCACPwAAAAAoEIEfAAAAABSIwA8AAAAACkTgBwAAAAAFIvADAACABaWaLaVKljQfS9eMpDrWfiBHOrtfso7z9DfOctGqI+m91H2BOSHwAwAAgAXn7uyvVzJar+T5Ow/nHw91br9CVj+Qt+qVjNa3ZsfbRzMot4NCEPgBAABAt6mOpHea6rwj/ePtW5pBYXXXnin7Tmm6Y1dH0tt/YKwqcPJxzmdwTSW9u853tANXm8APAAAAFpzXsqEZrD2SjXm6r2Nzz3052qwAbFTnnWoM9T10II9kY7O90tivOpJNJ3vH2p5PWyXf8cP5YqmSpaX9ybObsrVnhmMnydAHue3M1BWBR/oH886TlRzdtmy8EZgXAj8AAABYcMaH9H60u6dz41g1XaMKbzDbjzdaq6c/yD13dARuZz7Mq0P7xir2Ngy9n3fONLc1h/S+uTPZ/lQrvZv62I3+K/NgT5Isy613trUP7csjQ3fn4c5gEpgXAj8AAADoNoeO5blHt45X4a1uNPfcsjy/Pjl5SG1p83jV31jlX5uebRvGK/amOfaMNm/MRweTR8YWGAHmk8APAAAAuk3f7Vk5MNiYS6+0P8+Nta/P8xmv5ttyaHLb0tKeKRbnWJYHH02ee+H89Me+kL71efPRE/nSpLn9gKutVKvV6p2NAAAAwNVRLpdTr1c6m6FrlUqVDA8Pjz1ftWrVhO3MPRV+AAAAAFAgAj8AAAAAKBCBHwAAAAAUiMAPAAAAAApE4AcAAAAABSLwAwAAAIACEfgBAADAglLNllIlS5qPpaU9Gax29gGYnsAPAAAAFprVD+SteiWj9Uo+Org8228+kCOdfQCmIfADAACAhaxvfd7c+UF+tOt8Uh1J75qRtAr+jvQ3q/+qI+ntP5AtpUqW9je2VnftGa8SbLbN1A4Uh8APAAAAimAoebheyUe7e5LqSDad7M1os0rw+RwdCwanbAcKReAHAAAAXWDlLcs6myZa/fnc1Pr5zId5dWjfWCXfhqH3886ZGdqBQhH4AQAAwEJWHcmmgeV5uK9zw/m8+3Zn27jS5o1jlXyj9Uqebu4/XTtQHAI/AAAAWGiOH84XW/Ps3fxhnqivz7ok6bkvT9zZ2La0tD/Pde7X0rc+z2e8km9spd/p2oFCKdVqtXpnIwAAAHB1lMvl1OuVzmboWqVSJcPDw2PPV61aNWE7c0+FHwAAAAAUiMAPAAAAAApE4AcAAAAABSLwAwAAAIACEfgBAAAAQIEI/AAAAACgQEq1Wq3e2QgAwETlcrmzCbgItVqtswloKpfLqdcrnc3QtUqlSoaHh8eer1q1asJ25p7ADwBgFsrlcurn/DIGl6K0oiLwgxkI/Cgagd/8M6QXAAAAAApE4AcAAAAABSLwAwAA5twbb7wx9gAA5pbADwAAAAAKpJCLdlhFDxYWk3QDRWDRjgVi+ECWfOe1PPaTSp5e27mRhaq0wuTtMBOLdlA0Fu2Yf4UN/NyQw8JgVT6gKNxfXG3VbFmxL89+c2M++lHPePMsAr8jT1TyyLsP5M3n7kvbnswjgR/MTOBH0Qj85p8hvQAAdI+16zN6bvqwDwAAgR8AAN1k+ECWrKhky3CSnM/g1ytZsqLx2DLceL7hZ0n99cP54li/JL8dSW+z35IVlfT+5PzE4wIAFIjAD5hzVuUDYC5Uf7I/21+/O/vPVZpVf8uy9blK9n8zKd31QN5qVQL+diS9aw9n5U8a/UaHH0j+bnA8DAQAKBiBHwAAXalnxfLU81o2tFfyTeXch3k1yd7vNCv81h7Oq0lOnFPlBwAUk8CPudU+7Ga6nwEALsXa9Rk9tzV/f1cjzLvQMN3HWhV+zcfR7yzr7AIAUAgCP2avOfdN+8109Sd7snTFngz+tvH8yBOVLP36SKrje11xV+McAMDCV/3JgQz+dlm2PrcxjyX59Zm2wO/1D/Ne6+cVn8+fJXn2RXcPAMDiIPBjbk23kt507QAAbeo/2zftQhs937k976ytZMmKfXk2d+f5H/UkSdbdf/fEob5/el+O/uTuCcdq/4MlAEDRCPy4QqZZFW+6obszrrCXJNVsaVtJr1HRN805MsPKe53nHz7QdoPfOMeWJxp9On+JAADmU0+ebht+OzYEd8IfDcf7fHRufda1dm32mfDHxba2Rv9N2fqnYycDACgUgR9XyDSr4s3C5BX2kvx2Wf66dVP+k7tTf/1w/nF4mnNc5sp7z/4s2W8eHwAAAKAgBH7MuylX2PvT8/nHVsXed17r2KPDZa68d8/frBmvCAAAAADocgI/5t8UK+wdeaIxF8/+ZoXfbFh5DwAAAEDgx8X40z/OyiS//t9ON1fIPZ+D/9v7yV0r82D7HDjtq+LNwowr7CWpnvtgwvPkIlbea25rVPudz+D/+wLVggAAAABdrlSr1eqdjd2uXC6nfq7S2cwVUc2WFfuyt/mslLvzfPsk2cMHxobgPvaTSp5O4/mMP68dP+bY8Zrz8r2apHTXDbnn9fez8ifNOfs6z9HR1riuG7JjuDEZ95EnGgt9JMljf/NATvzdiXx9eFO2/mnjvCf+ZqtqwDlUWlHJ8PD4hIqrVq2asB2gW5TL5c4m4CK4H4Dplcvl1Ot+h6U4SiW/B843gR8wpwR+QFH4ZQwunV/8YGa+Yygan/vzz5BeAAAAACgQgR8AAAAAFIjADwAAAAAKROAHAHApqiPpLe3J4KRF4qvZUqpky6FWn+bPLYcOZOmU+wEAwJUh8AMAuJr61uej+qZs7enckIlhIQAAXKLCrtILLBxWZwKKYNIKitWR9N58Il8/sylbe85ncM1gvn88Ka2+Ifccfz8rD1by9M0j6b35cOPnvin2S2P7q0n+bOfGfP3n+/L9441upc0b89Hunhzpr2TD0MQ26DZWa4SZTfqOgS7nc3/+FTbw82EJC4MPeqAoJt1ftAd3Zw5k6YPJ8/X1WXfoQJY8+Foem0Xg9+ALe/Klk71tIV41W0r7klb/Q23H7dwGXcT9AMxs0ncMdDmf+/PPkF4AgMtUPf1BsvrzuSlJ+m7PY50dptHz0MrcM7QvS6YZxls9/UHqeS0bSpUsKe3L3iQnTp/v7AYAABMI/AAAroTjH+a9JDl0Kns7t02n574crVfy1s4b8uwPR9K5jkfPLctTyt3ZX69ktPk4um1ZRy8AAJhocQR+zRXyljQfS9dMvqG+fCbZBoDFqmfbhuxY3ajEW/rD5LHVE7fvfbB5D9I/8Q7kSH+j/YsD7+fbT96XnvTk4c2N/kv7q0nf+jy/uVXhV7G6LwAAs7I45vCbYnLs7Nx6hf9Cbl4dmIq5G4CimHR/Acya+wGYme8Yisbn/vxbfIFfcxW97XduzEff+9e2lfEaAeCUK+FNO2H2NCvy9TX+Yj92nNUP5M1j98WaeixGPuiBoui8v1hSmr9fzEb9UkiXcT8AM+v8joFu53N//i2+wK9Z4bfyYCV/fbpjZbzpgr3Mor1tRb6/Pr0nXxpYPqH/iSteUQjdwQc9UBST7i+AWXM/ADPzHUPR+Nyff4tjDr8kyfv5/s2VLLn5cH69eWOe7pu8Mt7FroQ33Yp87518f7w9y3Jbxzw+AAAAADBXFlHgd0P+/kxjdbuxir6OlfEy40p4H+Td6hQr702xIt9Nd9ww3p7zeed4svIW1X0AAAAAzL1FFPhNNmllvOlWwutbkx2rGxWC7SvvTbciX3v7ktK+PNusKAQAAACAubY45vAD5o25G4CicH8Bl879AExWLpcnPPcdQ5H43J9/i7rCDwDg0lWzpVRJ767WfL/nM7imOTrgslSzpXQgRy7YBkC3KZfLY49arTb2ALjSFkWF35LSwvhLyai/2LAI+csOUBSd9xdJNVvWHM2J48vzRH191uV8BtfsT57dlK3N6YIvTTVbSqfycH191nVumtb5DK45lluPXcw+cPW4H2Axa6/kmy7cm/wdA93N5/78WxSBHzB/fNADRTH5/qKaLWv+NQ8/eiI/yoYc3ZYJgd+R/ko2DDV6ljZvbCwaVh1J71MfZuXQa9mbpLT5gex4+3C+fzwprX4gbx67Lz1TBn7tbdVsKe1r7J8bsuPMptz61Pi5/mzn1hzdtizVXXvyxYH3J54f5on7ARajVtA3XcjXbvJ3DHQ3n/vzz5BeAIDLcNO23qwc2D9xKO+hA3nk7QfyVr2S0Xolz2dfthxqbhtKHq5XMlrfmG8PHc47T1YyWt+aHTmRg7MZDnzoVE7s3JrReiUf1Rvh4rrdW/P3q+/O/nolR7ctS6oj2XSyN6Nj5z96BYYaA3AhUw3ZBZgPAj8AgMvSk6cPLs/2p06PtVRPf5B7Hr0lrZq6m+64ISdON+f623x7s3JvWW5bfXce7mv8fOudY7vPrG999mR/lpQqWdo/TYp35sO8OrQvS0qVLClVsmHo/bxzprMTAFfCVCGfoA+YbwI/AIDL1bcmO94+nO3HG097blmeX59sLeaRvHfy/ay8Zdl4/8vUs21TRuuVvHnH0bZFQz7Iu235X2nzxrEKv9F6JU/3jW8D4PII+YCFbpEEfnO1ih4AQJIsy9Yn7x5/2rc+z2e8wu6RbLzIwO21bGju21nFV921Z+y4XxpYnie2LWtWCL6f79/cvN/pOP/SkvsegMsl5AO6ySJZtGOuVtEDLsRkrUBRTL6/AGbL/QDd7GIW37hUvmMoGp/782+RVPglyco8sfOD/Gisym/ckf7GX78n/BW9OpLe/gPZMtY+ksE1zZ/XjMQfyQEAAIppqmo+gG6yiAK/eVhFDwAAgK4wVcgn6AO61aIK/K76KnoAAAAsWEI+oKgWWeB39VfRAwAAYG6ce+b+XF8u5/pyOV8YeKlz84yEfECRLb7A74qvogcAAMBV99JA1uzfkOO1Wn5Xez0/OPmNfPciMj8hH1BkiyTw68nTx+4bG7abvvX5qD6+Qu+63Y35+0brlXy0u9nYc1+Otn7Osmw9tr45vDdZt9vqvgAAAPPpXPVkvvm9x7MiSXJj7t9wb96pnp3Y6ewzeWhgIN+9xCpAgG61SAI/AAAAiuTsu69MeL6i544Jz8fsPZlbXm9VAT6V3R2ZIEARCfwAAADoOjfeeu+E5+eqJyc8H3Pvhtx/Y5LcmOkyQYCiEfgBAADQdVb03JGfPfVMziVJzubF/a/ktp4bO7sBLEoCPwAAALpCuVwee+SrO/Pf7tie1eVyri/flf++4fX8w1eT5KV8tzyQlzt3BlhEBH4AAAAsaK2Qr1arjT2S5Cs7a/ldrfF44fFmdd/Zat6599Y0RvE+nhdebC3skXxl54vpVwQILAICvylVs6V0IEc6mwEAALgq2qv52kO+C3l5cH/+4sfjIR/AYrRIAr9qtpQqWdJ8LF0zkmpnlzbVXUeTg+uzrnMDAAAAc2aqkG+2QV+LKj6ApFSr1eqdjd2uXC6nXq+0tVSzpXQqD9cbId6R/kr+6WuVPN3X1gWYE6VSJcPDw2PPV61aNWE786tcLnc2waJyMb9ETr6/AGbL/cBEV+P792I+3+Zb+/vRTdd9JfmOoWh87s+/xR343TyS3qc+zMqh1/Ls5o35aHdPqrv25IsD7ydJSs22VMf77W1vbx5rw1DjLNP3fyA73j6c7x9PSqsfyJvH7ktjbyg+H/QLU+vGerHeVEPLxfx/YfL9BTBbi/l+YMpw79RV+BXs9lJny6w+664WId9EvmMomsX8ub9QLJIhvUnyWjY0h/Q+ko3j1X1DycP1ylhQt+lkb0brlYzWK3k+RzPYGvs79EFuO1PJaH1rdrzdbD90II+8/UDeGuu/L1sOTTzuaH1jvj10OO882dw3J3JwpvHEAFeJm2vw/wNg7rSGpeZUffLjaug856n6+DXNo9Y1XOpwXQBmZxEFfndnfzOYa1XnJUlWfz43tX4+82FeHdo3NtffhqH3886ZVr+VebAnSZbl1jsbTdXTH+SeR28Zq9a76Y4bcuL0+caTzbc35wBclttW352H+ybuCzBfWjfZQEOtVpv3X4CBYpkQ9C0kbcHf1dQK+dqDPgDm1iIK/GantHnjWIXfaH3mef56blmeX59sBnxJ3jv5flbesmxCH4BF5+wzeahczkPPnE1eGsj15XK++1Jnp2I598z9+UL5/uw+27llDnX5ezv1e/ZSvlsu5wsDbS+q+Ton9wVYeCZU9S1kV6Hab6qQT9AHcPUI/Nr1rc/zGa/wW1raMz6kdyod/ScMFQboVu2B3aV47928nuS2nhtzrnoypdybW8ZKqTtNEfDMRvMar297zGfwdfbdV5LckZ6ruCLgnL23V8lU79nLA9/Iz+7dkWM7v9pseSnf/cbelB77Rf6ldjkrLs7uvXjjjTfyxhtvdDYDzMpVqer7VX+W3L4m1/1z54ZLMAfVfkI+gIVjkQR+PXm6uWDHxOb7crRjAY11u8er+z6qb8rWnsn91u1utnf2bw0V7rkvR8eGDS/L1mPj527fF2BBagvsLkV7ELXi8RdnDmrOVvNOki/fOm1qNbXmNX7rF7X8rvaLfCvJz74xkJc7+10VZ1M9meTeWzPdy5wLc/beXhVTv2df2VnLv7z4eFaMdbtCr+FKHQdgGlNX9R3KdbeX8rnm44/+60yVBPPoMkM/IR/AwrRIAj8AZmv6yrFGlVRjeOVAvjswdcXU2XdfSe7dkPtvTF4eKOcL9z+Tc80hnK1qvC/c/0zOvTSQ6+/anteTvL79rrZjjZ/n+mkqDSde40255d72rdPt33b99w/ku/dPs63jtb08UM4XBgYaFWLN1zLxWH+V//5K8uUN65pB1dTnn/o47abab2JlWvsw2Ll6bxvX+Ux23996P9qH0l7s+9TuIt+zjtfQ/n5Me/6O/z5fGHhp0nGm+jfbSZUfcDGmD/sezLVf3pmPT9Xz+1Nn8ofDT+Xajl4X1ggNx8LCP9+d0VPH8vGfdPabjY5jtbuE0E/IB7CwCfwAmGCqoZaNAOUb+dljv8jvarUc23EyP907VcVUs3Lrjp6saP/57DP5n7e/0qzIa1ZxfXVn9j2WlPJY9tVq+ZedXx07zzs7Xs/vaq+ncm/ym/1HJoVH7aFiXhpM5ZXkyzu25ivT7t9x/RtO5qevtKoYZ3ptzdewN3mwdd2d/TekrSJyuvNPdZx20+331Tz4WJK9L+Tllwayevsr+eYvXkz/jXP13rauc3/y40b15DfzSv528KVLeJ/aXcJ71vEaXnj8vQuf/46exnmbFX3ffOiryZTvBcCVMXXYl+RXv8w1ST55fFs+TZL05OOf7s4nSa79wXjV35Jv7co1aQ3V7c91zW2N9mqu+9aDuSZJacfNjbZ/3pU/ur2U637VOM01/3XNpR+r/Xozu9Bvqmo+ABYmgR8AbV7Kwb1JHnsoX5nQ/EJ+2gpQkqzouSOZatjv2SONyq1bb5r4c9NPv9E+197kYZ3nnnkqP21WYl1fvit/+8q9+cGPJ4dHB/cm9Ve2Z3W5nOu/sTd37Xg9Lzx+4/T7T3H9YxWCU2xL67W1XsOOrePvxxT9W8ea9vxTHafNtPsl+cpDj6WevdnYfJ3/8NWO97npyry37+X0K8mXd/x48lDhKV53Znqf2k2x7wXfs87XMMUxMvZvsHndrffjvXfzm7EK0MnvBcBcu+bc2yllc/7w5x0bftWf636+Op8eqef3R3bmD78ZyGebFXf1DCX/cbz9ml/15OOfHsynSerbz2T0p63wcPxY/2HHnfn3U/X8/tTBfHI5x5rBVCGfoA9g4RP4ATBumrnOGkNoH8uDzeKol1/YO+H5mPb5/9p/vvHxvNCs3vrpN1pDSRshzVhVVrNyr3TvjhyvNavVppqjrnmNd+14Pb97fUfuat80zf5TXX+rinGqbWPPp5jPcKr+rWNNd/6pjtNu2v2a55tkrt7bZqg2dp1t/x6met0zvU/tptr3gu9ZK8RrDvud6hhjzzuuu/34U70XAFfCtNV9M7j2fwwlX340n/5Jkj95KH/4cvKZ984kSUpZnfxp5x7Tu+bc26lnKJ+9vZTP3d6o3mu52GONaVu9V8gH0N0EfgCMmzG4OZnq2SQvDWTj3qkrptrn1hv/+aV89/5nci43pv/HjYCuURU2dbiYV97N5Jnl2kwIu3pyW5LfbB8cX7Bj2v1nuv6pt00/n+HU/ZOpzz/9cdpMsV+aw3i/9YuJQ3Dn6r1thYvvVJvzDg5uz2/yWP768darm/p1z+r1TbNvMs11dYaPybTHmBCKdh5/uvcC4DLMLux7O5+5EqvpzqCUzc0Kv8bj3/7yCqwO2HxdQj6A7ibwA2BMKzj56TfGF0Z4OcmKdRvy5bySyl3lfOGFW1O5d+qKqfa59cZ//mr+4XvvNobf3rU9v3nsF41hqc2wrn0hha9s3ZEvZ282ti9A0XGOieFSY467evbm4EvT7z/x+pNvZfz6Z3ptE+YKbJqp/3Tnn+o47abc7+wzeegbe1N67Bf5h6/emPs33Ju8sj8vnp2797Yxf2NreG05/3nvY/lvtZ35ygVe94Ve30z7TnddnSHiTMdYsW5D7mr+u+3cNtV7ATDXPv3LJ/NJjufa74/PlXftD/rzmZtWJ7/5ea755yT//EI+85vkk//Y17H37Hy64s7UM5TPNOfzA4B2pVqtdqE/TXWdcrmcer3S1lLNltK+7G0+K+WG7DizKVuvwB/AWsc+sXNrjm5bluR8BtfsT56d6fjVbCmdysP19VnXuQkKplSqZHh4eOz5qlWrJmzn6msNz1m0XhrI9d/Ym2/9otYIx2g6m93335W/zY4cm7ToxtX38kA5//nk1buWcrl8wc+qyfcXwGwV6X5gdtV9Sf55V/5o3UBKzaf17Wfyb3/Zk2t/UMpnf95oKz16MKN/29dYaGPz2/nkyLF8nMZ+fxiq5+M/byzy8dmfJ6Uv78z/8ffJZ6fY1vLpUD0fZ5bHutA8freXFvf9wlXmO4aiKdLnfrdaPBV+qx/IW/VKRuuVfHRwebbffCBHOvtMcD6Day7Up2n1DcnAsdn1TZL05GlhH8BV8/JAo3rs+rZFPoR9nSbOmTdvzj6Th8rlbNybfPN7VyfsA5gTf7It/zbFcNtP/na8bfRvm9V9f747o6eO5eM/Gd/v4+aCH63+oz/dlk+n2dZ6fPznF3GsRtOM3njjjc4mALrE4gn82vWtz5s7P8iPdp1PqiPpLVWypPlY2t9Y2epI/2C+f/y1bChV0rvrfJKkumvPpH4NK/NE63jtpjl2o8KvFSZWs6W1vbQng9Vp2qY7VnUkvf0Hxvu3XdeR/vH+Ww41u0/7GgCK6ys7GwtCtB4vjM1Jx7iv5h8Wwntz4+N5ofnfSSgLAACXZnEGfu167svRZuXfaH1rdrx9KkeSrNu9NX+/+u7sr1caQ3WrI9l0srfZr5Lnc7QZzjXctK03Kwf2T2ib7tgTHDqVEzu3NioP681hwFO1zXSsoQ9y25lWe/O6Dh3II9k4dr1P9zXCwZleAwAAAADdb1EHfitvac2516qEG8z24529ms58mFeH9o1Vx20Yej/vnGnv0JOnDy7P9qdOt7XN4th967Mn+ydW3E3VNtOxVq/Mgz1Jsiy33tloqp7+IPfcsayt02xeAwAAwDjDegG60+IM/Koj2TSwPA/3JTl0LM892qimG61vzY7V7R0/yLttFXClzeMVc2NVc+361mTH24fHw7gZjz2uZ9umjNYrefOOo2PDhye1zfJYLT23LM+vT3YMMZ7NawAAAKY06wU7iuBUPWvXru1sBaBLLJ7A7/jhfLE1d93NH+aJ1qIZfbdn5cBgo720P8+N7bAst975fr5/c3MOv771eT7j1XHj8+21W5atT949/nTaY49rn1PvSwPL88S2ZVO2zeZYE3Rc75ZDk9umfg0AAAAAdLNSrVYr3J+oLGkOC4fl2BeecrmcWq3W2cw0zj1zf9ZsT37w+ovpn+f1LJIkLw3k+m/szbd+YVGLK6lcLl/ws8r9BVy6otwPlMvlzqbCGx4e7tr/Xt3EdwxFU5TP/W62eCr8AOASnH33lSR3pOcqhH0vD5Rzfbmc777UuaXNV3fmd794LD/7xkBe7tzWcvaZPFQu5wvl+7P77Fhjdt9fzhcGZjo4ABf0+/rieQDQtQR+ADCts6meTHLvrZnbvO+lfLdczsa9SSn35pabOrd3+OrO/EttZ77S2d7y3rt5PUk9r+RvB5sB39kj+e+vJF++9UIHB+gO5565P9eXG38omas/ZpTL5QmPJMnnSp3diulzpbHqHAt3AHQfgR8ATNAI364vl/OF+/+qEZJtWJcVHduuL5fzhfJ4ld3LA+V8YeCZ7L5/8rYJx5zQ3nDumafys8d+kX2PJbl3Q+6fNl2ceJzvDkz9S+656smUcm/uujfJ3hca53vv3fwm9+Yv1k17cIDu8dJA1uzfkOO1Wn5Xez0/OPmNmaujO3QGedM9arXapAcAdAOBHwCMeSnfLX8jP3vsF/ldrZZjG5LXk9zWc+P4tnt3NH7BfH1Hvpy9+c8DL41VAtb3bs/p79Xyu188lnr25uBLbcds7ndsx8lm+7gVj7+Yf9l5U6Oa8I6eZrjYqePadpzMT/dOXbF39t1Xkns35K833Dt2HecaB78qQ5MBrrTOIO5c9WS++b3Hm5+XN+b+DffmnerYHAYNZ5/JQwMD438oafsDSWeIN92DBnNvAXQfgR8AtLz0Qn6a5JsPNVbDWNFzx/gQ29a21i+YN/bkttZ+zeGyd+14fWwhjen2W/H4i9MstvFeTs805HaKa8tYGDmhYw7ubVQlfmXdhtyV5GcvvNQMAed6aDLA9NauXTv26AzwLvToDOIa86uOa30mTrL3ZG55vVUF+FTbvKYAUGwCPwBoagyFfSwPNgO5l1/YO1YV1xomOza/3tlq3kkzoGvOmdcK39r3e/mFvROOOa1moDc5wGuY6tqmPG7zum7ruTG5cV3+4t4ke5/KP55sH5oMcPUNDw+PPToDvAs9Ot14670TnjeqmKcwNk3CjZkuEwSAIhL4AcAEJ1M925gfauPe6RbsOJvdf7U9v8lj+evHb+wIAycu9NH4pbR5zLyU704x517a5t2becGOWVxbc66+xnFuTP/3Hks9r+T1V6YPEwG6zYqeO/Kzp57JuSTJ2by4/5Wr9hlXq9WKv3BH24IdAHSnRRX4VXftydI1I6l2bgCAJCvWbciX80oqd5XzhRduTeXe8Tn1Vjz+4/zg3sa268t35W+zI8eaK+W25sxrVJE0huaO7/e9fLN1zPILeXDnxJK81iqTq7e/knqz30PPTB5zNtO1tZs0V99XH8q32ocYAxTBV3fmv92xPavLjc/k/76hNaXCS/nuFIsjAcBiU6rVavXOxm5XLpdTr1c6Ws9ncM2xvHPna8nXKnm6r2MzMCdKpcqEvxCb9Hn+teZCAsaVy+ULflZNfX8BzMZVux84+0we+qvkv7zYWtBj7pTL5eT3hftValJ135z9t2IC3zEUzVX73Gdai6fC79CxPPfomjz9tbvz7C9bNX7VbClVsqT5aFX/VXftGW/rVw8IAADd4OXB/fmLH8992JeiDu01lBegMBZN4Hfklx/k6w8tS/rWZMfbp3IkSQ6dyomdWzNar+StnTfk20/el57qSDad7M1ovZLReiXP52gGZX4AALDgfWXni+m/OlP5AcCCtkgCv2r+aej9fP/mSpaUBvP946/lnw4l6bs9KwcGs6RUyZcGlufhviRnPsyrQ/vGKvw2DL2fd850Hg8AAFjsClXlN0V1nyF4AN1rcQR+bZV8o/VKRs88kBO/rKa662hysNH2UX191jW7lzZvHO9bN98fAAAwtUKEfsI+gMJZFIHf2HDelp4/zsqhozn4UG/y4Pgcfr27zid96/N8xiv8lpb2GNILAABMq6tDvynCPgC636II/Nbt3pStPe0tPXm6vim3PnU0t51pVfJtzMqfn041ybrd49V9H9U79wUAAJhoLPTrluCvea1ThX2q+wC636II/Kaz7mvLm/P6VbKktC958r7I9gAAgEtRq9W6o9qvGfQJ+wCKa1EHfulbb64+AADgilqw1X4zVPVF2AdQKIs78AMAAJgDtVqtEay1gr/2x9XQec4Zqvoi7AMoHIEfAADAHFi1atVY8Nf+6Azi5uLRec6Zgj5hH0DxlGq1Wr2zsduVy+XU65XOZmAelEqVCTeYbijnX7lcbgw1AsaUy+ULfla5v4BL534geeONNzqbLsratWunDe0u1WL877BQlcvlziboap2fVz5vrj6BHzCn3OAvPAI/mEzgB3PL/cBElxL+XanAb7G/993iUv6NwELms+fqWxxDeqsj6S21VuOtZGl/tbPHRapmS+lAjkz6GQAAYGatYbTtj7nQeY65Og8AC8/iqPCrjqT328meY/elp73jFVHNltKpPFxfn3WdmwB/0V+AVPjBZCr8YG65H7h8vr8XFxV+FI3P/atv8QZ+1ZH0PvVhVg69lr1JSpsfyI63D+f7x5PS6gfy5rH70lMdSe/Nh/Nqc5fS5o35aHdPR8gn8IOZuMFfePzCAJMJ/GBuuR+4fL6/AbgYi2NIb5IcP5wvNof0bjnUbBtKHq5XMlrfmG8PHc47T1YyWt+aHTmRg9UkPfflaL2S0Xqz/e1Thu4CXa9Wq5kYGtp0hn0AANDtFk/gt/qBvNUM757ua7Ztvr1Zlbcst62+Ow/3NX6+9c7WTuczuKY1999gth9vtQN0P6Ef+P8BAADFtMiH9P5xju7uaQZ7x3Lrscaw3CP9e/Lu9zZl65kD6T29Jke3LevoY0gvzJYhPAubsIPFbrrKvqk+qybdXwCz5n7g8hnSC8DFWDyBX/tcfKsfyJvPJpsuFPj1VLOltK8xx19uyD2rl+cJgR9cFDf43cHE0DBuus+pSfcXwKy5H7h8Aj8ALsbiCPyAeeMGvzsI/GDcdJ9T7i/g0rkfuHwCPwAuxuKZww+Aaa1atcovXyx6/n8AAEBRqPAD5pS/6ANF4f4CLp37gcunwg+Ai6HCDwAAAAAKROAHAAAAAAUi8AMAAACAAhH4AQAAAECBLJLAr5otpUqWNB9L14yk2tllwTifwTV7MrhwLxAAAACABWyRBH5Jcnf21ysZrVfy/J2H84+HOrcDAAAAQPdbRIHfFKoj6W2v/OtvldWNVwQuLbWq7Sa3HemvZEszODzSX0nvrvONJ4cOjP18pH+K41dH0tt/IFva2lr9lpb257lGLwAAAAC4aIso8HstG5rB2yPZmKf7kvTcl6PNqr/R+tbsePtUjiTJoVM5sXNrRuuVfFTflK09U7et+9rdefaX1STV/NPbNyQ/P51qkiO//CBff2hZcuhAHnn7gbzVqizMvrGAMEPJw/VKPtrd0+iXjc1j92bl8YlXDgAAAACztYgCv/EhvR/t7mm2nc/gmlYF3mC2t4K2vvXZk/0Tq/KmbLs93x46lSPVf00e3ZAn7jyRg9Vq/untlXmwJ6me/iD3PHpLWme76Y4bcuJ0swpw9edzU7O9evqD3HPHsuazZbltdfNHgC5QLpcX9AMAAGCxWUSB3xQOHctzjzaq9kbrW7OjLWjr2bYpo/VK3rzj6Njw3MltPXl48wf5p6dOJLcsy7qvLc9z3z6aE82Qr+eW5fn1yWbAl+S9k+9n5S2tYG/cxH7n844KP2CB6gzTyuVyUq8v6Efn9QoBAQCAolvcgV/f7Vk5MDhp7rzqrj1j8+59aWB5nti2bMq2JFn3teV5dmh5Hu5LcvPnk+NpDOdNoyrw+ewb229sKHGnvjXZ8Xaj39LSqWRzZweA+TVjuLfQdV5vWwgIAABQRKVardYFv61dnHK5nHq90tkMzINSqZLh4eGx56tWrZqwnYVvLOgrolIptVqtsxWm5P4CLp37gctXLpd9ZwEwa4u7wg+AaU2o6isq1X4AAEABCfwAmGTC8N2iaxvmCwAAUAQCPwAmmKqq79r+Uj5XajyW9B+asK0rVHflj0qlXDfTpQv9AACAghD4ATBmqrAvh/pz3dDqfHqmnt/X6/k4P8x11YldCkPoBwAAFIDAD4BkurAvyTWn357w/JPdx/JxT5IcynXNqr/PlUpZsmZXrkkjIFxSWtMIBccq66q5bk1bn2bVYOv5NbvWTD5OGvu02j9XKuWPdlUvcN7+XNdfypJSf65t23/Jt38+/gKmPV+T0A8AAOhyAj8WgGq2lA7kSGczsCB8uu3JfJLjuebm0niQlyTpy8f1RtXf78/szB+OD+SaaYfM9uTTR1cnx3+ea6pJciifGUr+8OhD+fRQf/7DwJ3593o9v68fzCfHB/LZXdVcs+vbuTY783G9no93rk5p9c78+7aeGc9bz1CuzcGM1nfnk0NP5drjjcrE/+PRpNS6lGnOBwAAUBSLJPCrZkupkt5d55vPz2dwzZ4MXu7vd9WR9K4ZyaUfppotE/Y/n8E1cxl8TfG6x17DhUK3C22/dNVdR5OD67OucwNw1UxX3dfQCNg+3rk69Wbw15gLr60C7+aB8UBtGp8+9Gj+kOPJmSSHfplrszp/eKgn15x+O/UM5bOlUj5XenBitd2Upj9vKavzyff6kiTX/nIoWf1oPu1pnLv16mZ1PlV+AABAF1skgV+S1TckA8fmJLDqHsvy4KPJcy+0gs+k+sKJ5NFb0pOePF2fKXS70PZL17NtU55u/H4OzIOZw75xn247lt/XD+bTJJ853azAO765USl3ZudYoDatnofyh9XJtb88NCGMS5JSmsdpPv5tW08+veXO1I8P5LpSKf9hIPnk2W35NLn4805hqvNNIvQDAAC61OIJ/LIyT+z8ID8aq/Ibd6S/kiWlxmNpf7P8rTqS3v4D2TLWPpLBNc2fJ1TlncimVp9We9u+reNVd+2ZfI4LmHKfjqrCI/3Nir1ZnrPnoZXJz0839z+fgz9Pvv7Qso4KvkZF5JJSJUtLrYrAiRV+s3vPLtA+zTUCC8u1/W2r21ZP5zNJ/nBLR0B25uSUFX7XvPDztvbGsN760IP5bGs4b9II9jKUz3QMB772l0MpbT6Y39frGa235g3sMM15k6R+x/gQ4vbrmO5803njjTc6mwAAABa0RRT4JTdt683Kgf0Th7QeOpBH3n4gb9UrGa1X8nz2ZUvrl8Ch5OF6JaP1jfn20OG882Qlo/Wt2ZETOdg6xvHleaK1752H848d+360uyepjmTTyd6Mjp3j6Pg1HD+cLzYDryWlwWw/3myfaZ/pzOacPffliTub1189neeyMg92/hJ96FRO7Nya0XolH9U3Zeuk7TO9Zx/ktjPN9+nttmueqn26awSumtlU932y+2Dy4PgQ2uw8k4/7WnP7NYbGLnnw7dRXN3fo+14+Wd0Y+vsfTt6ZT9uO1RpaW2oO5230351/35xc0zpHqREwfvK1zakPPTi+uEapP9eOzSk4xXk7fLrt2amvY5rzTalez9q1aztbAQAAFrRFFfglPXn64PJsf+r0WEv19Ae559Fb0sq0brrjhpw43awC3Hx7cwjrsty2+u483Nf4+dY7x3ZPVn8+NzV/nLBvW3vOfJhXh/aNVbJtGHo/75xp7T8enI3Wt2ZH6xfXmfaZzizPue5ry/PcC+fbhvN26FufPdk/bdXdjO/Z6laA2Pk+TdE+wzUCC0nbIhkThr+Ot4/Wj+XfjtXzcV+S9OTjY8323bsb8/+1hu33bMu/TVGx98nu8eP/vl7Px33VXPfD8Qq/35/ZmT+MVeVNc96+3R3Hnf46Jp9v/FqmosoPAADoJoss8EvStyY73j48VknXc8vy/Prk+DDf906+n5W3LBvvfxFm2re0eeNYJdtovTKrOesuvM/5vPt2Z9u4affvuz0rf34s/zg2nHeynm2bMlqv5M07jrYtdtLcdgXfs2mvEVjkevLxk20VfjcP5DOrd+bTefyMEPoBAADdYvEFflmWrU/ePf60b32ez3iV2SPZeJGh0/gcftPu23GO8XnxZjDdPj335Yk7G8OAl5b257nO/Vqm2z9J0pOH73wtz041nLdjXr0vDSzPE9s6wrzLfs+aZrxGYNHr2z2hCm/0WGPRDgAAAGZWqtVqM0/e1IXK5XLq9UpnMzAPSqVKhoeHx56vWrVqwnbm12zm8Fv0SqWxf8P+/S5u7i/g0rkfuHzlcjm1Wq2zGQCmtAgr/ABm7+WBcr5w/zM517mhAIR9s9S2cMdiG9Y7m3//s+kDAABcXQI/gCmdze77yzl46458uXMTFN5s/v3Ppg8AADAfDOkF5lSp1J3/XxwbMnP2mTz0V8l/efHxrOjsdPaZPDT4bm7buzc/TVJ67Bf5l51fTVrVc9ClZvXvv2WKPkX+9+/+Ai6NIb2Xz5BeAC6GwA+YU11/gz9FmDFh21378xevv5j+G89m9/1/lfz4xfTf2NlxYTKk9yIs1nn8Zvr33zKbPgXh/gIuXdffDywAAj8ALoYhvQCX494Nuf/GJLkxPXd0bqSIFts8fgDMn3K5PPZoPQeA2RD4XY5DB9K763xnK0BXqNVqSanU2Uyntuo+AJhr7SHf8HAmPTpDQACYyiIJ/KrZUqpkSfNx6SFdNVtKB3Kk9bRvfZ44eWz8OVAgjQUJrr9re15/ZXvWlO/P7rNJ8lK+Wx7Iy53doVBm8+9/uj4AXKrOkG8qneEfAExlkczhV82WNf+avz52X3pSzZbSqTxcX591bT2AuVG4OXsKNl+ZefxmoaPCr+v/DV+Ogv37v1iT7y+A2Src/cAV1grupgv5ZrJ2beN/ze8HQLtFUuE3jepIetsq/5b2V8fb+w+MVQWOtXdU+FV37Zlx31bblP2ArvTy4P78xY8XZ9gB/v0DzJ1LCftyGfsBUGyLJ/A7fjhfLFWypLQvz26+vVHd13NfjtYrGa1XMlrfmh1vnxofnjv0QW4702o/msHOnK46kk0ne5v7VvJ82voMJQ/XK/lod8/M/YCu85Wd3bMKL1xp/v0DXHmtYbyXw/BeADotnsBv9QN5ayx029ecx+98Bte0KvwGs/14e/+VebAnSZbl1jvb2lvOfJhXh/aNVe5tGHo/75xpblv9+dw0m34A88zCHRdgwQ4A5tCVCPtahH4AtFs8gV+bm+64ofHDoWN57tGt4xV+qzt7zqy0eeNY5d5ovZKn+zp7NMy2HwALmzmnAACAbrB4Ar+xIb2VfOnnK7Nn27Kk7/asHBhszK1X2p/nOveZSd/6PJ/xyr2lpT1TD9WdbT+AeaLKbxqq+wAAgC61SFbpBeaLVfm6hxV720wT9vn3u7i5v4BL535gstkM5/2X/zX5fyXZ+Z8az5//vyV5Innk/9TZc9zatVbsBWAxVfgBwGXwyykAV9sX/lPyf/7/Js///5L878n/smLmsK/ljTfe6GwCYJER+AGQGNo7borqPmEfAPPlkb9M/pefJbv+H0nl/965FQCmJvADYMyiD/2mCPsAYF79T8n/9Vxy7n9O7u3cBgDTEPgBMMGiDf2mCftU9wEwr5pDeVf8l+bQXgCYBYEfAJOMhX6LIfhrvk5hHwBXU61Wy9q1na2TtYbybvt/Nob2zmTt2ox9n5nHD2BxE/gBMKVarVb8ar9m0CfsA2Ah+pf/tW0ob3No767/vbMXAEy2SAK/araUKlnSfCxdM5JqklRH0tv6+YrqOF9pTwYveJJprnHWzmdwTWPfLYeq2VI6kCNJ87itnwEuXiGr/Wao6ouwD4AF4gv/Kdn5n8afP/L/Sbb9T+09pue7DGBxWySBX5Lcnf31SkbrlTx/5+H846HO7bNxPoNrZhmerX4gbzXP99HB5dl+82z2u4xrrJ7Oc2mc8+m+njxdX591nX0ALtGEar/Ox0LXeb0XqOrzCxIAV8tsh/XORvtwXgBYRIHfdE5kU6uqrn+8pu5If1u1XbP9SP9gvn/8tWwoVdK76/y0/SbpW583d36QHzX3qe7ac+F9Wqoj6e0/kC0TrqPznNVsuflwXj1+OF8qHcgRVX3AHKnVamNh2VhoNkWgtpAendc73S9Dgj4A5sOVCP2EfQB0KtVqtXpnY7crl8up1yttLdVsKe3L3uaz0uaN+Wh3TyNMu/lEvn5mU7b2nM/gmv3Js5uy9cyBLP3h5/PmsfvS0wzY/ulrlTzddz6Da47l1mPN6rlD0/WrZsuaf81fN9vTDPk2ZUOOPnQ6vU/9cY7ubmw50r8n735vU7b2zHSNH+aJVsXedOe8eSS93072HLsvPalmS+lUHq6vz7oJP8PVVypVJtyAClWKpdsnBPfvkYsx+f4CmC33AzMrl8tJkkvJ7FphYWfg5z0GWNwWUYXf+HDZj5phW5Jk9co82JMky3LrnY2m6ukPcs+jt4yFdTfdcUNOnG5U57Wbbb+WlbcsS858mFeH9o1V6G0Yej/vnGn1mO4aP5+bmj9e7DkB5lJrCGz7Y6HqvM6FfK0ALC6tqTMuttKvVdkn7AOg0yIK/Gav55bl+fXJ8RDtvZPvN8K6JMkHebc5Cnfmfm2qI9k0sDwP9zWeljZvzGgz2ButV/J0s302Zn1OgHnSGaotlAcALHSt0K/1mEr79s6gL8I+AJoEflPpW5/nM16F90g2NkO5Zbn1zvfz/Zubc/hN2y/J8cP5YmuevfYhuR37zG4F3zYznRMAAOhq7fPltod77SHfVFV9ANBukczhB8wXc/YAReH+Ai6d+4FL0z5X7tq1a2cM+bynALRT4QcAALAAzTbEm20/ABYPgR8AAMACNd1ctOapBWAmAj8AAIAuIOQDYLYEfgAAAABQIAI/AAAAACgQgR8AAAAAFIjADwAAAAAKROAHAAAAAAUi8AMAAACAAhH4AQAAAECBCPwAAAAAoEAEfgAAAABQIAI/AAAAACgQgR8AAAAAFIjADwAAAAAKROAHAAAAAAUi8AMAAACAAhH4AQAAAECBCPwAAAAAoEAEfgAAAABQIAI/AABgzq1du7azCQCYIwI/AABgzg0PD2ft2rWCPwC4CgR+AADAVTE8PJzh4eGUy+WUy+XOzQDAFSLwAwAArqparZZarTYW/An/AODKEvgBAADzohX8tYd/AMDlE/gBAADzTvAHAFeOwA8AAFgwOoM/4R8AXDyBHwAAsOAY7gsAl07gBwAALGit4A8AmB2BHwAA0DXOPXN/ri+Xc325nC8MvNS5GQAQ+AEAAF3jpYGs2b8hx2u1/K72en5w8hv5rswPACYR+AEAAF3hXPVkvvm9x7MiSXJj7t9wb96pnp3Y6ewzeWhgIN9VBQjAIibwAwAAusLZd1+Z8HxFzx0Tno/ZezK3vN6qAnwquzsyQQAoOoEfAADQFW689d4Jz89VT054PubeDbn/xiS5MdNlggBQZAI/AACgK6zouSM/e+qZnEuSnM2L+1/JbT03dnYDgEWvVKvV6p2N3a5cLqder3Q2A/OgVKpkeHh47PmqVasmbAfoFu4v4NJdyfuBlwfK2bi38fNdO17PC4/fmOSlfLf8Qh6s7cxXzj6Th/4q+S8vNub6e3ng/lS3vpj+Gxv/P06SWq028aBXQevc82E+Xi8XZz7/fcBc8dkzvwR+wJy6kjf4APPJ/QVcujm/H+gI+S5kroO/KcObU/P4a9ftpc6WOXvtXJpyuZz6Od8xFEdpRcXnzDwzpBcAAOhqLw/uz1/8eHZhX5phV61WS7lcHntcCWPHOlWf/JhPnddyqn5FXzcAC4/ADwAA6Gpf2dkYsnuxWsFfe/h3qSYEfd2gLfgDoHgEfgAAwKJ3qcHfhKq+ufCr/iy5fU2u++fODVeIaj9gjrzxxhtjD64+gR8AAEDTxQR/k6v6DuW620v5XPPxR/+12rHH/Lvmv64Zu74lPzjUaFTtB1A4Aj8AAIAOncFfZxg2uarvUK67/cFc++Wd+fhUPb8/dSZ/OPxUrm3rMTuN0HAsLPzz3Rk9dSwf/0lnv9noONav+vPZPJvfn6rn3x9N8vMfTqwcFPpRMNWf7MnSFXsy+NvOLW2GD2TJikq2jK8rBIUg8AMAAJjGVPP8TQ77kvzql7kmySePb8unSZKefPzT3fkkybU/GK/6W/KtXbkmraG6/bmuua3RXs1133ow1yQp7bi50fbPu/JHt5dy3a8ap5lQoXexx/rz3fm3v+xJknzyHzennuNJZxAi9KOLVH+yJ0tWVLJkRSVLn+ioqP3tSDb9XbJjeFO2/unETbAYCPwAAABmoVarNX7oDPuSXHPu7ZSyOX/4844Nv+rPdT9fnU+P1PP7Izvzh98M5LPNirt6hpL/ON5+za968vFPD+bTJPXtZzL601Z4OH6s/7Djzvz7qXp+f+pgPrmMY137P4amvt4I/egSwwfyxb97P4/9pJLRc5W8efOpiZV8f3pfjp6bRdi3dn1Gz1Xy9NrODdDdBH4AAABz5Nr/MZR8+dF8+idJ/uSh/OHLyWfeO5MkKWV1cqEwos01595OPUP57O2lfO72RvVey0Ud61f9+ezPk0+GGhWI0I2q5z6Y8LznO+vHw73fjqS3Wfm3ZEUlvT8539xQzZYVlWx5ojGMt/cn5ycP6Z12X+guAj8AAIBZmHIo7wRv5zNztZpuUymbmxV+jUdriO6s/fOu/NHmodS3n8nHU1X3tajyY4Hr+U5vHkuy9zuVifP0/XYkvWsPZ2Wz8m90+IHk7wYnzNH37M+S/ecqOfqdZeONmd2+0C0EfgAAABdwobDv0798Mp/keK79fnNevSTX/qA/n7lpdfKbn+eaf07yzy/kM79JPvmPfR17z86nK+5MPUP5THM+v4t3KNetG8hnHj04u6BQ6MeC1pOnz1Xy1t/ckHrez/fXNqvxzn2YV5tB4JIVlSxZezivJjlxbrxS756/WZN1E47VNIt9oVsI/AAAAC5bXz5uzp93XXNRjWtv+l4+/stj+fjR47lmXSmfa4ZtM1bWpS9/eLRtoY32TX++O//+aHLN5vFFQFqLeUxt4rGu/a8/zDVJ6j9/cHzhjx8c6twJukrPdzZl9NzGPJbk12fGg7nW3H6tx6Rqvhlczr6wUAj8AAAAZnCh6r4xf7It/zbFcNtP/na8bfRvm9V9f747o6eO5eM/Gd+vFQS2+o/+dFs+nWZb6/Hxn8/+WJ/85bEJ+064numo8mOBqv5kT9u8e/+aE0nuuXlZsuLz+bMkz77YsWrvbFzOvrDACPwAAACY0RtvvNHZBPOq5zu9SdvQ219/c2OjEu9P78vRn9yd+s/2jS28MWGOv5lczr6wwJRqtdos/lTVXcrlcur1SmczMA9KpUqGh8dnuV21atWE7QDdwv0FXLpuvx+YdYVfUd1eyvDwcNf9d+sm5XI59XO+YyiO0oru/twvAhV+AAAAAFAgAj8AAAAuyLBegO4h8AMAAJjGoh/Om8bCHWvXru1sBWABE/gBAAAAQIFYtAOYU90+STdAi/sLuHTdfD9QLpc7mxYtC3fMHf/OKKJu/dwvCoEfMKe6+QYfoJ37C7h03Xw/UC6Xk98X7lemi/e5xkq96bL/ft3CdwxF082f+0VhSC8AAMA0arVa8rlSZ/Pi0hb2AdAdBH4AAAAAUCACPwAAAGbFsLxuUc2WUiVbDnW2A4uFwA8AAAAWkupIekt7MlidtKEtyDufwTWVLCk1Hu3h3pH+fTmxc2ue7mvbtd2hA1k65fGBohD4AQAAQJep7tqf7cfvzv56JaP1yoRwb93uSo5uW9befaK+9fmovilbezo3AEUh8AMAAJjBol64w4IdC8B4Jd/SNUdzom1LPa/lR7vOt7UkR/rHq/6W9jdL+A4dyNI1B7JlTSVL14yk2lFBOOU+QFcT+AEAAHBB5u+bJ4eOjVXyffTk8rzabO7Ztin7NyevDgyOD889dCCPDLWq/jbm20P7xob61o+/ljxZyUfH7suEwr4Z9gG6l8APAADgAhZllZ/qvgWhevqDZPXnc1OS9N2ex9q2rdtdyWh9a3asfj/bn6qmevqD1PNaNpQqWVLal71JTpxuVACWckNuu7lt56aZ9gG6l8APAABgFhZV6NcM+9auXTv2YB4d/zDvJcmhU9nbbDrSP3nRjZ5blqeU8Xn9RusXmMvvEvcBFj6BHwAAAFMaHh7O8PBwarVayuXy2IOrp2fbhuxY3ajAW/rD5LHVjfZ131uZ526uZElpMNuP353nd/ckfevz/OZWtV5ldivxXso+wIJXqtVq9c7Gblcul1OvVzqbgXlQKlUmDAUx9wvQrdxfwKUr2v1AuVxOfl+4X6PGdQzlneq/V3voV6vVJmzj4vmOoWiK9rnfjQR+wJzyQQ8UhfsLuHRFvB8obOg3xbx9F/rvJfy7fJ3fMUtK8/t9M+r7jstUxM/9biPwA+aUD3qgKNxfwKUr6v1A4UK/Swj7Ogn/Lo3vGIqmqJ/73cQcfgAAAJdgbBGPbl/Io/kaLjfsS/M9aT3K5vwDmDcCPwAAgEvUCre6NvRrBn1XIuzrNF34JwAEmHsCPwAAgMvUddV+01T15QqFfZ3aw7/OABCAK0/gBwAAcAVMqPbrfMynzmuZoapvLsK+qQj/AOaWwA8AAOAKqtVqY4HaWLA2Reh2tR6d19IZ9GWOqvpmS/g3lfMZXFPJklLjseVQ5/amQweytLQng9XODcBiZ5VeYE5ZnQkoCvcXcOkW+/3AG2+80dm0ICz0/w7toV+t4Cv+dn7HVHftyZcGluf5+vqsm9ATusNi/9xfCFT4AQAAzKHWUNn2x9XWef75uIaLtdgr/+p5LT/adX7seXXXnrGKv6WlAzmSJNWR9LYq/Koj6W1u723ud6R/vEpw6ZqRVNOsClxzIFuaFYRj7UChqPAD5pS/7ABF4f4CLp37Aa6kIlb+TfUdc6S/kg1DSSk3ZMeZTdna09pSzZbSvuRgJU/fPJLem0/k62c25cEX9uRLJ3vz0e5Gx4lVgo19TuzcmqO3HMuSB1/LY2P7H87Kg5U83dd+drg8Pvfnnwo/AAAAukZn5V+SnHvm/lxfLuf6cjlfGHipc5eutG53JaP1rdmx+v1sf6qaHDrQrNbbl71JTpwer/5Lkp6HVuaeoX1jc/69d/L9ZPXnc1OSZFluWz3et5S783Bfkp4/zsrxZqBABH4AAAB0pVqtlrw0kDX7N+R4rZbf1V7PD05+I9/t8szvSP/khTiO/PK1lDZvzGh9Yx6buKmh574crVfy1s4b8uwPR5I7bkiOf5j3kiTn887xZOUtyzr3AgpK4AcAAEDXOlc9mW9+7/GsSJLcmPs33Jt3qmcndjr7TB4aGMh3u6QKcN33Vua5mytZUhrM9uN35/ndPVn3tbtTH9qXpaWjOdFWrdfSmq/viwPv59tP3pd12zZkx+rXsqFZFfjs5o2G7cIiYg4/YE6ZuwEoCvcXcOncDzCXXh4o5+BDtfzDV5sNLw3koerWvPD4jeOdzj6Th+7an794/cX033g2u+//q+THL6a/rct88h1D0fjcn38q/AAAAOhaN95674Tn56onJzwfc++G3H9jktyYnjs6Ny4srZV1r9YDKB4VfsCc8pcdoCjcX8Clcz/AnHppIF946tYce/HxrMjZ7L7/rpz+XlvFX5oVfn+V/JcXG0N/Xx64P9WtjQq/1sIf87nir+8Yisbn/vxT4QcAAED3+urO/Lc7tmd1uZzry3flv294vRn2vZTvlgfycmf/Du0r/rYeAN1O4AcAAEBX+8rOWn5XazzG5u47W807996axijex/NCs7qv0X/y/H2t4E/4BxSBwA8AAIDCeXlwf/7ix+Mh38UQ/gHdTuAHAABA4UxVxXcphH9ANxL4AQAAwCxMF/5d8QDw0IEJq+guXTOSameflkMHsrS0J4PTdriQaraUKtlyqLMd6GYCPwAAALhI7eFfZwB4JZRyQ/7+TCWj9Uo+OnZfejo7tPStz0f1Tdk6bQdgMRL4AQAAwGWay/AvaVbyrTmQLWuaVX+lAzmSJNWR9LYq/Koj6W1WBfbuOp8kOdI/VaXg+Qy2jrPmaE60nWZC//5LLhsE5pnADwAAAK6gKxH+1fN+vn/zxPCufvy15MlKRusb8+28lh8121uqL5zIrzdvzGi9kqPblqW6a08eGbo7++vNfY4fzqZd55NDx7L9eKP9oyeX59XWAQ4dmNh/aJ+hvtClBH4AAAAwRy41/Gsf0nt027Jm2915uC9JluW21Z17JD0Prcw9Q/uypDkn33sn309Wfz43JRP2qZ7+YLy97/Y81ty/evqD1PNaNpQqWVLal71JTpyeGCoC3UHgBwAAAFfBpYZ/LfW8ln86lCTn887xzq1Jeu7L0Xolb+28Ic/+cCS544bk+Id5LxnbZ+UtjfBwrP3Qqext7X7L8pTSqvCbGDYC3UXgBwAAAFdZe/g3lfYhva2590q5ISd+2Ki+e3b1A9nTEca15t/74sD7+faT92Xdtg3ZsXq8Yu/ZzRvzdF/S09a+9IfJY61qwb71eX5zq3/lMlf/BeZTqVar1Tsbu125XE69XulsBuZBqVTJ8PDw2PNVq1ZN2A7QLdxfwKVzPwAzm9V3zKEDWfpg8nx9fdZ1boMFxuf+/BP4AXPKBz1QFO4v4NK5H4CZdX7HLClN/r4ptf18tX+JH/X9x0XyuT//BH7AnPJBDxSF+wu4dO4HYGa+Yygan/vzzxx+AAAAAFAgAj8AAAAAKBCBHwAAAAAUiMAPAAAAAApE4AcAAAALSjVbSpUsaT6W9lc7O8xOdSS9l7ov0NUEfgAAALDQrH4gb9UrGa1vzY63j2ZQbgdcBIEfAAAAdIPqSHqnqvyrjqS3/8BYVeDkisDzGVxTSe+u8xOqB5eW9ggSoaAEfgAAALDQHD+cL5YqWVranzy7KVt7kvTcl6P1SkbHKv9O5Uir/9AHue3M1BWBR/oH886TlRzdtiw5dCondm7NaL2Sj+rN4wKFI/ADAACAhaY5pPfNncn2p1rpXaNSr1HhN5jtx9v7r8yDPUmyLLfe2dY+tC+PDN2dh/uaz/vWZ0/2T1MJCBSFwA8AAAAWqJ5tG8Yr9g4dy3OPNqrzRutbs2N1Z+8pbN6Yjw4mj6wZSSve69m2KaP1St6842hzmC9QNKVarVbvbOx25XK5swmYJ8PDwxOer1q1asJzgG5RLpdTr1c6m4FZKJUqE+4J3A/ARJO/Y6rZsuZf89fH7ktPkuquPdmUDTm67Xy2lPZlb5JSbsg9q5fniWPrs646kt5vJ3ua/Y/078m739uUrRlJ71N/nKO7e1LdtSdfOtmbN+84mi8OvJ8kKeXuPF9fn3VtZ4Yrwef+/Ctk4NfpjTfe6GwC5okPeqBbTf5lDJgtv/jBzHzHUDQ+9+efIb0AAAAAUCACPwAAAAAokEUxpBcA4HIZbgWXztAumJnvGIrG5/78U+EHAAAAAAUi8AMAAACAAhH4AQAAAECBCPwAAABgQalmS6mSJc3H0jUjqY61H8iRzu6XrOM8/Y2zXLTqSHovdV9gTgj8AAAAYMG5O/vrlYzWK3n+zsP5x0Od26+Q1Q/krXolo/Wt2fH20QzK7aAQBH4AAADQbaoj6Z2mOu9I/3j7lmZQWN21Z8q+U5ru2NWR9PYfGKsKnHyc8xlcU0nvrvMd7cDVJvADAACABee1bGgGa49kY57u69jcc1+ONisAG9V5pxpDfQ8dyCPZ2GyvNParjmTTyd6xtufTVsl3/HC+WKpkaWl/8uymbO2Z4dhJMvRBbjszdUXgkf7BvPNkJUe3LRtvBOaFwA8AAAAWnPEhvR/t7uncOFZN16jCG8z2443W6ukPcs8dHYHbmQ/z6tC+sYq9DUPv550zzW3NIb1v7ky2P9VK76Y+dqP/yjzYkyTLcuudbe1D+/LI0N15uDOYBOaFwA8AAAC6zaFjee7RreNVeKsbzT23LM+vT04eUlvaPF71N1b516Zn24bxir1pjj2jzRvz0cHkkbEFRoD5VKrVavXORgAAJiqXy51NwCwNDw9PeL5q1aoJz2GxK5fLqdcrbS3VbCmdysP19VnX1jqxvZotpX3Zm6SUG3LP6uV54lij/5H+SjYMNfZ47GAj3GtvK+WG7DizKVt7qtmy5l/z18fuS09znr9N2ZCj285PfezqSHq/nexp9j/Svyfvfm9TtmYkvU/9cY7u7kl115586WTvNFWJLBalUmXCZ7/P/atP4AcAcAneeOONziZglvziBxNNDvyguwn85p8hvQAAAABQIAI/AAAAACgQQ3oBAABgHhnSS9EY0jv/VPgBAAAAQIEI/AAAAACgQAR+AAAAAFAgAj8AAABYUKrZUqpkSfOxtLQng9XOPldYdSS97efsn+mE1WwpHciRzuaLcj6Da67C64JFSuAHAAAAC83qB/JWvZLReiUfHVye7TdfbsA2C+3n3N3TubVNT56ur8+6zmZgwRD4AQAAwELWtz5v7vwgP9p1vlGJt2YkrcK4I/3NKrnqSHr7D2RLW3VeddeeKSv2pmufpO2YS0qVLB07b3uF33g1Ynsl4pH+qasFW+1LS/vz3FjrRVwTMCsCPwAAACiCoeThVnVedSSbTvZmtFmx93yOjgWDU7YnyfHD+WIzdNtyaOIxR+uVPH/n4fxjq73l0Kmc2Lm1URVY35StPUkOHcgjb49XCz6ffY3jHTqQR7Kx2bc3K483jzHTNQGXROAHAAAAXWDlLcs6myZa/fnc1Pr5zId5dWjfWNXchqH3886ZGdozcUjv032Tj3nTHTfkxOnzzWdNfeuzJ/snVOZVT3+Qex69Ja1Bwa39qqc/yD13tF7Dsty2uvnjTNcEXBKBHwAAACxk1ZFsGlieh1sh3JjzefftzrZxpc2NarrWoxXiTdd+Ie+dfH/K0LFn26aM1it5846j6d11Pj23LM+vT44Hg639JrafzzutCr/LuCZgagI/AAAAWGjahtcuvfnDPNFaJKPnvjxxZ2Nb5zx4E/Stz/MZr5obm19vuvZ0nLM1X19b2yPZOCmIa59770sDy/PEtmWTzjG2X9+a7Hi70b60dCrZ3DzITNcEXJJSrVardzYCAAAAV0e5XE69Xulsnn/VkfR+O9lz7L6x4bkwG6VSJcPDw2PPV61aNWE7c0+FHwAAAAAUiMAPAAAAmKznvhxV3QddSeAHAAAAAAUi8AMAAACAAhH4AQAAAECBCPwAAAAAoEAEfgAAAABQIAI/AAAAACgQgR8AAAAAFIjADwAAAAAKROAHAAAAAAUi8AMAAACAAhH4AQAAAECBCPwAAAAAoEAEfgAAAABQIAI/AAAAACgQgR8AAAAAFIjADwAAAAAKROAHAAAAAAUi8AMAAACAAhH4AQAAAECBCPwAAAAAoEAEfgAAAABQIAI/AAAAACgQgR8AAAAAFIjADwAAAAAKROAHAAAAAAUi8AMAAACAAhH4AQAAAECBCPwAAAAAoEAEfgAAAABQIAI/AAAAACgQgR8AAAAAFIjADwAAAAAKROAHAAAAAAUi8AMAAACAAhH4AQAAAECBCPwAAAAAoEAEfgAAAABQIAI/AAAAACgQgR8AAAAAFIjADwAAAAAKROAHAAAAAAUi8AMAAACAAhH4AQAAAECBCPwAAAAAoEAEfgAAAABQIAI/AAAAACgQgR8AAAAAFIjADwAAAAAKROAHAAAAAAUi8AMAAACAAhH4AQAAAECBCPwAAAAAoEAEfgAAAABQIAI/AAAAACgQgR8AAAAAFIjADwAAAAAKROAHAAAAAAUi8AMAAACAAhH4AQAAAECBCPwAAAAAoEAEfgAAAABQIAI/AAAAACgQgR8AAAAAFIjADwAAAAAKROAHAAAAAAUi8AMAAACAAhH4AQAAAECBCPwAAAAAoEAEfgAAAABQIAI/AAAAACgQgR8AAAAAFIjADwAAAAAKROAHAAAAAAUi8AMAAACAAhH4AQAAAECBCPwAAAAAoEBKtVqt3tkIAAAAXB3lcrmzCbra8PDwhOerVq2a8Jy5J/ADAACABeSNN97obIKuJvC7+gzpBQAAAIACEfgBAAAAQIEY0gsAAAAABaLCDwAAAAAKROAHAAAAAAUi8AMAAACAAhH4AQAAAECBCPwAAAAAoEAEfgAAAABQIAI/AAAAACgQgR8AAAAAFIjADwAAAAAKROAHAAAAAAUi8AMAAACAAhH4AQAAAECBCPwAAAAAoEAEfgAAAABQIAI/AAAAACgQgR8AAAAAFIjADwAAAAAKROAHAAAAAAUi8AMAAACAAhH4AQAAAECBCPwAAAAAoEAEfgAAAABQIAI/AAAAACgQgR8AAAAAFIjADwAAAAAKROAHAAAAAAUi8AMAAACAAhH4AQAAAECBCPwAAAAAoEAEfgAAAABQIAI/AAAAACgQgR8AAAAAFIjADwAAAAAKROAHAAAAAAUi8AMAAACAAhH4AQAAAECBCPwAAAAAoEAEfgAAAABQIAI/AAAAACgQgR8AAAAAFIjADwAAAAAKROAHAAAAAAUi8AMAAACAAhH4AQAAAECBCPwAAAAAoEAEfgAAAABQIAI/AAAAACgQgR8AAAAAFIjADwAAAAAKROAHAAAAAAUi8AMAAACAAhH4AQAAAECBCPwAAAAAoEAEfgAAAABQIAI/AAAAACgQgR8AAAAAFIjADwAAAAAKROAHAAAAAAUi8AMAAACAAhH4AQAAAECBCPwAAAAAoEAEfgAAAABQIAI/AAAAACgQgR8AAAAAFMj/H1bswuFwzkJTAAAAAElFTkSuQmCC;" parent="1" vertex="1">
          <mxGeometry x="2481" y="730" width="556" height="245.32" as="geometry" />
        </mxCell>
        <mxCell id="9leaR-uuI5GwIjogHfwz-2" value="" style="shape=image;verticalLabelPosition=bottom;labelBackgroundColor=default;verticalAlign=top;aspect=fixed;imageAspect=0;image=data:image/png,iVBORw0KGgoAAAANSUhEUgAABUwAAAKsCAYAAAA3G/fCAAAAAXNSR0IArs4c6QAAAARnQU1BAACxjwv8YQUAAAAJcEhZcwAADsMAAA7DAcdvqGQAAGBWSURBVHhe7f1PbFznnSd6f/Uu5Q03aiCihIiZwBmIm3QAi9FcqH2ERseWQlwgBrOwOSMYiIK5DRJjYpodId5Y3iigp+aF1KCQaUQGDL3DaOGCLnDBiHYbgY9t9HUXA6R7Q2NsdJtsSKUGRpvaWFu9izpFFkukROoP/+nzAQpgPec5p4r19+GXv+c5+1qt1r0AAAAAAJD/T28DAAAAAMCzSmAKAAAAAFARmAIAAAAAVASmAAAAAAAVgSkAAAAAQEVgCgAAAABQEZgCAAAAAFQEpgAAAAAAFYEpAAAAAEBFYAoAAAAAUBGYAgAAAABUBKYAAAAAABWBKQAAAABARWAKAAAAAFARmAIAAAAAVASmAAAAAAAVgSkAAAAAQEVgCgAAAABQEZgCAAAAAFQEpgAAAAAAFYEpAAAAAEBFYAoAAAAAUBGYAgAAAABUBKYAAAAAABWBKQAAAABARWAKAAAAAFARmAIAAAAAVASmAAAAAAAVgSkAAAAAQEVgCgAAAABQEZgCAAAAAFQEpgAAAAAAFYEpAAAAAEBFYAoAAAAAUBGYAgAAAABUBKYAAAAAABWBKQAAAABARWAKAAAAAFARmAIAAAAAVASmAAAAAAAVgSkAAAAAQEVgCgAAAABQEZgCAAAAAFQEpgAAAAAAFYEpAAAAAEBFYAoAAAAAUBGYAgAAAABUBKYAAAAAABWBKQAAAABARWAKAAAAAFARmAIAAAAAVASmAAAAAAAVgSkAAAAAQEVgCgAAAABQ2ddqte71NgIAAADPpr6+vt4m2BNarVZvE6xJYAoAAAAs6+vrS1mWvc2wqxVFITBlw0zJBwAAAACoCEwBAAAAACoCUwAAAACAisAUAAAAAKAiMAUAAAB42hq1nCqKXGr0/AzsOAJTAAAAgCelWc9EUeRU12Wi3uztBexgAlMAAACAJ+x74zOZK8vMlWUujvQnQ5OZK8u8MdTbE9hpBKYAAAAAT9t60/CritRLtfb2U0WR02P1zNfHVKjCNhGYAgAAAGyzDxeP5N2yzLvjg7m3MJ3zS2cyV5Z5ezj5avpCrstMYcsITAEAAACesC+nR5crRO+rKl3D8yeP52CSg4cHkiQvnWjP3T90ZLCnJ/C0CUwBAAAAnrDuNUytWwq7i8AUAAAAAKAiMAUAAAAAqOxrtVr3ehsBAACAZ1NfX1/Ksuxthl2tKIq0Wq3eZliTClMAAAAAgIrAFAAAAACgIjAFAAAAAKgITAEAAAAAKk76BAAAACzr6+vrbYI9wUmf2CiBKQAAALCsr68vZVn2NsOuVhSFwJQNMyUfAAAAAKAiMAUAAAAAqAhMAQAAAAAqAlMAAABgbc16JoqxXG/2bmjkUlHkUiNJo5ZTRbF8OV1rJI1aTnf2W/cYADuTwBQAAAB4LPsymJ/PlJkry9yYHEqGJnOjvJxX+nt7Aux8AlMAAABgA5q5PlZVkY5dzWLv5m7rVZU2ajk9Vsul5ePUc71W/VzUMt/THWA7CEwBAACAh2tcy5WF4bxdlrlxZiBfdm26l4X8ZrQdfE7Ue1PSHguLOfxmmbmp4dxbmM7NE2XmZsbzfGbzeaO3M8DWE5gCAAAAD3X75mIyeCSHkmToRF7u2tY9Jf/iyMPm4Q/kUH+SQ0fyvQzm8KEk/Ycz0NsNYJsITAEAAICNWVjKrSRpfJYPercB7BECUwAAAOChDo68mbODs3mrKHL6avLyYG8PgL1hX6vVutfbCAAAADyb+vr6UpZlbzPsakVRpNVq9TbDmlSYAgAAAABUVJgCAAAAy7orTE8VRe/mp25OdStPgQpTNkNgCgAAACwzJZ+9SGDKZpiSDwAAAABQEZgCAAAAAFQEpgAAAAAAFYEpAAAAsI5GLhVFTlWX07VGb4eNadYz8aj7AmwxgSkAAACwvsHxvFuWmStncnbxaq43ezsA7C0CUwAAAGBzmvVMrFV52qxnolZbrkq9vyK1metjRSbqzVXVq6eLMUEssGMITAEAAID1LUznZ0WR08WF5M3LeaU/Sf9ILpZl5pYrTz/LfKf/7GIOz6xdkTpfG83NM2UujvQnjc+yOD6TubLMjbI6LsAOIDAFAAAA1ldNyb8ynly51qkYbVeKtitMR3Nlobv/yfywP0n6c2igq332XM7PDuf4UHV9aDK/yIV1KlEBto/AFAAAAHiogyNvrlSMNq7l05Pt6tC5ciZnB3t7r2F4KjemkvNj9dyumg6OXM5cWebKkavVNH2A7ScwBQAAADagPz88mXz6eTMZOpGB6dFq/dEL+bS363qGJnPl5Mc5W2vkdn1seQ3Us9MDeW3EnHxgZ9jXarXu9TYCAAAAz6a+vr6UZdnbDLtaURRptVq9zbAmFaYAAAAAABWBKQAAAABARWAKAAAAAFARmAIAAAAAVASmAAAAAAAVgSkAAAAAQEVgCgAAAKyjkUtFkVPV5fRYPbeX22uZ7+3+yHpup9bo7bAxzXomHnVfgIrAFAAAAHiA4bxdlpkry5wfmM77TyuPHBzPu2WZuXImZxev5nqztwPA1hCYAgAAAI+uWc/EOtWh87WV9ktV8+362Jp917TesZv1TNRqy1Wp9x+nmetjRSbqUldg8wSmAAAAwAPM5q0qmDyfqbwx1LO5fyQXqwrUdnXoZ+2p+o1azmeqai/b+zXreWfpzHLb+XRVki5M52dFkdPFheTNy3ml/wHHTpLZxRyeWbsidb42mptnylwc6V9pBNgggSkAAADwACtT8m9M9qalWa7mbFeBjubKQrv19s3FPH/k0Oqut5by5ey55YrRt2YXcvNWta2akn9lPLlyrVMxuvax2/1P5of9SdKfQwNd7bPncn52OMfXuqsAGyAwBQAAAB5d41o+PTmzUgU62G4+eHggXy110tAV+4ZXqk6XK0+7HBx5c6VidJ1jP9DwVG5MJeeXT1AFsDkCUwAAAODRDZ3IwPRoey3R4kI+XW6fzPmsVJNeatzfdroYW+PkTv354cnk08+b6x/7YYYmc+Xkxzl739qmAA+3r9Vq3ettBAAAAJ5NfX19Kcuytxl2taIo0mq1epthTSpMAQAAAAAqAlMAAAAAgIrAFAAAAACgIjAFAAAAAKgITAEAAAAAKgJTAAAAAICKwBQAAABYRyOXiiKnqsvpYizXm719APYWgSkAAACwvsHxvFuWmSvL3JgayJXRWuZ7+wDsIQJTAAAAYGOGJnNlfDG/rTeTZj0TY/XcrjbN16rq02Y9E7VaLhVFTtcaSZLb9bGVKtWq7UHtANtJYAoAAAA8WbPJ8bLMjcmhpFnPO0tnMldVqZ7P1eVgdc12gG0mMAUAAAA2ZeBwf2/TaoNHcqjz862lfDl7brmS9K3Zhdy89YB2gG0mMAUAAAA2plnPO9MDOT5034bcWuxtW7FveGq5knSuLPNGtf967QDbSWAKAAAArG9hOj/rrDM6upTXyskcS5L+kbw20N52uriQT3v36xiazPmsVJKeLqq1TtdrB9hm+1qt1r3eRgAAdra+vr7eJmCTWq1WbxNQfceUZdnbDLtaURQ+99kwgSkAwC7kj1l4PP5whvX5jmEv8rnPZpiSDwAAAABQEZgCAAAAAFQEpgAAAAAAFYEpAAAAAEBFYAoAAI+jUcuposilRu8GAAB2I4EpAABsSCOXiiKna5tPRudrRU6P1XO7dwMAADuOwBQAAB7H0GTmyjJvDPVuAABgNxKYAgDA41g1Jb+Z62NFThXty6VG+/pbs8m9hen8rHvqfrOeiarfqaLIRL25+rgAAGwLgSkAADwht+sXcmVhOG+XZVV12p9XLpd5ezjZNziedzuVqM16JkanMzDV7jc3M55Mj1oHFQBgBxCYAgDAE3Lw8EDuZTZvPewkULeW8mWSD85VFaaj0/kyyeJNVaYAANtNYAoAAE/K0GTmypn8fLAdhj5smv3LnQrT6nJxpL+3CwAAW2xfq9W619vIk9XX19fbBGyzVqvV2wSwq/T19aUsy95mnqpGLhXn8uHwVG5Mdp3hqVHLqXOzeXmqzE9v1vIPxyfzSv/qvvO1Iudnh3O+nMyxrEzJ/6r3WGyZoiiMB2AdvmPYi3zusxkC0y3gywZ2Fl+UwF5gfLEd2iHoB10t3xufycXD15YD0zeGVvrsS1dAWoWqqapK3xha3ZYk+zKYszOX84oi0y1hPADr8x3DXuRzn80QmG4BXzaws/iiBPYC4wt4PMYDsD7fMexFPvfZDGuYAgAAAABUBKYAAAAAABWBKQAAAABARWDKs6dRy6miyKXGA34GAAAA4JnkpE9bwILZT1GznonR6WR8JhdH2qeUvV0fy9npLJ9ldr5W5PzieK5cHsnBrJyR9uWpMm9knZ+Hem/owe67DXY0i30De0FfX19vE7BJxgOwNn/Dshf5O5DNEJhuAV82T9GjBKbdusPTTYak3R54G+w4viiBvcD4Ah6P8QCsz3cMe5HPfTbDlHz2sGaujxV5aza5tzCdnz1s6v2q9va+p4r2pd3WyKXq+qmiyOmxem6vdxupwtyu/hP15hq3075+uhjL9ebKbVyqtfss7wMAAADAlhCYsof155XLZd4eTvYNjufdcuNVpLfrF3JlYThvl2XmOvs1D+Wn1fW5qeHcW5jO+411bqOqfB2YqvrPjCfTo/eHtOv4cDZ5uyyXq2YBAAAA2BoCU1jDwcMDuZfZvNVdCdp/K+93KkbPzfbs0ePWUr5M8sG5qv/odL5MsnhzYxWjz4+/mmO9jQAAAAA8dQJTWMvQZObKmfx8sB16TtSbma+dy4epqk6nhnv3WNPLnQrT6qJiFICnolnPxPLyLt2qpV4aK0vFrJrtsGpZGAAAIAJTdr3+wxlI8tXHn+d2kqSZf/h4IRk8mR92Z5MLS7nVdfVhbtdrud7szyuXp/Jykq+WVu99++biqutJz20cOpLvJfnwszXm4Ffb2tWmzVy/+pBqVQB4WoYmc6NsnyTxfl1hKwAAPEMEpuxyQ3mjnMpL1QmXThWjubIwnPNdZ6s/dmL4/un1D3Fw5ERujhY5VbSrSs9PDuXYq+N5vjrO2Y+T73X1v+82+kdycWo492bPrZwkqlPB0z+S14aTL6dHc6oYzc2T43m+61gA8HhWTlx4euxq1vgX34ruytSukxVO1Bu5PnYuH1TLy5yutb9A52tdJz+s2gAAYK/Z12q17vU28mT19fWlLMveZmCbFEWRVqvV2wywq6waXzTrmRj9OH82czmv3Krl9LnkfDmZY41aTp2bzctTZd44tHJCwuWTIHbt98PPx3J26UxuTHY2NnKpOJd0+je6jtu7DXYh4wFYn79h2Yt87rMZKkwBAPaQ2zcXk8EjOZQkQyfycm+HdRw8fjLPVzMj1pqRcfvm4vJsilNFu/p0oyczBACA3URgCgCw13TW1W58lg96t62nfyQXyzLvjg/mw6v1am3wFQcPD2Rf5+SHTmYIAMAeJjAFANhDDo68mbOD7UrQ01eTlwdXb//g3NprkHbWJ/3Z9EJeOjOSgxnK8eGuNUyHJnN+uFNh2rU2NwAA7DHWMN0C1n+BncXaNcBeYHwBj8d4ANbnO4a9yOc+m6HCFAAAAACgosJ0C/T19fU2AdvMfxaB3a67+udUUfRu3jJzKpDYpVQawfpUmLIX+dxnMwSmW8CXDewsviiBvcD4Ah6P8QCsz3cMe5HPfTbDlHwAAAAAgIrAFAAAAACgIjDdas16Jooip6rL6bF6bvf2eWyNXCqKXGr0tgMAAAAADyIw3RaD+flMmbmZ8Ty/MJ136s3eDgAAm9D+Z+nE8piimetjY7n+2EOMRi4Vtcw/tA0AAPYOgel26j+ePxtMvlq6tarytPPHznytqxK1VpWLNmo5vfxHSnclaTPXxzpVq1ez2HUzq47zVCpaAYBtNziYTF/bgiBzKG+UkznW27ysmetjAlUAAHYvgel2an6eTxeSl04M5fbnH+er4anMlWUujvQnjVrOzw7n7bLMXDmVl2bPPXiKfeNariy0+984M5Avq+bb9bHVx1HRCgB71Mm8Nr6Y367xPb/mP2Gb9UzUarm03F7v+ufrg/7B2l1h2v7n7amiyOmiXdE6XxvNbxZm81bXP4Fv18fuv30AANihBKbbYiG/GS1yanQ6Xw1P5Y2h5ODxk3l+9lxOVRWjt28u5l7af2ycKs7lgySLN+//A6jj9s3FZPBIDiXJ0Im8XLXfWlpYac+hHB7s3gsA2EsOjZzJwPSF1VPxG7WcXxzPu2WZubLM+XT9E3Y2Ob78z9np3DxTZq6cydl8nH9Yf9ixovFZFsdnMleWuVFeziv9ybHJmfx8sP3P2osj/UmznneWzmRu+favPoGlAgAA4OkRmG6Lag3TssyNyaF2U/9ILpZl3h0fzIdX68nhgexLpzK0fbk40l/tv5hbzfYfKR90H3ZhKbeyuv3QkcGV9tzKzYVk4HDnOADA3jKUN6YGcuXa58stt28u5vmTx3Owun7oyODKP2GHT1RT6w/l8OBwjg8lSX8ODSzv/mBDk/lFLjy4cvTWUr6s/il8qijy1uxCbrYHJgBsob6+vjUvANxPYLpDdKbK/Wx6IS+dGcnBocmcH+5UmK5Mc8vQqzk72K5QPX01ebmqGD048mbODrb7r9d+qjiXD6uKVgBgjxp6NWcXp3NloX314OGB9nrplVtLC0/0n6cHRy5nrixz5cjVrpNOVf/creyrlh3qXIxFALZeq9XqbUrWCVIBnnX7Wq3Wvd5Gnqy+vr6UZdnbDGyToijWHTAC7BarxxeNXBq7mZ9eHmlXkjZqOX1uMWdn2tPk52tF3ppt99w3PNWe4dKsZ+La4VycHKpO1HQthy63T+Y0XxvLrVcv55X+Ri5VSwOt7JtcKj7L8XIyh+pj+dl0O5ndl+Gcr04G1bm9743P5OJI/+rbz+Dy/YLtZDzAs2qjgai/YdlrfO6zGQLTLSAwhZ3FFyWwFxhfwOMxHuBZtl5o2nlP+I5hL/K5z2YITLdA95fNqaLo3bwt5nz58QzzRQnsBf6YhcdjPMCzZr2QtKP7/eA7hr3I5z6bITDdAr5sYGfxRQnsBcYX8HiMB3gWdIekvYFot973gu8Y9iKf+2yGkz4BAADAHtJXnbyp1WotX9bzoG0AzyqBKQAAAOxynZC0OyhdS6e69EF9AJ51AlMAAADYhdYKSR8Wgm6kD8CzTmC65Rq5VBSZqDer681cHxvL9c5VAAAAWMejhKQAbI6TPm2B1QtmN3Jp7GoWFwbyWjmZY2nm+tiF5M3LeaW/Z0fgqbDYN7AX3HdCjuaRjI1+Owud68NfpJy8s7L9cTWPZOzaN7n8JI8J22i3jgd6T9bzrNuNz+Gj6H7et+J3vu87BvaA3fq5z/YQmG6B+wPTmzl+8uP8Nm/m4khWBabztSJvzbZ77hueyo3JoaRZz8S1pQzMzuaDJPuGx3N2cTq/WUj2DY7nyuWRHOy+QeCBfFECe0HvH7PN+gu5kIVcHrmb5EBqxYGcKL/I0Kq9HkPjaMZuLlXHh91vt44Het/7z7Ld+hxuRvd6o1vJ64y96Fn4zODJMSV/mxwaOZOB6Qurp+I3ajm/OJ53yzJzZZnzOZdLjWrbbHK8LDNXTuWl2encPFNmrpzJ2XycfzCdHwCeebeW9mfgcBVmNg5kdvBuDiVp1F5MUbyYojiaRtrBZ/v6ixmr70+yP/WxF9JZLahRW/l5Vd+rz3Udf6V9+bgAPBFrTbkHYGsJTLfNUN6YGsiVa58vt9y+uZjnTx5frhY9dGQwizerv1iGT+RYuzWHB4dzfChJ+nNoYHl3AOCZtT83F5PZc1WIeS6ZuryU/uaRXM0XKctPUpZfZKh5JGNX72am/CTlzL8mH/9JmnkuS7mT4/2d43yTw/3VFPxzyVT5ScryDzmZb3JiqLf9k8yMP5er9f29dwiATVgrJBWUAmwfgel2Gno1Zxenc6VabOzg4YF8tXRrefOtpYUMHLawKQDwMM9lKf/aDkI74WiS9C/lTI6mKNpVo83PD2Rh4dsZLV5MMXogJ99cSn/zuSwOfJP2iOO5LKVdmZpb+5PxpWpK/0p78/MDXe0APCohKcDOJTDdVv155czwytWhyZzPuZwqipwqipzPVN7w1wgA8DCrQs/VhiY/STn1TaavHcitpf0ZnuqEqn/ISH8VjB75JknSqB3NbHWc5s3nlo/R3b7agVyb/iZnrGsKsGFCUoCdz0mftoAFs2Fnsdg3sBd0jy9Wn/Cpo7026fRCktzN+MwfMpIjGRv9dtqTW+5kqjNNv2obHr6TnPgik52p913ti0eqEz51tS8f9/4kFXa83Toe2JF/WzRqOXVuNi9PlVta8LGbnsPOyZuyDSdwehQ78nUGj2k3fWaw/QSmW8CXDewsviiBvcD4Ah7Pbh0PPMp7f75W5K3Z9s/7Bsdz5fLI8nkTHsV8rcj5xa7jPKHA9L7jPsROfw53W0ja7VFeZ7DT7fTPDHYWU/IBAAD2pGaujxU5PzuYn8+UmSvL3DizlHfq1Ylln5ShycyVjxeW7hXWJQXYGwSmAAAAe1Hz83y6kDw//mZe6SydMTSZi511NBq15fMnnCqKTHSC1GY9E8VYrtdXtp+uNZYD2Ldmk3sL0/lZUeRSY+U4lxqd261n4kkcdxcRkgLsLQJTAACAPej25x/nyyQDh9dYaLhZz8S52XxvfCZzZZl3xwfz5fRoV1C5kCsfH8m71bbMXs31Zn9euVzm7eH21P5316oqbdYzMTqdgal2RevczHjyJI67A61VTQrA3iAwBQAAeMbc/vzjfJXB/Nnxdph68PjJfC/J4s2V6frPnzyeg0kOHh7IvSzk5q2uA6zn1lK+TPLBuarCdHQ6Xz6J4+4Qa4WkglKAvUdguuM1cqmoZb63GQAA4AEOHh5IesLKrfJyp8K0uiwvA7ALCUkBnj0C0y3XyKWu9XxOj9Vzu7dLl9v1q8nUZI71bgAAAHiQoVfz88Hkq+lrKwUYzXomao37qjt7K04famEpaxaGHjqS7yX58LNHXIR0veNuAyEpwLNrX6vVutfbyJPV19eXsiyra41cKj7L8bIdgs7Xinx+Ynes0QN7RVEUBrw7VF9fX28TPFM289m0enwBbNZuHQ9s/r3fzPWx0fxmoX1tX4Zzvvpb5HZ9LD+brjZUVaFvDK2sQ5rxmXZlaKOWU+dmV7ZX15f3yfrb27c5mLMzl/NKNnnch/yN9DSew+6xyJM+9m6y+dcZ7HxP4zODvUtgugU2FJgeqmfi2lIGZmfz4fBUbkwOrRrA7Kva0lzp90F3e3Wst6pxyfr9x3N2cTq/WWgvqH7l8kgOdu4oPCN8Ue48nT9OPC886zbzXvDHLDye3Toe8N5f8aSeQyHp/bzO2Iue1GcGzwZT8rfFbN6qpuSfz9TKf05nk+NluRx0vrN0ZnnNn/O5muudpYdmF3N4psxcOZOzi1V7o5bzi+0zSrb7n1s5E2V13LlyKi/NTufmmWrffJx/2PrljADWZPAC3gcAW6Uz3d6UewDWIjDdFsN5uwo2O9WhSZLBIznU+fnWUr6cPbe81ulbs11njxw8mR/2J0l/DrXXcc/tm4vLZ5tMkkNHBlcWdx8+Ua2BeiiHB4dzfGj1vgDbqfOHCtDWarUsTwHwFAhJAdgogekOtm94atWZJR+0hs/BwwP5amllefRbSwsZOLzBBdsB9rqvf50f9/Xlx7/+OvloIt/q68tffdTbaW9Z/PWPcrDvR/nbr3u3PEW7/LFd+zH7KH/V15eDE12/VPV73t8XgJ1ISArAZglMd6qhyZzPSoXp6WJsZUr+Wnr6r5rqD7DbdQeej+Jfvswfk/z7734ni//8RfblWJ7/d72dOtYIyDaiuo/f6rpsZ3D49ZfzSY7mu9/p3fL0PLXHdous9Zj9fuKnuXbsV/n7i39RtXyUv/rpe9n3+vu53fq7/OdHfnwf/lj80z/9U/7pn/6ptxmADVirmhQANspJn7aABbNhZ7HY986yoSn5H03kWz99L6+938p/7+RWm7D46x/l//hl8tYfNxBwff3r/PgHv0x+9cf87i8f1rnLqvv4Uf6q76e5ltfz/2tdzJ/39n3qvs7f/ugHeTu/yt//3V9mx6zA8qiP7ZbY4GP2pH6Hhxyne+zw/e9/v3dzYnwBj223jgcs2dFWluV9z2H3Y7Mbn9udxHcMe1HvZwY8iMB0C/iygZ3FF+XOspHAdP3Asx1M/jbJvryeV19/L9fyfm4vVwO2/X6iL//pi3YQ9nXXz/n1j/IffjmfJNl37Ff5+7/+Mv/hp+8t77fv9c6xVm4nSX6wRsi1+j5W4dt8JzBdb/+u+3/s9bya9/K/frLGtp7f7fcTfflPeT2vvvdeu/rx7/4yA6uOdSx/Oj/fFcatfftrH6fbWvv9SzsMrh6b7t/7u3/zdB7b9v38Vd764pc5P5/sy7Gu18JmH6dum3zMvvs3+VbX79D9eKx7+9Xj0Xl+rr3+fm7/+HerjrPyWKzoHTusFZr29gE2Z7eOB7z3VxRFser6bnw+dyqvM/ai3fq5z/YwJR+AHW+tqdKdQOva6+/n31qt/P2vvshv30v+9Hu988G/zj9/keTodzPQ/fPXv874L+fz2vut/Furldt/95cZ+IuL+Z+vt4Ov/9lqrQr0/tev/ph/a/0x548l//h/f5jF3lv5cj459pP86DtJPvqbnJ9P/vRX/2U5LL1//577/5Mv8tv59rIBD/7dqt/hveR053739v9JlpcgWP/+r3Wcbuvt9xc5/XqS936X3380kf/wy/m8+n47JH46j23nfv7fyf9o5d9a7+fVzOftv/noER6nbo/wmPX8Dt3h8bq3f/S77dv9+p/zv5K8+uO/SNZ8LAB4FNYlBeBpEJgCsMN9lBvvJXn9x6untn/0u/y2E0AlGfju0WQ58Ory9Yf5f+arEKv758pvf9q91mgVch37XjpHWfz1f8tvk/zxlz/It/p+kLfnj+Wt/3F/+HbjveTe/C/zH/r68q2fvrdcKbnu/mvc/+X1P9fYls7v1vkdfvVfVh6PNfp3jrXu7a91nC7r7pfkz3/8eu7lvfzH6vf873/R8zhXnsxj+y/5aj7501/9j/uXU1jj986DHqdua+z70Mes93dY4xhZfg1W97vzePzLl/nH5fVd738sAACAnUNgCsDOVlXm9VaOtk8w9HpOV8V5v//de6uuL+s64dOqn7/zl/ldVT342592TijVDrmWqwKrytF9x36V/7dVVUuudaKf6j7+4Fd/zL/98Vf5QfemdfZf6/53qmjX2rZ8vft3qKzVv3Os9W5/reN0W3e/6vbu87Qe2yqUXL6fXa+HtX7vBz1O3dba96GPWScE/clLGVjnGMvXe+539/HXeiwAAICdQ2AKwM72wODri/zz10k+msh/fG/tir3uM7ev/PxR/upHv85ivpP//D/aAWe7KnHtcDbzX+br1S2rrQoLv5t/n+Qff/k3+X1n+7r7P+j+r71t/TPRr90/Wfv21z9OlzX2SzUN/7X3V0+hf1qPbSec/V//3O71+7/5Zf4xr+e/Lq9zuvbvvaHfb519k3XuV294m6x7jFWhcu/x13ssAJ6AZv2FFMXRNHo3NI4ut6/Zp3E0RfFC6s3uRgB4NglMAdjROsHTb3/al2/19eVg30R+n2TgpZ/kTzOf8z/oy8HffS/nj61dsde9tujKz3+R//7XX7anz//gl/nH199vTyuvws4//vIHOTjRnkv+5//lV/nTvJf/2Ffd/o9+fd/6pavDufYan/fyXm58tP7+q+9/8lpW7v+DfrdVa6VWHtR/vdtf6zjd1tzv61/nxz99L/tefz///S++kx/95Fgy/3/n775+eo9te/3azvT4vvyn9zon0nrw7/2w3+9B+653v3pD2AcdY+Cln+QH1eu2d9tajwXAk3JraX8yeDeHetqbN59bbl+zz9AXKcs/ZKS/u7HSOJpi7EhkqQA8K/a1Wq17vY08WavPMNjIpeJcPqiu7ctgzs5czitrDUw2rX3sxfGZXBzpT9LM9bELyZsPOn4jl4rPcryczLHeTbBHOTviztLX1+f5+Ggi3/rpe3nt/VY7XKTydf72Rz/I21nrDPdbb/VZ75+u3rMTf//731+1PWv0ATZnt44HHvze35/62AuZHvgi5eSdNOsvZHR6f5K7GRzcn5z8Qy6PZFWftgOpFUeTqU8yOVQdYyFJ7mZ4OJmd3V/1u5Op8oscWj5uMjj+h1weudu5A1tqtz6Hu8GDX2ewO/nMYDNUmG6HwfG8W5aZK8vcmBrIldFa2vUz62nm+tjD+lQGB5PpaxvrmyQZyhvCUoAt9/uJdvXit7pOEiUs7bV6zdBt8/Wv8+O+vvzH95JX//rph6UAj+65LC0kwyfuJM0juTCdjM98krJcysBCMnD47uo+Hc3nspi7OXIoSeNIphfuZKr8JGX5h0xOLmR8sB2MluUXGWoczej0N5kqP8nM+N0sfPwnKk8B2HMEptttaDJXxhfz23ozadYzURQ5VV1O19qrCs3XRvObhdm8VRSZqBYVul0fu69f28m81jlet3WO3a4w7YSxjVzqbC/Gcr25Ttt6x2rWM1GrrfTvul/ztZX+l6rm9X8HgL3vzy+2TyjUufxueU1OVvxF/vtOeGy+85f5XfU8CbWBHa0r+Gx+fiALg3dyvL8nEO3+uePW/izkmxzuTzJ0J8M5kHPFixmr718OWNtha9L47EBSbR+dTsbfXMq6k9kAYJcSmO4k/SO5WFWezpUzObv4WeaTHJucyc8Hh/N2Wban2jfreWfpTNWvzPlcrcLNtkMjZzIwfWFV23rHXqXxWRbHZ9qVr2U1jX+ttgcda3Yxh2c67dX9atRyPlPL9/eNoXa4+qDfAQAA2Jzm5weWg89bS/uTgW/Sn/2pX/j2cnt3n+X9utY3Te5ksrt6tHEgs7mTE0NJsj83FzvVpu0K1DXXPAWAXU5gukMMHO6sOdqpxBzNlYXeXpVbS/ly9txydeZbswu5eau7w1DemBrIlWufd7Vt4NhDk/lFLqyu+Fyr7UHHGjyZH/YnSX8OVXMWb99czPOr/oW9kd8BAADYjO6TOQ2duJPMHk1RDGZp4O7qEz5VFaJF8ULqze5w9UBqxYspuqtHD93NYA7kXPFC6s27GTlzJwvTL6QoXkxRHI15YgDsRQLT7das553pgRwfStK4lk9Ptqs558qZnB3s7riYW10VmPuGVyo2l6s2uw29mrOL0yth5gOPveLgyOXMlWWuHLm6PP3/vrYNHqvj4OGBfLV0fxr60N8BAADYsKHJT1JerqbID32xXAU6OfmH5fahyU+q9pUK0aHJT6oTQLWrS1dVj/Yv5XL39eXjftJe07T3TgDAHrCv1Wrd623kyVp9hsH2mew/qK7ty3DOL590aWXbvgzm+cGBvHa5vW2+VuSt2eR74zO5ONK/fL19jMGcnbmcV/obuTR2Mz+9PJKDaU+FP31ucWXbmsdu5FLxWY6XkzlUH8vP2qfDXL5fa7W191njWM16Ji4kv6huf742lluvtqfxd9/fl6fa4ejav0P7OjxNzo64s/T19Xk+oEfv2Ym///3vr9qeNfoAm7NbxwMPeu8XxYu9TVuiLD/pbdoSu/U53A0e9DqD3cpnBpshMN0CvmxgZ/FFubMITDdv8dc/yv/xy+StP/5d/vM2nw8pSfLRRL710/fy2vtOivSk9I4dBKbw5O3W8YD3/ord+hzuBl5n7EU+M9gMU/IBYJf5+sv5JEfz3S0IS38/0Zdv9fXlrz7q3dLlLy7m395/Pdd+OpHf927r+PrX+XFfXw72/Sh/+/VyY/72R305OPGggwNsj76+vvT19fU2AwDPAIEpAOwqX+efv0hy7Ht5unnpR/mrvr78x/eSfTmW5/9d7/Yef3Ext1sX8+e97R3/8mX+mORe5vP231QB6dcf5v+ZT/70ew87OMDW6Q5Kt7sSqXNfui8AwNMnMAWAHa8dXn6rry8Hf/R/tUPGn7yUgZ5t3+rry8G+lSrP30/05eDEr/O3P7p/26pjrmpvW/z1f8u119/P/3w9ybGf5EfrprOrj/NXE2tXjC7+8xfZl2P5wbEk7/2ufXv/8mX+Mcfyf7607sEBtszTCiR7A8/NXFqt1n0XAODpE5gCwI72Uf6q76e59vr7+bdWK3//k+SPSf79d7+zsu3Yr/L/tlr5tz/+Kn+a9/KfJj5arkS9994v89Vft/Jv77+ee3kvNz7qOma139//6ouqfcXAX/5dbl/8d+1q1qPfrcLZXj337Vdf5LfvrV0x+vWX88mxn+S//uTY8v1YbB98S5YWAFhPJ5x8kN4gczOX3sBzMxcAYHsITAFgJ/vod/ltkld/3D6b0sB3j65Mke9s++u/bAea3/lu/n1nv2q6+w9+9cflEzGtt9/AX/7dOidr+pd89aAp82vctyyHuas65sZ77arYP3/pJ/lBkmu/+6gKUZ/20gIA69toUNobZG7mstWa9RdSFEfT6N3QOLrc3u7z4vJlrL6/2v5C6s2q79iRNHuPAQDPCIEpAOxg7ansr+d0FWj+/nfvLVdldqa5L68v+vU/53+lCjirNUM74WX3fr//3XurjrmuKhC9PwBtW+u+rXnc6n79++9+J/nOS/k/jyV577/l//tF99ICADvPdoWej+PW0v5k8G4O9bQ3bz633N7u86+ZKT9JWX6SyyN3k6EvUpZ/yEh/0vjsQDLwTfp7jgEAzwqBKQDseF/kn79O8tFE/uN7653w6ev87f/1y/xjXs9//cvv9ISpq08U9Z3vHVs5Zj7KX62x5mi61h198AmfNnDfqrVK28f5Tv7zX7+ee5nPH+fXD2MBtsLDKkEfVoG68+zPzcUsh50rlaQv5MLH+zN48n+nv+rT/rnjQGrFi6k1Vo4xeOSbJPtTH3sxtdrR5ePU610/K0EFYI8SmG6T2/WxnB6r53bvBgDoMvDST/Knmc/5H/Tl4O++l/PHVtYUHfjL/5G3jrW3favvB3k7v8rfV2eq76wZ2j5ZU3tq/cp+f51XO8fs+11OX1xdErr46x/lW319+Q+/nM+9qt+Pf/31qj55yH3rdt9apX/x47zWvUQAwA7wsPB0d3guSwvJ8Ik7SfNILkwn4zOfpCyXMrCQDBy+u9xnYboKU2sHkuZzWczdHDm0cozuvrO5k7L8IsPZn+mllZ+XbvXePgDsDftarda93kaerL6+vpRl2dXSzPWxa7k5MJucKPPGUNcm4KkrimKX/zG0t3TWhgNW9I4dvv/976/anjX6AJuzW8cDD3zvN49kbPRATs78Icc/fyGjH9/JzOWl9He1j6Tr506JaeNoinPJVPlFhppHMja6P2fKLzLUOJri3HMZ791vrWNsg936HO4GD3ydwS7lM4PNUGG6HRrX8unJV/PGieF8+FlnOfZGLhVFTlWXTvXp7frYSlt7jgwAAMB9mp8fyEK+yeH+ap3SgW/Sn/2pX/j2cnt3n+X9utY3bX5+IAudn28+lwzeyfHe/W7tv+8YALCXCEy3wfxni/mz4/3J0Ks5u/hZ5pOk8VkWx2cyV5Z5d3wwL50ZycFmPe8snclcWWauLHM+V3PdOkEAAMAauk/4NHTiTjJ7NEUxmKWBuz0nfFp9UqiVcPUhPw/fyVBPwAoAe5Ep+Vtg9XSGRi4V5/JB1/aXp8q8MbTSvi/DOV9O5lijllPnZrt6dvquagI2yVSMncWUfLhf71RIU/Lhydut4wHv/RW79TncDbzO2It8ZrAZKky3Wlcl6VxZZm5mPIufNXK7fjWZarfdKCdzrOq+b3hqpW8pLAUAAACAp0mF6Rbo/u/cfG0st169nFeW1/tp5FJxNYdnzuTm6Erl6ffGZ3JxpD/ztSJvVUWm+zKYszPd+wKPwn8WdxYVpnC/3soeFabw5O3W8cCD3vtF8WJv01NXlp/0Nm2Z3foc7gYPep3BbuUzg80QmG6BjXzZrA5SG7k0djM/vTySg70dgcfmi3JnEZjC/XrHDgJTePJ263jAe3/Fbn0OdwOvM/Yinxlshin5O8SxEwP5zWiRU0WRU8W55IywFAAAAAC2msB0pxiatFYpAAAAAGwzgSkAAAAAQEVgCgAAAABQcdKnLWDBbNhZLPa9szjpE9yvd+zgpE/w5O3W8YD3/ord+hzuBn19fb1NsOv5vGAzBKZbwKAGdhaD651FYAr36x07CEzhydut4wHv/RW79TkEYOczJX+rNeuZKIqcqi6na43eHpvUyKWilvn7fgYAAAAANktguh0Gx/NuWWauLHNjcqh36yYN5Y1yMsd6mwEAAACATROY7gTNeiZqtVxarjqt5/pY9fNYPbc7fdasTFVVCgAAAABPisB0OyxM52dV8Hmpk3vOJsfLMnPlVF6anc7NM2Xmypmczcf5h2aS/pFcrKpS58qZnF38TEgK7AmtVsuJBaCL9QkBAGB7CUy3Q9eU/Dc6M/KHT1TT6g/l8OBwjg8lSX8ODXR2ai5XnZ4qRnNlodMOsDcITcH7AAAAdoJ9rVbrXm8jT9aqSpFmPRMXkl9cHsnBTodmPRPXDufi5FAVjF7LocvtdUnna2O59erlvHKrlombr+biSH9Pn0YuFZ/leNn7M7AeZ1TduYRFPOvWqyz9/ve/39ukEhUe024dD3jvr9itzyEAO5/AdAvcF5iOTufLatu+wfFceTN552GBaX8jl4pz+SDJvgzm+cGBvCYwhUdicL3z/dM//VNvEzyz1gpL0zu+ADZtt44HvPdX7NbnEICdT2C6BQxqYGcxuN75BKawQmAKT8duHQ9476/Yrc8hADufNUwB2HG+//3vrxsSwbPC+wAAALaHCtMt4L/AsLOoRgD2AuMLeDy7dTzgvb9itz6HAOx8KkwBAAAAACoCUwAAAACAiin5W8C0GdhZTN8C9gLjC3g8u3U80NfX19v0zNqNzx8Au4PAdAv4gwZ2lt36BxJAN+MLeDzGAwDAekzJ33KNXCqKnKoup8fqud3bZcdo5vrYWK43e9sBAAAAYG8SmG6L4bxdlpkry5wfmM77jd7tAAAAAMB2EJjuFM16JrorT2udFHWlIvV00an2vL9tvlbkUrXLfK3IRL0qC23Uln+er61x/GY9E7VaLnW1dfqdLi7k03YvAAAAAHgmCEy3xWzeqoLL85nKG0NJ+kdysao6nStncnbxs8wnSeOzLI7PZK4sc6O8nFf61247dmI4H37WSNLI54uDycef53aS+c8W82fH+5NGLecXx/Nup7I155YD1swmx8syNyaH2v0yVR37TAYWVt9zAAAAANjLBKbbYmVK/o3JoaqtmetjnQrQ0VzpBJVDk/lFLqyuCl2z7URemv0s882byck389rAx/mHZiOfL57MD/uT2zcX8/zJ4zlYHfbQkcEs3qyqUAeP5FDVfvvmYp4/0rl2KIcHqx8BAAAA4BkgMN0pGtfy6cl21ehcOZOzXUHlwZHLmSvLXDlydXl6/f1tQzk+vJjPr32cHO7PsRMD+fTC1SxWIenBwwP5aunW8jFvLS1k4HD/yo1UVve7lZsqTAEAAAB4hghMd4qhExmYHr1v7dDb9bHldUfPTg/ktZH+NduS5NiJgXw4O5DjQ0kOHUkW0p6On3ZV6vmcW95veSmAXkOv5uxiu9/p4rNkuLcDAAAAAOxd+1qt1r3eRp6svr6+lGXZ2wxsk6Io0mq1epsBdhXjC3g8xgMAwHpUmAIAAAAAVASmAAAAAAAVgSkAAAAAQEVgCgAAAABQEZgCAAAAAFQEprBKI5eKWuZ7mwEAAAB4JghMt1wjl4oiE/Vmdb2Z62Njud65+qia9UyM1XO7t33DGrm0av9mro89zeBwjd97+Xd4WGj5sO2P7nb9ajI1mWO9GwAAAAB4JghMt8PgYDJ97akEfrtHf354Mvn085XE9PbnHycnj+dghvJG+aDQ8mHbH93Bkct5Y6i3FQAAAIBnhcB0W5zMa+OL+e1ylemK+VqRU0X7crrWaDc265mo1XJpub2e62PVz6uqQj/OO50+nfaufTvHu10fu/82HmLNfXqqWudrVcXoBm/z4PGTycefV/s38w8fJ392vL+ngrRdkXuqKHK66FSkrq4w3dhj9pD2de4jAAAAAM8Wgek2OTRyJgPTF1ZPSW/Ucn5xPO+WZebKMudzLpc6ud1scrwsM1dO5aXZ6dw8U2aunMnZfJx/6BxjYSCvdfYdmM77PfvemBxKmvW8s3Qmc8u3cXXlPixM52dVYHiqGM2Vhar9QfusZyO32T+S1waq+9/8PJ/mZH7Y33OcxmdZHJ/JXFnmRnk5r9y3/UGP2WIOz1SP02LXfV6rfb37CAAAAMAzRWC6bYbyxtRArlz7fLnl9s3FPH/yeA5W1w8dGczizSq1Gz5RTUE/lMODwzk+lCT9OTSwvHsyeCSHqh9X7dvVnltL+XL23HIl5VuzC7l5q7P/SvA4V87k7OAG9lnPBm/z2ImBfPp5s2s6fo+hyfwiF9at+nzgYzbYCWB7H6c12h9wHwEAAAB4dghMt9PQqzm7OL1cyXnw8EC+WlpJ6W4tLWTgcG9J5cY8aN99w1PLlZRzZbmhNTsfvk8ztxZ721asu//QiQx8fC3vL0/Hv9/BkcuZK8tcOXK162RZ1bYn+Jitex8BAAAAeGYITLdVf145M7xydWgy57NS5Xg+U5sM7VbWMF13357bWFkX9AHW26d/JK8NtKfxny4u5NPe/TrW27+9MccHZvPhWtPxe9YVPTs9kNdGejo99mNWeeB9BAAAAOBZsa/Vat3rbeTJ6uvrS1mWvc3ANimKIq1Wq7c5qd6vHev1AdgJjC/g8TxoPAAAPNtUmAJUwUN3WAoAAAA8mwSmwDNtvaBUxQkAAAA8m0zJ3wKmzMHOUhRFbxPArmR8AY/OlHwAYD0C0y0gMIWdZSOBqT+ggJ3O+AIej8AUAFiPKfnAM6nVavkjCQAAALiPwHSvaNQyUW/2tgIPsV5wuta6pgAAAMDeJzDdco1cKoqcqi6PHnI2cqmoZb5zdWgyry1dW7kObEonOF0rPAUAAACeHQLT7TA4nnfLMnPlVAamHzXkHMob5WSOdbUcm1x9HXg0glMAAAB4dglMd4pmPRNdlaena42V9lptuSp1ub2nwvR2feyB+3ba1uwHAAAAACQC022yMJ2fFUVOFefy4fCJdlVo/0gulmXmyjJz5UzOLn62Unk6u5jDM532q7neO4u/Wc87S2eqfcucT1ef2eR4WebG5NCD+wEAAAAAAtNtsTwlv8z5nKvWMW3m+linwnQ0Vxa6+5/MD/uTpD+HBrraO24t5cvZc8uVo2/NLuTmrWrb4JEc2kg/AAAAAEBgut0OHRls/9C4lk9PzqxUmFbNG7VveGq5cnSuLPPGUG+Pto32AwAAAIBnkcB0OyxPyS9y9uOT+cVIfzJ0IgPTo+21RYsL+bR3nwcZmsz5rFSOni7G1p5qv9F+AAAAAPCM2tdqte71NvJk9fX1pSzL3mZgmxRFkVar1dsMsKsYX8DjMR4AANajwhQAAAAAoCIwBQAAAACoCEwBAAAAACoCUwAAAACAisAUAAAAAKAiMAUAAAAAqAhMt1wjl4oip6rL6bF6bidJs56Jzs9PVM/tFWO53uzt02ud+7hhzVwfa+97qdHIpaKW+aQ6budnAAAAANh5BKbbYjhvl2XmyjLnB6bzfqN3+0Y0c31sg+Hj4HjerW7vxtRAroxuZL/HuI/Nz/Np2rf5xtBQ3ignc6y3DwAAAADsQALTHeXjvNOp6qytJJTzta5qz6p9vjaa3yzM5q2iyES9XTK6Vr/7DE3myvhiflvtc7s+9vB9Opr1TNRqubTqfvTeZiOXRqfz5cJ0zha1zKsqBQAAAGAXEZhui3bQeaoocj5TeWOoal5I/mymzFw5k7OLV9tT5xu1nF9cqRA9n3O51EiOTc7k54PtKtCLI/3r9nugZj3vLJ3J3PI+1W0m69/H2eR4WebG5NA6tzmUN2bG873B8VxRWQoAAADALiMw3RYr091vTHaSyCSDJ/PD/iTpz6GBdtPtm4t5/uTxHKy6HDoymMWb9y9CutF+HQOH+5NbS/ly9txyhehbswu5eavTY737eCSHqh83e5sAAAAAsNMJTHe4g4cH8tXScoqZW0sL7bAzSbKYW1U++eB+XZr1vDM9kONVBrpveGq5wnSuLFcqSTdgw7cJAAAAALuEwHSnG5rM+axUga5Mj+/PoYGF/Ga0WsN03X5JFqbzs846o6NLea0zVb5nn9PFWNeU/A140G0CAAAAwC60r9Vq3ett5Mnq6+tLWZa9zcA2KYoirVartxlgVzG+gMdjPAAArEeFKQAAAABARWAKAAAAAFARmAIAAAAAVASmAAAAAAAVgSkAAAAAQEVgCgAAAABQEZgCAAAAAFT2tVqte72NPFl9fX0py7K3GdgmRVGk1Wr1NgPsKsYX8Hh203igr6+vt4k17JbnE4CdT2C6BfxBAzvLbvoDCWA9xhfweHbTeMD7/eF20/MJwM5nSj4AAAAAQEVgCgAAAABQEZgCAAAAAFQEpgAAAAAAFYEpAAAAG9eo5VRR5FKjdwMA7A0CUwAAgD1kvlbkVNG+nB6r53Zvh02arz2Z4/Ra87hVGHuqKHK6GMv1ZvdGANgaAlMAAIA9oZnrY0XOzw7m5zNl5soyN84s5Z36E04dhyYzV5Z5Y6h3w2Nq1jPx2YnMlWXmZsbzfBZy5cKTD2oB4GEEpgAAAHtB8/N8upA8P/5mXumv2oYmc3GkutJVvXmqKDLRCVKb9UwUY7le76rurDWWA9i3ZpN7C9P5WWcafu+U/GY9E0/iuP0juThZpbD9hzNQHR4AtprAFAAAYA+4/fnH+TLJwOFOWtqlWc/Eudl8b3wmc2WZd8cH8+X0aNc6pAu58vGRvFtty+zVXG/255XLZd4eTvYNjufdtapKm/VMjE5nYKpd0To3M548kePezGKS508ez8GeTQDwtAlMAQAA9rjbn3+crzKYPzveDlMPHj+Z7yVZvLkyXb8TTh48PJB7WcjNW10HWM+tpXyZ5INzVYXp6HS+fOzjNnJpdDpfDY7nF53qWADYQgJTAACAPeDg4fYk9u6wcqu83KkwrS7LywBsWjPXx87lwwzn/OUR1aUAbAuBKQAAQI++vr7ly64x9Gp+Pph8NX0t8522Zj0TtcZ91Z29FacPtbCUNQtDDx3J95J8+NnyHPzNWXXcZq6PjebKwnDOl5M5tqojAGwdgSkAAPBM6g5Fey+7U39euTyTs4OzeatzkqXRpbw2OZQMTebd8cHlqfM/m17IS1OXV04O9QDHTgznXtrHXFmbtNI/kotTw7k3e27lxE7FWK5voMj1vuM2ruU3C1lu28yxAOBJ2tdqte71NvJk9fX1pSzL3mZgmxRFkVar1dsMsKsYX8DjKYqit2lNO2HM4P3+cMZ3ADxJKkwBAIBn0oMCtlar9cDtAMDeJTAFAACeWeuFort7aj4A8DgEpgAAwDNtrdC0U2EqOAWAZ4/AFAAAeOatFZpmjeBUeAoAe5+TPm0Bi7TDzuKkAMBeYHwBj2e98UAnEF1rW8dG+jxJQtqN2arnA4C9T2C6BfxBAzvLen8gAewmxhfweB40Hujr61t3W7etCk693x/uQc8nAGyWKfkAAABdNhq8ma4PAHuTwBQAAOAxdILT7vAUANi9BKYAAABPyFYHp836CymKo2n0bmgcXW5fs0/jaIrihdSb3Y0AQASmAAAAT15vcPq0wtNbS/uTwbs51NPevPnccvuafYa+SFn+ISP93Y2VxtEUY0ciSwXgWSUwBQAAeEqe7nT9/bm5mGTgm/QvV5K+mKJ4IRc+3p/Bk/87/T192g6kVryYWqN9jPrYi8v71WovpDh3IFn4dkZXVai2+4zV93ffAQDYkwSmAAAAW+DJB6fPZWkhGT5xJ2keyYXpZHzmk5TlUgYWkoHDd1f36Wg+l8XczZFDSRpHMr1wJ1PlJynLP2RyciHjg8ng+B9Sll9kqHE0o9PfZKr8JDPjd7Pw8Z+oPAVgz9vXarXu9TbyZPX19aUsy95mYJsURbHhs98C7FTGF/B4dsJ4oDs0fdB9Wff93jySsdEDOTnzhxz//IWMfnwnM5eX0t/VPpKunzslpo2jKc4lU+UXGcqB1IqjmU07JL088lxqxdFk6pNMDiWN2os5N9u5wbsZ7z7ODrITns+95MkE+rDz+JxgowSmW2DdAQ6wLQyogb3A+AIez04bD3QCqrXu03rv92b9har684uk9mLO5YuUk9+kPvZCVTX6RQ519Rnq3q8Trva2ndmf0eUwdX/qYy/k45N/yOWRu123vPPstOdzt1vvNQe7mc8JNsOUfAAAgG32KNP1u0/mNHTiTjJ7NEUxmKWBu6tP+JQDOVetUVpvVm0D36S/Wsu0KF7M6HQy/uZS+g/dzWAO5FzxQurNuxk5cycL0501TNtrmgLAXqfCdAv47xzsLP6zCOwFxhfweHb6eKA3NPV+f7Cd/nzuNr5j2It8TrAZKkwBAAB2mE7FqT/uAWDrqTDdAv47BzuL/ywCe4HxBTye3TQeWO/9XhQv9jZtmbL8pLdpW+2m53M3WO81B7uZzwk2Q2C6BXzZwM7iixLYC4wv4PHspvGA9/vD7abnczfwmnt6btfHcnY6OTtzOa90zrrWq1HLqXOzeXmqzBuds7Xx2HxOsBmm5AMAAAA8AbfrYzlVFDlVFDld6zlNWrOedx4WlgI7gsAUAAAA4HE1avnZ9EJeniozV5a5cuSzXG92be8fycVyA2Hp0GTmStWlsJ0EpgAAAACP6fbNxVXXD45MroSjzXomqsrTU0WRiXonSW3kUlHkUq220t5o/3ypU6C67r7A0yIwBQAA2AOexkmgGrUXU9QO9DYDazg4ciYvJ/ngXJHTxdhKdWmznonR6QxUladzM+PJ9OhKIJrkw9nk7bLMxZGe8tMN7As8eQJTAACAPapZfyFFcTT3ZSuNoyvtzSMZK15MUbyYonghy8VrzSO5OnsnU5N3Vu/b0Ti6uj8884byRlnm3fHB3MtCfjNaVYPeWsqXVZB6qihyanQ6XyZZvLny5nl+/NUcW3Wsygb2BZ48gSkAAMAedWtpfzJ4N4d62ps3n6va96d+4dtZGP4iZflJyvIPWS5w61/K5fKLrLuM4tAXq/sDSZKDI5czV07l5SRfLd1abu+sbdq53FdN+gCPsy+weQJTAACAPWl/bi4mGfgm/cvVpu0q0gsf78/gyf+d/jyXpYUki8+lu15tpe+LGavvT3IgteKF1GqditUDqRUvpnMS8Pv7w7Pndn2sa93Rm1lM8vyRQ8mhI/lekg8/u6/W++EeZ1/gkQlMAQAA9qR2GDp84k7SPJIL08n4zCcpy6UMLCQDh+8muZPJqTvJwrcz2ple3zia0elvMlV+kpnxu1n4+E/SbD6XxezP4pGFlOUXGWo+l8XczZFD6/TvvSvwDDg4cibpmjr/1fBUuxK0fyQXp4Zzb/bc8ombVq1x+iCPsy/wyPa1Wq17vY08WX19fSnLsrcZ2CZFUaTVavU2A+wqxhfweHbTeGCj7/eieDFl+clKQ/NIxkYP5OTMH3L88xcy+vGdzFxeSn9X+8qs3v2pj72Q6YEvMpWjOTfbab+b8Zk/ZOTW0RTnkqnOFP3GyvXUXry//xbPFt5Nz+dusNHXHOwmPifYDBWmAAAAe1Dz8wNZyDc53F+tZTrwTfo7a5bmmxzu35/6WOeEUNXU/DyXm4vJ4PgfVq1purLmaXXsrjVQ1+oPALuZwBQAAGAP6j7h09CJO8ns0RTFYJYG7naFnwdyrngxRXE0s8NfpJxcysiZO1mY7qxJ2g5UVwLXrmMPfJP+3F2zPwDsZqbkbwHTGWBnMRUD2AuML+Dx7KbxwEbf7/dNyX+G7KbnczfY6GsOdhOfE2yGwHQL+LKBncUXJbAXGF/A49lN44GNvt97A9OieHHV9q201cHtbno+d4ONvuZgN/E5wWYITLeALxvYWXxRAnuB8QU8nt00Htjo+703MH2W7Kbnczfo6+vrbYI9wecEGyUw3QIbHeAAW8OAGtgLjC/g8eym8cBG3+8C093xfO4GG33NwW7ic4LNcNInAAAAAICKwBQAAAAAoCIwBQAAAJ6SRi4VRS41etsBdi6BKQAAwF7VPJKx4sUUxYspihdSb/Z26NI4+vA+PHua9UwUY7l+3+uiOwht5vpYkVNF+9Idjs7XzmVxfCZvDHXt2q1Ry+k1jw+wfQSmAAAAe9L+1C98OwvDX6QsP0lZ/iEj/b19ugx98fA+sIbb9Qu5sjCct8syc2W5Khw9Nlnm4oNeVEOTuVFezisP6AKw1QSmAAAAe9JzWVpIsvhcuov3mvUXqorTFzM29kKK2oEkB1IrXkytkXbQOtZTldo4urzPShVqu1+t1tmmOnXvW6kkPT12NYtdW+5lNr/teQHM11aqTk+3X1ztitKxWi6NFTk9Vs/tngrWNfcB2GICUwAAgD3pTian7iQL385oJ8xsHsmF6WR85pOU5RcZWNifwSPfJM3nspi7OXIoSeNIphfuZKpTlZojGTt3IMNT7evjg/szfe3AciA7mzspyy8ynP1ZutV7H9hTGteWK0lvnBnIl1XzwZHLeXs4+XJ6dGV6faOW87OdqtOpvDR7bnmq/r2F2eRMmRuXR3Jw1fHX3wdgKwlMAQAA9qpqmn0n5Gx+fiALg3dyvD9VSJoMHL6b3NqfhXyTw/1Jhu5kOAdyrngxY/X9aVz7dhYG/zWv9q5B2TiQ2dzN+Kt3Vgeu7Fm3by4mg0dyKEmGTuTlrm3HJsvMlTM5O7iQK9cauX1zMfcym7eKIqeKc/kgyeLNdhnpvgzm8BqvlQftA7CVBKYAAAB7zv7Ux46mXZxXTc1PcmtpfzLwTfqTdhCaOzkxlDRvPpcM3m0HYbmTyfKTzIzfzcLHf5Kb3YdtHMn0QjJ84k61TxW+dgeu7G0LS7mVJI3P8kHVNF+7/6RNBw8PZF9W1jWdKx+ylukj7gPwNAhMAQAA9qR2lWhRHM3s8BcpJ+9k6MSdZLa95ujVxbvLIelKkNpey7QoXszodDL+5lJGXv3XDC58O6PFiymqqfmTQ6vD19WBK3vVwZE3c3awXQF6+mry8mC7/dirJ/PpaJFTxWiuLAzn/ORQMjSZ88OdatFiZar+gzzKPgBPwb5Wq3Wvt5Enq6+vL2VZ9jYD26QoirRard5mgF3F+AIez24aD2z0/V4UL6YsP+ltfiYURbHq+m55bneqjb7mYDfZTZ/7bD+B6RbwZQM7iy9KYC8wvoDHs5vGAxt9v/cGpkXx4qrtW2mrg9ve57Ovr2/V9t3yXO8U3a+5Uz1h9HaY28DrHx6m93MCHkRgugU2OsABtoYvSmAvML6Ax7ObxgMbfb/3BqbPkoc9n90B6oP60bbR1xzsJg/7nIBu1jAFAABgT2u1WsuXvr6+5QsArEVgCgAAwDNDeArAwwhMAQAAeCYJTwFYi8AUAACAZ57wFIAOgSkAAMBe1Tiaonhx5VI70NtjReNoiuKF1Ju9GzaocTRFcTSN3vZdaL3w9NkMUJu5PlbkVNG+XFrvCW7UcroYy/VHff0A7CACUwAAgD2q8dmBZPBfM1N+krL8JOXknd4uK4a+SFn+ISP9vRs2pnnzuWTwbg71btjlusPT3gD1WXC7fiFXFobzdllmrizzxlBvj8rQZG6Ul/PKI75+AHYSgSkAAMCetD83F5MMfJOVDOtAasWLGRt7YbnqtNZYaW//vD/1sU5ValVxuqpSdaUKtVnvHOeFXPh4fwZP/u/0r2p/MWP1/cu3vhc8i+Hpvczmt12lx7frY8sVp6eLWuaTpFnPRKfCtFnPRLV9otpvvrZSpXp6rJ7bqapSx2q5VFWwLrcDbDOBKQAAwJ70XJYWksxWYWftQNJ8LotJcnIhZflJpoaT2c867Xdz5FCSxpFML9zJVPlJu+I0RzJ27kCGp9rXxwf3Z/ragaR5JBemk/GZT1KWSxlYSAYO300aRzM6/U2myk8yM343Cx//SfbqLO1nITw9OHI5bw8nX06PLk+5PzhyOXNlmblyKi9lNp/3TNO//fnH+Wp4KnNlmYsj/bldH8v52U6V6lReWpjOO1WQem9hNjlTZm5mPM8vTOf99ab8A2whgSkAAMBeVIWg7UCzmo5/a38WcidnRu4uV6AOHvmmav8mh/uTDN3JcA7kXFUd2rj27SwM/mte7ZmK3fz8QBYG7+R4/8ptHTlULQNQ7T86nYy/udRV4bp37eXw9NhkmblyJmcHF3LlWiNp1Kpq0XP5IMnizdWR+MHjJ/P87LnlNU9vLS0kg0eq5RoO5fDgSt99Gc7xoST9hzOw0gywrQSmAAAAe1F3CFpZtc5o40imF+7m5PG7PeuP3slkV3XozZXdq32S4RN3cmtpfzXdf3/qF75d3VYVwo7/oR3SPsaaqLvZXgpP52v3n8hp/rPZ7Bueylw5lZdXb2rrH8nFssy744P58Go9OTKYLCzlVpLkVm4uJAPdL0yAHUZgCgAAsAd1V3p21hK9tbQ/Wfh2RosXU5w7kOGpdqC5En621zItuqpDR1791wyu2ueTTA4lQyfuVNP9B7M0cLcKXO9m5MydLEx31jA9mmd9hvV64eluCVCPvXoyn44WOVWM5srCcM5PDuXYieHcmz2X08XVLHZVi3Z01iv92fRCXjozkmMjb+bs4GzeqqpSPxyeWv/kUQA7wL5Wq3Wvt5Enq6+vL2VZ9jYD26QoirRard5mgF3F+AIez24aD2z0/V4UL6YsP+lt7nIgteJoFsf/kMsjd3s37mq76fns1h2a7qT7v9HXHOwmu/Vzgu0hMN0CvmxgZ/FFCewFxhfweHbTeGCj7/fewLQoXly1fTs9OMh9fLvp+VzPTgpPu19zp4qid/NTN7eB1zts1l74nGDrCEy3wEYHOMDW8EUJ7AXGF/B4dtN4YKPv997A9Fmym57Pjdju8HSjrznYTfba5wRPlzVMAQAA9oBnNSzdi1rrrHsKwNYQmAIAAMAOJTwF2HoCUwAAANgF1gtPNxugbrY/wLNGYAoAAAC7THd42hugbsRG+wE8iwSmAAAAsMs9Snj6sO1JkkYtp4pi+XJ6rJ7bvX06GrWcLsZyvdm7YaMauVQUudTobQfYWgJTAAAA2EM2E56u195tXwbz85kyc2WZG5dHcrC3Q8fQZG6Ul/NKf+8GgN1FYAoAAAB71Frhaa+12h6oUcvpsVoujVVVp0Ut80nSrGeiU2HarGeiqkqdqLdLTudra1WqNnO9c5yxq1nsuplV/WvKToGtIzAFAACAZ0AnOF3Lg0LTe1nIb0ZXh5/3FmaTM2Xmyqm8lNn8tmrvuP35x/lqeCpzZZmLI/25XR/L+dnhvF1W+yxM5516M2lcy5WFdvuNMwP5snOARm11/9lzpuoDW0ZgCgAAAM+IBwWj623rnpJ/caQ9335fhnN8KEkO5fBg7x7JweMn8/zsuZyq1iS9tbSQDB7JoWTVPrdvLq60D53Iy9X+t28u5l5m81ZR5FRxLh8kWbz5yIujAmyKwBQAAACeAesFot020idJ7mU2nzeS5FZuLvRuTdI/kotlmXfHB/Ph1XpyZDBZWMqtZHmfgcPVYqed9sZn+aDa/eDhgexLp8J0dVgL8LQJTAEAAGCP6w5Cu9c1XevSq3tKfmft0X0ZzOLVdvXnh4Pj+UVPmNlZf/Rn0wt56cxIjo28mbODKxWjHw5P5Y2h5GBX++mrycudatWhyZwf7vQvcrqzNirAFtjXarXu9TbyZPX19aUsy95mYJsURbHmQBBgNzG+gMezm8YD3u8Pt5uez93goa+5Ri2nzyXny8kc690GO5TPCTZDYLoFHvplA2wpX5TAXmB8AY9nN40HvN8fbjc9n7tB92vuVFH0bs6+rp+3OlCY817gEfmcYDMEplvAAAd2Fl+UwF5gfAGPZzeNB7zfH243PZ+7gdcce5HPCTbDGqYAAAAAABWBKQAAAABARWAKAAAAAFARmAIAAAAAVASmAAAAwDoauVQUOVVdTtcavR02plnPxKPuC7DF9rVarXu9jTxZzjAIO4uzIwJ7gfEFPJ7dNB7o6+vrbaLHbnkud4vV3zGNXBq7mZ9eHsnBNHN97ELy5uW80t+z08M065m4djgXJ4d6t8CW2E2f+2w/gekW8AcN7Cy+KIG9wPgCHo/xAKxvQ4Fp6pkYnc6XVa99w1O5MTlUBaNLGZidzQf3tR/OxclDuT42mk9PzuTiyK1cKs61+2UwZ2ceIYiFDfK5z2aYkg8AAACsb2E6PyuKnC66qkv7R3KxLDNXlpkrZ3J28bPMd/rPLubwTKf9aq43Vw41XxvNzTNlLo70J43Psjg+k7myzI1SWArsHAJTAAAAYH2D43m3LHNlPLlyrbMOaTPXxzprm47mykJ3/5P5YX+S9OfQQFf77Lmcnx3O8c6s/KHJ/CIXHm9tVICnQGAKAAAAPNTBkTdXKkYb1/LpyXZ16Fw5k7ODvb3XMDyVG1PJ+bF6bldNB0cuZ64sc+XI1UzUu0pRAbaRNUy3gEXaYWexbg2wF1jDFB6PtexgfeuvYZrcro/lnbx53/qjzw8O5LXLkznWrGfiQvKLqv98bSy3Xq3WPK1O+nS7PpazS2dy5cjV/Gy6XZq6L8M5X07m2Kp7Ak+Oz302Q2AKALALCUzh8fjDGdbnO4a9yOc+m2FKPgAAAABARWAKAAAAAFARmAIAAAAAVASmAAAAAAAVgSkAAAAAQEVgCgAAAABQEZgCAAAA62jkUlHkVHU5PVbP7eX2WuZ7uz+yntupNXo7bEyznolH3RegIjAFAAAAHmA4b5dl5soy5wem8/7TyiMHx/NuWWaunMnZxau53uztALA1BKYAAADAo2vWM7FOdeh8baX9UtV8uz62Zt81rXfsZj0TtdpyVer9x2nm+liRibrUFdg8gSkAAADwALN5qwomz2cqbwz1bO4fycWqArVdHfpZe6p+o5bzmaray/Z+zXreWTqz3HY+XZWkC9P5WVHkdHEhefNyXul/wLGTZHYxh2fWrkidr43m5pkyF0f6VxoBNkhgCgAAADzAypT8G5O9aWmWqznbVaCjubLQbr19czHPHzm0uuutpXw5e265YvSt2YXcvFVtq6bkXxlPrlzrVIyufex2/5P5YX+S9OfQQFf77Lmcnx3O8bXuKsAGCEwBAACAR9e4lk9PzqxUgQ62mw8eHshXS500dMW+4ZWq0+XK0y4HR95cqRhd59gPNDyVG1PJ+eUTVAFsjsAUAAAAeHRDJzIwPdpeS7S4kE+X2ydzPivVpJca97edLsbWOLlTf354Mvn08+b6x36YoclcOflxzt63tinAw+1rtVr3ehsBANjZ+vr6UpZlbzOwQUVRpNVq9TYDvmPYo3zusxkqTAEAAAAAKgJTAAAAAICKwBQAAAAAoCIwBQAAAACoCEwBAAAAACr7Wq3Wvd5GAAB2tr6+vt4mYBOcKRnW19fXl7Ise5thVyuKwmc/GyYwBQAAAJatDkwbuVScywfVtX0ZzNmZy3mlv2uHJ61Zz8TodL6sru4bnsqNyaGeTh2NXCo+y/FyMsd6N21YM9fHLiRvPuXfi20lMGUzTMkHAAAA1jc4nnfLMnNlmRtTA7kyWst8b58nrfs21w1Lk2QobzxWWApwP4EpAAAAsDFDk7kyvpjf1pvtStCxem5Xm+ZrY7nerCpEa7VcKoqcrjWSJLfrYzlVFDnV1fag9vt0HfNUUeT08u02cqnoBLiNle1FdV+SzNfabb230Wk/XVzIp8utm7hPwJ4lMAUAAACerNnkeKc6tFnPO0tnMldVjJ7P1eVgdc32JFmYzs+q0PJSJ7OsjjlXljk/MJ33e7PMxmdZHJ9pV6WW1fT6Ri3nF1eqVc/nXPt4jVrOZ6rqeyYDC9UxHnSfgGeGwBQAAADYlIHDD1nsc/BIDnV+vrWUL2fPLVdtvjW7kJu3HtCe1VPy3+jMyO865qEjg1m82ZNkDk3mF7mwqjL09s3FPH/yeA5WXTr73b65mOePLB8thwerHx90n4BnhsAUAAAA2JhmPe9MD+T4fcuKNnNrsbdtxb7hdjVn59IJQddrf5hbSwtrhrYHRy5nrixz5cjVTNSbOXh4IF8trSSenf1Wt9/KzU6F6WPcJ2DvEJgCAAAA6+uaHn96dCmvdU6y1D+S1wba23rXAV1laDLns1K1uby+6Hrt6bnNznqlXW3nM3VfkNm99ujZ6YG8NtJ/320s7zf0as4utttPF58lw9VBHnSfgGfGvlarda+3EQAAAHg29fX1pSzL3ubt1axn4kLyi8sjy9PrYTOKokir1epthjWpMAUAAAAAqAhMAQAAgJ2tfyQXVZcCW0RgCgAAAABQEZgCAAAAAFQEpgAAAAAAFYEpAAAAAEBFYAoAAAAAUBGYAgAAAABUBKYAAAAAABWBKQAAAABARWAKAAAAAFARmAIAAAAAVASmAAAAAAAVgSkAAAAAQEVgCgAAAABQEZgCAAAAAFQEpgAAAAAAFYEpAAAAAEBFYAoAAAAAUBGYAgAAAABUBKYAAAAAABWBKQAAAABARWAKAAAAAFARmAIAAAAAVASmAAAAAAAVgSkAAAAAQEVgCgAAAABQEZgCAAAAAFQEpgAAAAAAFYEpAAAAAEBFYAoAAAAAUBGYAgAAAABUBKYAAAAAABWBKQAAAABARWAKAAAAAFARmAIAAAAAVASmAAAAAAAVgSkAAAAAQEVgCgAAAABQEZgCAAAAAFQEpgAAAAAAFYEpAAAAAEBFYAoAAAAAUBGYAgAAAABUBKYAAAAAABWBKQAAAABARWAKAAAAAFARmAIAAAAAVASmAAAAAAAVgSkAAAAAQEVgCgAAAABQEZgCAAAAAFQEpgAAAAAAFYEpAAAAAEBFYAoAAAAAUBGYAgAAAABUBKYAAAAAABWBKQAAAABARWAKAAAAAFARmAIAAAAAVASmAAAAAAAVgSkAAAAAQEVgCgAAAABQEZgCAAAAAFQEpgAAAAAAFYEpAAAAAEBFYAoAAAAAUBGYAgAAAABUBKYAAAAAABWBKQAAAABARWAKAAAAAFARmAIAAAAAVASmAAAAAAAVgSkAAAAAQEVgCgAAAABQEZgCAAAAAFQEpgAAAAAAFYEpAAAAAEBlX6vVutfbCAAAADyb+vr6eptg12u1Wr1NsC6BKQAAAABAxZR8AAAAAICKwBQAAAAAoCIwBQAAAACoCEwBAAAAACoCUwAAAACAisAUAAAAAKAiMAUAAAAAqAhMAQAAAAAqAlMAAAAAgIrAFAAAAACgIjAFAAAAAKgITAEAAAAAKgJTAAAAAICKwBQAAAAAoCIwBQAAAACoCEwBAAAAACoCUwAAAACAisAUAAAAAKAiMAUAAAAAqAhMAQAAAAAqAlMAAAAAgIrAFAAAAACgIjAFAAAAAKgITAEAAAAAKgJTAAAAAICKwBQAAAAAoCIwBQAAAACoCEwBAAAAACoCUwAAAACAisAUAAAAAKAiMAUAAAAAqAhMAQAAAAAqAlMAAAAAgIrAFAAAAACgIjAFAAAAAKgITAEAAAAAKgJTAAAAAICKwBQAAAAAoCIwBQAAAACoCEwBAAAAACoCUwAAAACAisAUAAAAAKAiMAUAAAAAqAhMAQAAAAAqAlMAAAAAgIrAFAAAAACgIjAFAAAAAKgITAEAAAAAKgJTAAAAAICKwBQAAAAAoCIwBQAAAACoCEwBAAAAACoCUwAAAACAisAUAAAAAKAiMAUAAAAAqAhMAQAAAAAqAlMAAAAAgIrAFAAAAACgIjAFAAAAAKgITAEAAAAAKgJTAAAAAICKwBQAAAAAoCIwBQAAAACoCEwBAAAAACoCUwAAAACAisAUAAAAAKAiMAUAAAAAqAhMAQAAAAAqAlMAAAAAgIrAFAAAAACgIjAFAAAAAKgITAEAAAAAKgJTAAAAAICKwBQAAAAAoCIwBQAAAACoCEwBAAAAACoCUwAAAACAisAUAAAAAKAiMAUAAAAAqAhMAQAAAAAqAlMAAAAAgIrAFAAAAACgIjAFAAAAAKgITAEAAAAAKgJTAAAAAICKwBQAAAAAoCIwBQAAAACoCEwBAAAAACoCUwAAAACAisAUAAAAAKAiMAUAAAAAqAhMAQAAAAAqAlMAAAAAgIrAFAAAAACgIjAFAAAAAKgITAEAAAAAKgJTAAAAAICKwBQAAAAAoCIwBQAAAACoCEwBAAAAACoCUwAAAACAisAUAAAAAKAiMAUAAAAAqAhMAQAAAAAqAlMAAAAAgIrAFAAAAACgIjAFAAAAAKgITAEAAAAAKgJTAAAAAICKwBQAAAAAoCIwBQAAAACoCEwBAAAAACoCUwAAAACAisAUAAAAAKAiMAUAAAAAqAhMAQAAAAAqAlMAAAAAgIrAFAAAAACgIjAFAAAAAKgITAEAAAAAKgJTAAAAAICKwBQAAAAAoCIwBQAAAACoCEwBAAAAACoCUwAAAACAisAUAAAAAKAiMAUAAAAAqAhMAQAAAAAqAlMAAAAAgIrAFAAAAACgIjAFAAAAAKgITAEAAAAAKgJTAAAAAICKwBQAAAAAoCIwBQAAAACoCEwBAAAAACoCUwAAAACAisAUAAAAAKAiMAUAAAAAqAhMAQAAAAAqAlMAAAAAgIrAFAAAAACgIjAFAAAAAKgITAEAAAAAKgJTAAAAAICKwBQAAAAAoCIwBQAAAACoCEwBAAAAACoCUwAAAACAisAUAAAAAKAiMAUAAAAAqAhMAQAAAAAqAlMAAAAAgIrAFAAAAACgIjAFAAAAAKgITAEAAAAAKgJTAAAAAICKwBQAAAAAoCIwBQAAAACoCEwBAAAAACoCUwAAAACAisAUAAAAAKAiMAUAAAAAqAhMAQAAAAAq/3/9PkkX6dLAcQAAAABJRU5ErkJggg==;" parent="1" vertex="1">
          <mxGeometry x="2481" y="976" width="560" height="282.48" as="geometry" />
        </mxCell>
        <mxCell id="na_QI1Uw0CQ7Xyxdx3C9-1" value="&lt;div&gt;RouteUser&lt;/div&gt;" style="swimlane;fontStyle=1;align=center;verticalAlign=top;childLayout=stackLayout;horizontal=1;startSize=26;horizontalStack=0;resizeParent=1;resizeParentMax=0;resizeLast=0;collapsible=1;marginBottom=0;whiteSpace=wrap;html=1;" parent="1" vertex="1">
          <mxGeometry x="982.56" y="585" width="190" height="580" as="geometry" />
        </mxCell>
        <mxCell id="na_QI1Uw0CQ7Xyxdx3C9-2" value="&lt;div style=&quot;color: rgb(204, 204, 204); background-color: rgb(31, 31, 31); font-family: Consolas, &amp;quot;Courier New&amp;quot;, monospace; font-size: 14px; line-height: 19px; white-space: pre;&quot;&gt;&lt;span style=&quot;color: #4fc1ff;&quot;&gt;JWT_SECRET&lt;/span&gt;&lt;/div&gt;" style="text;strokeColor=none;fillColor=none;align=left;verticalAlign=top;spacingLeft=4;spacingRight=4;overflow=hidden;rotatable=0;points=[[0,0.5],[1,0.5]];portConstraint=eastwest;whiteSpace=wrap;html=1;" parent="na_QI1Uw0CQ7Xyxdx3C9-1" vertex="1">
          <mxGeometry y="26" width="190" height="26" as="geometry" />
        </mxCell>
        <mxCell id="na_QI1Uw0CQ7Xyxdx3C9-3" value="" style="line;strokeWidth=1;fillColor=none;align=left;verticalAlign=middle;spacingTop=-1;spacingLeft=3;spacingRight=3;rotatable=0;labelPosition=right;points=[];portConstraint=eastwest;strokeColor=inherit;" parent="na_QI1Uw0CQ7Xyxdx3C9-1" vertex="1">
          <mxGeometry y="52" width="190" height="8" as="geometry" />
        </mxCell>
        <mxCell id="na_QI1Uw0CQ7Xyxdx3C9-4" value="&lt;div style=&quot;color: rgb(204, 204, 204); background-color: rgb(31, 31, 31); font-family: Consolas, &amp;quot;Courier New&amp;quot;, monospace; font-size: 14px; line-height: 19px; white-space: pre;&quot;&gt;&lt;span style=&quot;color: rgb(220, 220, 170);&quot;&gt;+verifyToken()&lt;/span&gt;&lt;br&gt;&lt;/div&gt;" style="text;strokeColor=none;fillColor=none;align=left;verticalAlign=top;spacingLeft=4;spacingRight=4;overflow=hidden;rotatable=0;points=[[0,0.5],[1,0.5]];portConstraint=eastwest;whiteSpace=wrap;html=1;" parent="na_QI1Uw0CQ7Xyxdx3C9-1" vertex="1">
          <mxGeometry y="60" width="190" height="26" as="geometry" />
        </mxCell>
        <mxCell id="AO8-OC1Z0KCrfWPKQw---7" value="&lt;div style=&quot;color: rgb(204, 204, 204); background-color: rgb(31, 31, 31); font-family: Consolas, &amp;quot;Courier New&amp;quot;, monospace; font-size: 14px; line-height: 19px; white-space: pre;&quot;&gt;&lt;div style=&quot;line-height: 19px;&quot;&gt;&lt;span style=&quot;color: #ce9178;&quot;&gt;/inscription&lt;/span&gt;&lt;/div&gt;&lt;/div&gt;" style="text;strokeColor=none;fillColor=none;align=left;verticalAlign=top;spacingLeft=4;spacingRight=4;overflow=hidden;rotatable=0;points=[[0,0.5],[1,0.5]];portConstraint=eastwest;whiteSpace=wrap;html=1;" parent="na_QI1Uw0CQ7Xyxdx3C9-1" vertex="1">
          <mxGeometry y="86" width="190" height="26" as="geometry" />
        </mxCell>
        <mxCell id="AO8-OC1Z0KCrfWPKQw---8" value="&lt;div style=&quot;color: rgb(204, 204, 204); background-color: rgb(31, 31, 31); font-family: Consolas, &amp;quot;Courier New&amp;quot;, monospace; font-size: 14px; line-height: 19px; white-space: pre;&quot;&gt;&lt;div style=&quot;line-height: 19px;&quot;&gt;&lt;span style=&quot;color: #ce9178;&quot;&gt;/connexion&lt;/span&gt;&lt;/div&gt;&lt;/div&gt;" style="text;strokeColor=none;fillColor=none;align=left;verticalAlign=top;spacingLeft=4;spacingRight=4;overflow=hidden;rotatable=0;points=[[0,0.5],[1,0.5]];portConstraint=eastwest;whiteSpace=wrap;html=1;" parent="na_QI1Uw0CQ7Xyxdx3C9-1" vertex="1">
          <mxGeometry y="112" width="190" height="26" as="geometry" />
        </mxCell>
        <mxCell id="AO8-OC1Z0KCrfWPKQw---9" value="&lt;div style=&quot;color: rgb(204, 204, 204); background-color: rgb(31, 31, 31); font-family: Consolas, &amp;quot;Courier New&amp;quot;, monospace; font-size: 14px; line-height: 19px; white-space: pre;&quot;&gt;&lt;div style=&quot;line-height: 19px;&quot;&gt;&lt;span style=&quot;color: #ce9178;&quot;&gt;/connexion&lt;/span&gt;&lt;/div&gt;&lt;/div&gt;" style="text;strokeColor=none;fillColor=none;align=left;verticalAlign=top;spacingLeft=4;spacingRight=4;overflow=hidden;rotatable=0;points=[[0,0.5],[1,0.5]];portConstraint=eastwest;whiteSpace=wrap;html=1;" parent="na_QI1Uw0CQ7Xyxdx3C9-1" vertex="1">
          <mxGeometry y="138" width="190" height="26" as="geometry" />
        </mxCell>
        <mxCell id="AO8-OC1Z0KCrfWPKQw---10" value="&lt;div style=&quot;color: rgb(204, 204, 204); background-color: rgb(31, 31, 31); font-family: Consolas, &amp;quot;Courier New&amp;quot;, monospace; font-size: 14px; line-height: 19px; white-space: pre;&quot;&gt;&lt;div style=&quot;line-height: 19px;&quot;&gt;&lt;div style=&quot;line-height: 19px;&quot;&gt;&lt;span style=&quot;color: #ce9178;&quot;&gt;/deconnexion&lt;/span&gt;&lt;/div&gt;&lt;/div&gt;&lt;/div&gt;" style="text;strokeColor=none;fillColor=none;align=left;verticalAlign=top;spacingLeft=4;spacingRight=4;overflow=hidden;rotatable=0;points=[[0,0.5],[1,0.5]];portConstraint=eastwest;whiteSpace=wrap;html=1;" parent="na_QI1Uw0CQ7Xyxdx3C9-1" vertex="1">
          <mxGeometry y="164" width="190" height="26" as="geometry" />
        </mxCell>
        <mxCell id="AO8-OC1Z0KCrfWPKQw---11" value="&lt;div style=&quot;color: rgb(204, 204, 204); background-color: rgb(31, 31, 31); font-family: Consolas, &amp;quot;Courier New&amp;quot;, monospace; font-size: 14px; line-height: 19px; white-space: pre;&quot;&gt;&lt;div style=&quot;line-height: 19px;&quot;&gt;&lt;div style=&quot;line-height: 19px;&quot;&gt;&lt;span style=&quot;color: #ce9178;&quot;&gt;/DataUtilisateur&lt;/span&gt;&lt;/div&gt;&lt;/div&gt;&lt;/div&gt;" style="text;strokeColor=none;fillColor=none;align=left;verticalAlign=top;spacingLeft=4;spacingRight=4;overflow=hidden;rotatable=0;points=[[0,0.5],[1,0.5]];portConstraint=eastwest;whiteSpace=wrap;html=1;" parent="na_QI1Uw0CQ7Xyxdx3C9-1" vertex="1">
          <mxGeometry y="190" width="190" height="26" as="geometry" />
        </mxCell>
        <mxCell id="AO8-OC1Z0KCrfWPKQw---12" value="&lt;div style=&quot;color: rgb(204, 204, 204); background-color: rgb(31, 31, 31); font-family: Consolas, &amp;quot;Courier New&amp;quot;, monospace; font-size: 14px; line-height: 19px; white-space: pre;&quot;&gt;&lt;div style=&quot;line-height: 19px;&quot;&gt;&lt;div style=&quot;line-height: 19px;&quot;&gt;&lt;span style=&quot;color: #ce9178;&quot;&gt;/creerListe&lt;/span&gt;&lt;/div&gt;&lt;/div&gt;&lt;/div&gt;" style="text;strokeColor=none;fillColor=none;align=left;verticalAlign=top;spacingLeft=4;spacingRight=4;overflow=hidden;rotatable=0;points=[[0,0.5],[1,0.5]];portConstraint=eastwest;whiteSpace=wrap;html=1;" parent="na_QI1Uw0CQ7Xyxdx3C9-1" vertex="1">
          <mxGeometry y="216" width="190" height="26" as="geometry" />
        </mxCell>
        <mxCell id="AO8-OC1Z0KCrfWPKQw---13" value="&lt;div style=&quot;color: rgb(204, 204, 204); background-color: rgb(31, 31, 31); font-family: Consolas, &amp;quot;Courier New&amp;quot;, monospace; font-size: 14px; line-height: 19px; white-space: pre;&quot;&gt;&lt;div style=&quot;line-height: 19px;&quot;&gt;&lt;div style=&quot;line-height: 19px;&quot;&gt;&lt;div style=&quot;line-height: 19px;&quot;&gt;&lt;span style=&quot;color: #ce9178;&quot;&gt;/AllUserList&lt;/span&gt;&lt;/div&gt;&lt;/div&gt;&lt;/div&gt;&lt;/div&gt;" style="text;strokeColor=none;fillColor=none;align=left;verticalAlign=top;spacingLeft=4;spacingRight=4;overflow=hidden;rotatable=0;points=[[0,0.5],[1,0.5]];portConstraint=eastwest;whiteSpace=wrap;html=1;" parent="na_QI1Uw0CQ7Xyxdx3C9-1" vertex="1">
          <mxGeometry y="242" width="190" height="26" as="geometry" />
        </mxCell>
        <mxCell id="AO8-OC1Z0KCrfWPKQw---14" value="&lt;div style=&quot;color: rgb(204, 204, 204); background-color: rgb(31, 31, 31); font-family: Consolas, &amp;quot;Courier New&amp;quot;, monospace; font-size: 14px; line-height: 19px; white-space: pre;&quot;&gt;&lt;div style=&quot;line-height: 19px;&quot;&gt;&lt;div style=&quot;line-height: 19px;&quot;&gt;&lt;div style=&quot;line-height: 19px;&quot;&gt;&lt;div style=&quot;line-height: 19px;&quot;&gt;&lt;span style=&quot;color: #ce9178;&quot;&gt;/ajouterFilmAListe&lt;/span&gt;&lt;/div&gt;&lt;/div&gt;&lt;/div&gt;&lt;/div&gt;&lt;/div&gt;" style="text;strokeColor=none;fillColor=none;align=left;verticalAlign=top;spacingLeft=4;spacingRight=4;overflow=hidden;rotatable=0;points=[[0,0.5],[1,0.5]];portConstraint=eastwest;whiteSpace=wrap;html=1;" parent="na_QI1Uw0CQ7Xyxdx3C9-1" vertex="1">
          <mxGeometry y="268" width="190" height="26" as="geometry" />
        </mxCell>
        <mxCell id="AO8-OC1Z0KCrfWPKQw---15" value="&lt;div style=&quot;color: rgb(204, 204, 204); background-color: rgb(31, 31, 31); font-family: Consolas, &amp;quot;Courier New&amp;quot;, monospace; font-size: 14px; line-height: 19px; white-space: pre;&quot;&gt;&lt;div style=&quot;line-height: 19px;&quot;&gt;&lt;div style=&quot;line-height: 19px;&quot;&gt;&lt;div style=&quot;line-height: 19px;&quot;&gt;&lt;div style=&quot;line-height: 19px;&quot;&gt;&lt;span style=&quot;color: #ce9178;&quot;&gt;/ajouterSerieAListe&lt;/span&gt;&lt;/div&gt;&lt;/div&gt;&lt;/div&gt;&lt;/div&gt;&lt;/div&gt;" style="text;strokeColor=none;fillColor=none;align=left;verticalAlign=top;spacingLeft=4;spacingRight=4;overflow=hidden;rotatable=0;points=[[0,0.5],[1,0.5]];portConstraint=eastwest;whiteSpace=wrap;html=1;" parent="na_QI1Uw0CQ7Xyxdx3C9-1" vertex="1">
          <mxGeometry y="294" width="190" height="26" as="geometry" />
        </mxCell>
        <mxCell id="AO8-OC1Z0KCrfWPKQw---16" value="&lt;div style=&quot;color: rgb(204, 204, 204); background-color: rgb(31, 31, 31); font-family: Consolas, &amp;quot;Courier New&amp;quot;, monospace; font-size: 14px; line-height: 19px; white-space: pre;&quot;&gt;&lt;div style=&quot;line-height: 19px;&quot;&gt;&lt;div style=&quot;line-height: 19px;&quot;&gt;&lt;div style=&quot;line-height: 19px;&quot;&gt;&lt;div style=&quot;line-height: 19px;&quot;&gt;&lt;span style=&quot;color: #ce9178;&quot;&gt;/ajouterEpisodeAListe&lt;/span&gt;&lt;/div&gt;&lt;/div&gt;&lt;/div&gt;&lt;/div&gt;&lt;/div&gt;" style="text;strokeColor=none;fillColor=none;align=left;verticalAlign=top;spacingLeft=4;spacingRight=4;overflow=hidden;rotatable=0;points=[[0,0.5],[1,0.5]];portConstraint=eastwest;whiteSpace=wrap;html=1;" parent="na_QI1Uw0CQ7Xyxdx3C9-1" vertex="1">
          <mxGeometry y="320" width="190" height="26" as="geometry" />
        </mxCell>
        <mxCell id="AO8-OC1Z0KCrfWPKQw---17" value="&lt;div style=&quot;color: rgb(204, 204, 204); background-color: rgb(31, 31, 31); font-family: Consolas, &amp;quot;Courier New&amp;quot;, monospace; font-size: 14px; line-height: 19px; white-space: pre;&quot;&gt;&lt;div style=&quot;line-height: 19px;&quot;&gt;&lt;div style=&quot;line-height: 19px;&quot;&gt;&lt;div style=&quot;line-height: 19px;&quot;&gt;&lt;div style=&quot;line-height: 19px;&quot;&gt;&lt;span style=&quot;color: #ce9178;&quot;&gt;/supprimerFilmDeListe&lt;/span&gt;&lt;/div&gt;&lt;/div&gt;&lt;/div&gt;&lt;/div&gt;&lt;/div&gt;" style="text;strokeColor=none;fillColor=none;align=left;verticalAlign=top;spacingLeft=4;spacingRight=4;overflow=hidden;rotatable=0;points=[[0,0.5],[1,0.5]];portConstraint=eastwest;whiteSpace=wrap;html=1;" parent="na_QI1Uw0CQ7Xyxdx3C9-1" vertex="1">
          <mxGeometry y="346" width="190" height="26" as="geometry" />
        </mxCell>
        <mxCell id="AO8-OC1Z0KCrfWPKQw---18" value="&lt;div style=&quot;color: rgb(204, 204, 204); background-color: rgb(31, 31, 31); font-family: Consolas, &amp;quot;Courier New&amp;quot;, monospace; font-size: 14px; line-height: 19px; white-space: pre;&quot;&gt;&lt;div style=&quot;line-height: 19px;&quot;&gt;&lt;div style=&quot;line-height: 19px;&quot;&gt;&lt;div style=&quot;line-height: 19px;&quot;&gt;&lt;div style=&quot;line-height: 19px;&quot;&gt;&lt;div style=&quot;line-height: 19px;&quot;&gt;&lt;span style=&quot;color: #ce9178;&quot;&gt;/supprimerSerieDeListe&lt;/span&gt;&lt;/div&gt;&lt;/div&gt;&lt;/div&gt;&lt;/div&gt;&lt;/div&gt;&lt;/div&gt;" style="text;strokeColor=none;fillColor=none;align=left;verticalAlign=top;spacingLeft=4;spacingRight=4;overflow=hidden;rotatable=0;points=[[0,0.5],[1,0.5]];portConstraint=eastwest;whiteSpace=wrap;html=1;" parent="na_QI1Uw0CQ7Xyxdx3C9-1" vertex="1">
          <mxGeometry y="372" width="190" height="26" as="geometry" />
        </mxCell>
        <mxCell id="AO8-OC1Z0KCrfWPKQw---19" value="&lt;div style=&quot;color: rgb(204, 204, 204); background-color: rgb(31, 31, 31); font-family: Consolas, &amp;quot;Courier New&amp;quot;, monospace; font-size: 14px; line-height: 19px; white-space: pre;&quot;&gt;&lt;div style=&quot;line-height: 19px;&quot;&gt;&lt;div style=&quot;line-height: 19px;&quot;&gt;&lt;div style=&quot;line-height: 19px;&quot;&gt;&lt;div style=&quot;line-height: 19px;&quot;&gt;&lt;div style=&quot;line-height: 19px;&quot;&gt;&lt;span style=&quot;color: #ce9178;&quot;&gt;/supprimerListe&lt;/span&gt;&lt;/div&gt;&lt;/div&gt;&lt;/div&gt;&lt;/div&gt;&lt;/div&gt;&lt;/div&gt;" style="text;strokeColor=none;fillColor=none;align=left;verticalAlign=top;spacingLeft=4;spacingRight=4;overflow=hidden;rotatable=0;points=[[0,0.5],[1,0.5]];portConstraint=eastwest;whiteSpace=wrap;html=1;" parent="na_QI1Uw0CQ7Xyxdx3C9-1" vertex="1">
          <mxGeometry y="398" width="190" height="26" as="geometry" />
        </mxCell>
        <mxCell id="AO8-OC1Z0KCrfWPKQw---20" value="&lt;div style=&quot;color: rgb(204, 204, 204); background-color: rgb(31, 31, 31); font-family: Consolas, &amp;quot;Courier New&amp;quot;, monospace; font-size: 14px; line-height: 19px; white-space: pre;&quot;&gt;&lt;div style=&quot;line-height: 19px;&quot;&gt;&lt;div style=&quot;line-height: 19px;&quot;&gt;&lt;div style=&quot;line-height: 19px;&quot;&gt;&lt;div style=&quot;line-height: 19px;&quot;&gt;&lt;div style=&quot;line-height: 19px;&quot;&gt;&lt;span style=&quot;color: #ce9178;&quot;&gt;/updateUserData&lt;/span&gt;&lt;/div&gt;&lt;/div&gt;&lt;/div&gt;&lt;/div&gt;&lt;/div&gt;&lt;/div&gt;" style="text;strokeColor=none;fillColor=none;align=left;verticalAlign=top;spacingLeft=4;spacingRight=4;overflow=hidden;rotatable=0;points=[[0,0.5],[1,0.5]];portConstraint=eastwest;whiteSpace=wrap;html=1;" parent="na_QI1Uw0CQ7Xyxdx3C9-1" vertex="1">
          <mxGeometry y="424" width="190" height="26" as="geometry" />
        </mxCell>
        <mxCell id="AO8-OC1Z0KCrfWPKQw---21" value="&lt;div style=&quot;color: rgb(204, 204, 204); background-color: rgb(31, 31, 31); font-family: Consolas, &amp;quot;Courier New&amp;quot;, monospace; font-size: 14px; line-height: 19px; white-space: pre;&quot;&gt;&lt;div style=&quot;line-height: 19px;&quot;&gt;&lt;div style=&quot;line-height: 19px;&quot;&gt;&lt;div style=&quot;line-height: 19px;&quot;&gt;&lt;div style=&quot;line-height: 19px;&quot;&gt;&lt;div style=&quot;line-height: 19px;&quot;&gt;&lt;div style=&quot;line-height: 19px;&quot;&gt;&lt;span style=&quot;color: #ce9178;&quot;&gt;/updateRankFilm&lt;/span&gt;&lt;/div&gt;&lt;/div&gt;&lt;/div&gt;&lt;/div&gt;&lt;/div&gt;&lt;/div&gt;&lt;/div&gt;" style="text;strokeColor=none;fillColor=none;align=left;verticalAlign=top;spacingLeft=4;spacingRight=4;overflow=hidden;rotatable=0;points=[[0,0.5],[1,0.5]];portConstraint=eastwest;whiteSpace=wrap;html=1;" parent="na_QI1Uw0CQ7Xyxdx3C9-1" vertex="1">
          <mxGeometry y="450" width="190" height="26" as="geometry" />
        </mxCell>
        <mxCell id="AO8-OC1Z0KCrfWPKQw---22" value="&lt;div style=&quot;color: rgb(204, 204, 204); background-color: rgb(31, 31, 31); font-family: Consolas, &amp;quot;Courier New&amp;quot;, monospace; font-size: 14px; line-height: 19px; white-space: pre;&quot;&gt;&lt;div style=&quot;line-height: 19px;&quot;&gt;&lt;div style=&quot;line-height: 19px;&quot;&gt;&lt;div style=&quot;line-height: 19px;&quot;&gt;&lt;div style=&quot;line-height: 19px;&quot;&gt;&lt;div style=&quot;line-height: 19px;&quot;&gt;&lt;div style=&quot;line-height: 19px;&quot;&gt;&lt;span style=&quot;color: #ce9178;&quot;&gt;/updateRankSerie&lt;/span&gt;&lt;/div&gt;&lt;/div&gt;&lt;/div&gt;&lt;/div&gt;&lt;/div&gt;&lt;/div&gt;&lt;/div&gt;" style="text;strokeColor=none;fillColor=none;align=left;verticalAlign=top;spacingLeft=4;spacingRight=4;overflow=hidden;rotatable=0;points=[[0,0.5],[1,0.5]];portConstraint=eastwest;whiteSpace=wrap;html=1;" parent="na_QI1Uw0CQ7Xyxdx3C9-1" vertex="1">
          <mxGeometry y="476" width="190" height="26" as="geometry" />
        </mxCell>
        <mxCell id="AO8-OC1Z0KCrfWPKQw---23" value="&lt;div style=&quot;color: rgb(204, 204, 204); background-color: rgb(31, 31, 31); font-family: Consolas, &amp;quot;Courier New&amp;quot;, monospace; font-size: 14px; line-height: 19px; white-space: pre;&quot;&gt;&lt;div style=&quot;line-height: 19px;&quot;&gt;&lt;div style=&quot;line-height: 19px;&quot;&gt;&lt;div style=&quot;line-height: 19px;&quot;&gt;&lt;div style=&quot;line-height: 19px;&quot;&gt;&lt;div style=&quot;line-height: 19px;&quot;&gt;&lt;div style=&quot;line-height: 19px;&quot;&gt;&lt;div style=&quot;line-height: 19px;&quot;&gt;&lt;span style=&quot;color: #ce9178;&quot;&gt;/updateList&lt;/span&gt;&lt;/div&gt;&lt;/div&gt;&lt;/div&gt;&lt;/div&gt;&lt;/div&gt;&lt;/div&gt;&lt;/div&gt;&lt;/div&gt;" style="text;strokeColor=none;fillColor=none;align=left;verticalAlign=top;spacingLeft=4;spacingRight=4;overflow=hidden;rotatable=0;points=[[0,0.5],[1,0.5]];portConstraint=eastwest;whiteSpace=wrap;html=1;" parent="na_QI1Uw0CQ7Xyxdx3C9-1" vertex="1">
          <mxGeometry y="502" width="190" height="26" as="geometry" />
        </mxCell>
        <mxCell id="AO8-OC1Z0KCrfWPKQw---24" value="&lt;div style=&quot;color: rgb(204, 204, 204); background-color: rgb(31, 31, 31); font-family: Consolas, &amp;quot;Courier New&amp;quot;, monospace; font-size: 14px; line-height: 19px; white-space: pre;&quot;&gt;&lt;div style=&quot;line-height: 19px;&quot;&gt;&lt;div style=&quot;line-height: 19px;&quot;&gt;&lt;div style=&quot;line-height: 19px;&quot;&gt;&lt;div style=&quot;line-height: 19px;&quot;&gt;&lt;div style=&quot;line-height: 19px;&quot;&gt;&lt;div style=&quot;line-height: 19px;&quot;&gt;&lt;div style=&quot;line-height: 19px;&quot;&gt;&lt;div style=&quot;line-height: 19px;&quot;&gt;&lt;span style=&quot;color: #ce9178;&quot;&gt;/getFilmFromList&lt;/span&gt;&lt;/div&gt;&lt;/div&gt;&lt;/div&gt;&lt;/div&gt;&lt;/div&gt;&lt;/div&gt;&lt;/div&gt;&lt;/div&gt;&lt;/div&gt;" style="text;strokeColor=none;fillColor=none;align=left;verticalAlign=top;spacingLeft=4;spacingRight=4;overflow=hidden;rotatable=0;points=[[0,0.5],[1,0.5]];portConstraint=eastwest;whiteSpace=wrap;html=1;" parent="na_QI1Uw0CQ7Xyxdx3C9-1" vertex="1">
          <mxGeometry y="528" width="190" height="26" as="geometry" />
        </mxCell>
        <mxCell id="AO8-OC1Z0KCrfWPKQw---25" value="&lt;div style=&quot;color: rgb(204, 204, 204); background-color: rgb(31, 31, 31); font-family: Consolas, &amp;quot;Courier New&amp;quot;, monospace; font-size: 14px; line-height: 19px; white-space: pre;&quot;&gt;&lt;div style=&quot;line-height: 19px;&quot;&gt;&lt;div style=&quot;line-height: 19px;&quot;&gt;&lt;div style=&quot;line-height: 19px;&quot;&gt;&lt;div style=&quot;line-height: 19px;&quot;&gt;&lt;div style=&quot;line-height: 19px;&quot;&gt;&lt;div style=&quot;line-height: 19px;&quot;&gt;&lt;div style=&quot;line-height: 19px;&quot;&gt;&lt;div style=&quot;line-height: 19px;&quot;&gt;&lt;div style=&quot;line-height: 19px;&quot;&gt;&lt;span style=&quot;color: #ce9178;&quot;&gt;/getSerieFromList&lt;/span&gt;&lt;/div&gt;&lt;/div&gt;&lt;/div&gt;&lt;/div&gt;&lt;/div&gt;&lt;/div&gt;&lt;/div&gt;&lt;/div&gt;&lt;/div&gt;&lt;/div&gt;" style="text;strokeColor=none;fillColor=none;align=left;verticalAlign=top;spacingLeft=4;spacingRight=4;overflow=hidden;rotatable=0;points=[[0,0.5],[1,0.5]];portConstraint=eastwest;whiteSpace=wrap;html=1;" parent="na_QI1Uw0CQ7Xyxdx3C9-1" vertex="1">
          <mxGeometry y="554" width="190" height="26" as="geometry" />
        </mxCell>
        <mxCell id="na_QI1Uw0CQ7Xyxdx3C9-6" value="" style="endArrow=classic;html=1;rounded=0;exitX=0.5;exitY=1;exitDx=0;exitDy=0;entryX=0.512;entryY=-0.003;entryDx=0;entryDy=0;entryPerimeter=0;" parent="1" source="MrmV1t-2pLRhj0DmjCeG-81" target="na_QI1Uw0CQ7Xyxdx3C9-1" edge="1">
          <mxGeometry width="50" height="50" relative="1" as="geometry">
            <mxPoint x="930" y="450" as="sourcePoint" />
            <mxPoint x="840" y="595" as="targetPoint" />
          </mxGeometry>
        </mxCell>
        <mxCell id="h_bTq5OJt-PLwR_kEyo7-1" value="&lt;div&gt;&lt;br&gt;&lt;/div&gt;" style="swimlane;whiteSpace=wrap;html=1;" parent="1" vertex="1">
          <mxGeometry x="1320" y="690" width="200" height="230" as="geometry" />
        </mxCell>
        <mxCell id="SlWSlXs5u3KdVbCqq3Fd-1" value="FIlmService&lt;br&gt;UserService&lt;br&gt;SerieService&lt;br&gt;ListeService&lt;div&gt;&lt;br&gt;&lt;/div&gt;&lt;div&gt;&lt;br style=&quot;font-weight: 700; text-wrap: wrap;&quot;&gt;&lt;/div&gt;" style="text;html=1;align=center;verticalAlign=middle;resizable=0;points=[];autosize=1;strokeColor=none;fillColor=none;" vertex="1" parent="h_bTq5OJt-PLwR_kEyo7-1">
          <mxGeometry x="55" y="59" width="90" height="100" as="geometry" />
        </mxCell>
        <mxCell id="h_bTq5OJt-PLwR_kEyo7-2" value="DbFetcher&lt;span style=&quot;color: rgba(0, 0, 0, 0); font-family: monospace; font-size: 0px; font-weight: 400; text-align: start; text-wrap: nowrap;&quot;&gt;%3CmxGraphModel%3E%3Croot%3E%3CmxCell%20id%3D%220%22%2F%3E%3CmxCell%20id%3D%221%22%20parent%3D%220%22%2F%3E%3CmxCell%20id%3D%222%22%20value%3D%22LogiqueMetier%22%20style%3D%22swimlane%3BwhiteSpace%3Dwrap%3Bhtml%3D1%3B%22%20vertex%3D%221%22%20parent%3D%221%22%3E%3CmxGeometry%20x%3D%221270%22%20y%3D%22705%22%20width%3D%22200%22%20height%3D%22200%22%20as%3D%22geometry%22%2F%3E%3C%2FmxCell%3E%3C%2Froot%3E%3C%2FmxGraphModel%3E&lt;/span&gt;" style="swimlane;whiteSpace=wrap;html=1;" parent="1" vertex="1">
          <mxGeometry x="1940" y="810" width="200" height="200" as="geometry" />
        </mxCell>
        <mxCell id="h_bTq5OJt-PLwR_kEyo7-3" value="DbSetter&lt;span style=&quot;color: rgba(0, 0, 0, 0); font-family: monospace; font-size: 0px; font-weight: 400; text-align: start; text-wrap: nowrap; background-color: initial;&quot;&gt;%3CmxGraphModel%3E%3Croot%3E%3CmxCell%20id%3D%220%22%2F%3E%3CmxCell%20id%3D%221%22%20parent%3D%220%22%2F%3E%3CmxCell%20id%3D%222%22%20value%3D%22LogiqueMetier%22%20style%3D%22swimlane%3BwhiteSpace%3Dwrap%3Bhtml%3D1%3B%22%20vertex%3D%221%22%20parent%3D%221%22%3E%3CmxGeometry%20x%3D%221270%22%20y%3D%22705%22%20width%3D%22200%22%20height%3D%22200%22%20as%3D%22geometry%22%2F%3E%3C%2FmxCell%3E%3C%2Froot%3E%3C%2FmxGraphMode&lt;/span&gt;" style="swimlane;whiteSpace=wrap;html=1;" parent="1" vertex="1">
          <mxGeometry x="1680" y="810" width="200" height="200" as="geometry" />
        </mxCell>
        <mxCell id="h_bTq5OJt-PLwR_kEyo7-4" value="" style="endArrow=classic;html=1;rounded=0;fillColor=#0050ef;strokeColor=#001DBC;entryX=0;entryY=0.5;entryDx=0;entryDy=0;exitX=0.75;exitY=1;exitDx=0;exitDy=0;" parent="1" source="h_bTq5OJt-PLwR_kEyo7-3" target="MrmV1t-2pLRhj0DmjCeG-90" edge="1">
          <mxGeometry width="50" height="50" relative="1" as="geometry">
            <mxPoint x="1800" y="1010" as="sourcePoint" />
            <mxPoint x="1860" y="1080" as="targetPoint" />
            <Array as="points">
              <mxPoint x="1830" y="1110" />
            </Array>
          </mxGeometry>
        </mxCell>
        <mxCell id="h_bTq5OJt-PLwR_kEyo7-5" value="" style="endArrow=classic;html=1;rounded=0;fillColor=#0050ef;strokeColor=#001DBC;exitX=1;exitY=0.5;exitDx=0;exitDy=0;" parent="1" source="AO8-OC1Z0KCrfWPKQw---13" edge="1">
          <mxGeometry width="50" height="50" relative="1" as="geometry">
            <mxPoint x="1180" y="646.48" as="sourcePoint" />
            <mxPoint x="1320" y="840" as="targetPoint" />
          </mxGeometry>
        </mxCell>
        <mxCell id="h_bTq5OJt-PLwR_kEyo7-6" value="" style="endArrow=classic;html=1;rounded=0;fillColor=#0050ef;strokeColor=#001DBC;entryX=0.5;entryY=1;entryDx=0;entryDy=0;" parent="1" target="h_bTq5OJt-PLwR_kEyo7-2" edge="1">
          <mxGeometry width="50" height="50" relative="1" as="geometry">
            <mxPoint x="1360" y="920" as="sourcePoint" />
            <mxPoint x="1941.1999999999998" y="1076.8000000000002" as="targetPoint" />
            <Array as="points">
              <mxPoint x="1360" y="1220" />
              <mxPoint x="2040" y="1220" />
            </Array>
          </mxGeometry>
        </mxCell>
        <mxCell id="h_bTq5OJt-PLwR_kEyo7-7" value="" style="endArrow=classic;html=1;rounded=0;fillColor=#0050ef;strokeColor=#001DBC;entryX=0.75;entryY=1;entryDx=0;entryDy=0;" parent="1" target="h_bTq5OJt-PLwR_kEyo7-1" edge="1">
          <mxGeometry width="50" height="50" relative="1" as="geometry">
            <mxPoint x="1790" y="1010" as="sourcePoint" />
            <mxPoint x="1640" y="980" as="targetPoint" />
            <Array as="points">
              <mxPoint x="1790" y="1170" />
              <mxPoint x="1470" y="1170" />
            </Array>
          </mxGeometry>
        </mxCell>
        <mxCell id="h_bTq5OJt-PLwR_kEyo7-8" value="DbMain" style="swimlane;whiteSpace=wrap;html=1;" parent="1" vertex="1">
          <mxGeometry x="1810" y="456" width="200" height="200" as="geometry" />
        </mxCell>
        <mxCell id="h_bTq5OJt-PLwR_kEyo7-12" value="type {&lt;font face=&quot;Consolas, Courier New, monospace&quot; color=&quot;#9cdcfe&quot;&gt;&lt;span style=&quot;font-size: 10px; white-space: pre; background-color: rgb(31, 31, 31);&quot;&gt;Film,Serie&lt;/span&gt;&lt;/font&gt;&lt;span style=&quot;background-color: initial;&quot;&gt;}&lt;/span&gt;" style="text;strokeColor=none;fillColor=none;align=left;verticalAlign=top;spacingLeft=4;spacingRight=4;overflow=hidden;rotatable=0;points=[[0,0.5],[1,0.5]];portConstraint=eastwest;whiteSpace=wrap;html=1;" parent="h_bTq5OJt-PLwR_kEyo7-8" vertex="1">
          <mxGeometry y="24" width="200" height="26" as="geometry" />
        </mxCell>
        <mxCell id="h_bTq5OJt-PLwR_kEyo7-9" value="" style="shape=flexArrow;endArrow=classic;html=1;rounded=0;exitX=0.509;exitY=0.023;exitDx=0;exitDy=0;exitPerimeter=0;" parent="1" edge="1">
          <mxGeometry width="50" height="50" relative="1" as="geometry">
            <mxPoint x="1789.9999999999998" y="810.0000000000001" as="sourcePoint" />
            <mxPoint x="1908.2" y="655.4" as="targetPoint" />
            <Array as="points">
              <mxPoint x="1908" y="740" />
            </Array>
          </mxGeometry>
        </mxCell>
        <mxCell id="h_bTq5OJt-PLwR_kEyo7-10" value="" style="shape=flexArrow;endArrow=classic;html=1;rounded=0;exitX=0.5;exitY=0;exitDx=0;exitDy=0;" parent="1" source="h_bTq5OJt-PLwR_kEyo7-2" edge="1">
          <mxGeometry width="50" height="50" relative="1" as="geometry">
            <mxPoint x="1789.9999999999998" y="810.6000000000001" as="sourcePoint" />
            <mxPoint x="1908.2" y="656" as="targetPoint" />
            <Array as="points">
              <mxPoint x="1908" y="740.6" />
            </Array>
          </mxGeometry>
        </mxCell>
        <mxCell id="h_bTq5OJt-PLwR_kEyo7-11" value="+&amp;nbsp;&lt;span style=&quot;color: rgb(220, 220, 170); background-color: rgb(31, 31, 31); font-family: Consolas, &amp;quot;Courier New&amp;quot;, monospace; font-size: 14px; white-space: pre;&quot;&gt;FetchById()&lt;/span&gt;" style="text;strokeColor=none;fillColor=none;align=left;verticalAlign=top;spacingLeft=4;spacingRight=4;overflow=hidden;rotatable=0;points=[[0,0.5],[1,0.5]];portConstraint=eastwest;whiteSpace=wrap;html=1;" parent="1" vertex="1">
          <mxGeometry x="300" y="256" width="160" height="30" as="geometry" />
        </mxCell>
      </root>
    </mxGraphModel>
  </diagram>
</mxfile>
